<?xml version="1.0" encoding="UTF-8"?>
<svg xmlns="http://www.w3.org/2000/svg" xmlns:xlink="http://www.w3.org/1999/xlink" width="960pt" height="540.000001pt" viewBox="0 0 960 540.000001" version="1.2">
<defs>
<clipPath id="clip1">
  <path d="M 0.886719 0 L 959.113281 0 L 959.113281 539 L 0.886719 539 Z M 0.886719 0 "/>
</clipPath>
<clipPath id="clip2">
  <path d="M 388 38 L 674 38 L 674 292.675781 L 388 292.675781 Z M 388 38 "/>
</clipPath>
<clipPath id="clip3">
  <path d="M 282 341 L 308 341 L 308 368 L 282 368 Z M 282 341 "/>
</clipPath>
<clipPath id="clip4">
  <path d="M 599.160156 348.066406 L 464.300781 513.390625 L 231.679688 323.640625 L 366.539062 158.3125 Z M 599.160156 348.066406 "/>
</clipPath>
<clipPath id="clip5">
  <path d="M 599.160156 348.066406 L 464.300781 513.390625 L 231.679688 323.640625 L 366.539062 158.3125 Z M 599.160156 348.066406 "/>
</clipPath>
<clipPath id="clip6">
  <path d="M 520 302 L 546 302 L 546 328 L 520 328 Z M 520 302 "/>
</clipPath>
<clipPath id="clip7">
  <path d="M 599.160156 348.066406 L 464.300781 513.390625 L 231.679688 323.640625 L 366.539062 158.3125 Z M 599.160156 348.066406 "/>
</clipPath>
<clipPath id="clip8">
  <path d="M 599.160156 348.066406 L 464.300781 513.390625 L 231.679688 323.640625 L 366.539062 158.3125 Z M 599.160156 348.066406 "/>
</clipPath>
<clipPath id="clip9">
  <path d="M 364 288 L 390 288 L 390 314 L 364 314 Z M 364 288 "/>
</clipPath>
<clipPath id="clip10">
  <path d="M 599.160156 348.066406 L 464.300781 513.390625 L 231.679688 323.640625 L 366.539062 158.3125 Z M 599.160156 348.066406 "/>
</clipPath>
<clipPath id="clip11">
  <path d="M 599.160156 348.066406 L 464.300781 513.390625 L 231.679688 323.640625 L 366.539062 158.3125 Z M 599.160156 348.066406 "/>
</clipPath>
<clipPath id="clip12">
  <path d="M 329 351 L 343 351 L 343 364 L 329 364 Z M 329 351 "/>
</clipPath>
<clipPath id="clip13">
  <path d="M 599.160156 348.066406 L 464.300781 513.390625 L 231.679688 323.640625 L 366.539062 158.3125 Z M 599.160156 348.066406 "/>
</clipPath>
<clipPath id="clip14">
  <path d="M 599.160156 348.066406 L 464.300781 513.390625 L 231.679688 323.640625 L 366.539062 158.3125 Z M 599.160156 348.066406 "/>
</clipPath>
<clipPath id="clip15">
  <path d="M 435 392 L 448 392 L 448 405 L 435 405 Z M 435 392 "/>
</clipPath>
<clipPath id="clip16">
  <path d="M 599.160156 348.066406 L 464.300781 513.390625 L 231.679688 323.640625 L 366.539062 158.3125 Z M 599.160156 348.066406 "/>
</clipPath>
<clipPath id="clip17">
  <path d="M 599.160156 348.066406 L 464.300781 513.390625 L 231.679688 323.640625 L 366.539062 158.3125 Z M 599.160156 348.066406 "/>
</clipPath>
<clipPath id="clip18">
  <path d="M 446 274 L 459 274 L 459 288 L 446 288 Z M 446 274 "/>
</clipPath>
<clipPath id="clip19">
  <path d="M 599.160156 348.066406 L 464.300781 513.390625 L 231.679688 323.640625 L 366.539062 158.3125 Z M 599.160156 348.066406 "/>
</clipPath>
<clipPath id="clip20">
  <path d="M 599.160156 348.066406 L 464.300781 513.390625 L 231.679688 323.640625 L 366.539062 158.3125 Z M 599.160156 348.066406 "/>
</clipPath>
<clipPath id="clip21">
  <path d="M 280 261 L 294 261 L 294 275 L 280 275 Z M 280 261 "/>
</clipPath>
<clipPath id="clip22">
  <path d="M 599.160156 348.066406 L 464.300781 513.390625 L 231.679688 323.640625 L 366.539062 158.3125 Z M 599.160156 348.066406 "/>
</clipPath>
<clipPath id="clip23">
  <path d="M 599.160156 348.066406 L 464.300781 513.390625 L 231.679688 323.640625 L 366.539062 158.3125 Z M 599.160156 348.066406 "/>
</clipPath>
<clipPath id="clip24">
  <path d="M 401 352 L 410 352 L 410 361 L 401 361 Z M 401 352 "/>
</clipPath>
<clipPath id="clip25">
  <path d="M 599.160156 348.066406 L 464.300781 513.390625 L 231.679688 323.640625 L 366.539062 158.3125 Z M 599.160156 348.066406 "/>
</clipPath>
<clipPath id="clip26">
  <path d="M 599.160156 348.066406 L 464.300781 513.390625 L 231.679688 323.640625 L 366.539062 158.3125 Z M 599.160156 348.066406 "/>
</clipPath>
<clipPath id="clip27">
  <path d="M 481 393 L 491 393 L 491 402 L 481 402 Z M 481 393 "/>
</clipPath>
<clipPath id="clip28">
  <path d="M 599.160156 348.066406 L 464.300781 513.390625 L 231.679688 323.640625 L 366.539062 158.3125 Z M 599.160156 348.066406 "/>
</clipPath>
<clipPath id="clip29">
  <path d="M 599.160156 348.066406 L 464.300781 513.390625 L 231.679688 323.640625 L 366.539062 158.3125 Z M 599.160156 348.066406 "/>
</clipPath>
<clipPath id="clip30">
  <path d="M 543 398 L 552 398 L 552 407 L 543 407 Z M 543 398 "/>
</clipPath>
<clipPath id="clip31">
  <path d="M 599.160156 348.066406 L 464.300781 513.390625 L 231.679688 323.640625 L 366.539062 158.3125 Z M 599.160156 348.066406 "/>
</clipPath>
<clipPath id="clip32">
  <path d="M 599.160156 348.066406 L 464.300781 513.390625 L 231.679688 323.640625 L 366.539062 158.3125 Z M 599.160156 348.066406 "/>
</clipPath>
<clipPath id="clip33">
  <path d="M 463 315 L 472 315 L 472 324 L 463 324 Z M 463 315 "/>
</clipPath>
<clipPath id="clip34">
  <path d="M 599.160156 348.066406 L 464.300781 513.390625 L 231.679688 323.640625 L 366.539062 158.3125 Z M 599.160156 348.066406 "/>
</clipPath>
<clipPath id="clip35">
  <path d="M 599.160156 348.066406 L 464.300781 513.390625 L 231.679688 323.640625 L 366.539062 158.3125 Z M 599.160156 348.066406 "/>
</clipPath>
<clipPath id="clip36">
  <path d="M 390 217 L 399 217 L 399 226 L 390 226 Z M 390 217 "/>
</clipPath>
<clipPath id="clip37">
  <path d="M 599.160156 348.066406 L 464.300781 513.390625 L 231.679688 323.640625 L 366.539062 158.3125 Z M 599.160156 348.066406 "/>
</clipPath>
<clipPath id="clip38">
  <path d="M 599.160156 348.066406 L 464.300781 513.390625 L 231.679688 323.640625 L 366.539062 158.3125 Z M 599.160156 348.066406 "/>
</clipPath>
</defs>
<g id="surface1">
<g clip-path="url(#clip1)" clip-rule="nonzero">
<path style=" stroke:none;fill-rule:nonzero;fill:rgb(100%,100%,100%);fill-opacity:1;" d="M 0.886719 0 L 959.113281 0 L 959.113281 2178.464844 L 0.886719 2178.464844 Z M 0.886719 0 "/>
<path style=" stroke:none;fill-rule:nonzero;fill:rgb(100%,100%,100%);fill-opacity:1;" d="M 0.886719 0 L 959.113281 0 L 959.113281 539 L 0.886719 539 Z M 0.886719 0 "/>
<path style=" stroke:none;fill-rule:nonzero;fill:rgb(100%,100%,100%);fill-opacity:1;" d="M 0.886719 0 L 959.113281 0 L 959.113281 539 L 0.886719 539 Z M 0.886719 0 "/>
</g>
<g clip-path="url(#clip2)" clip-rule="nonzero">
<path style=" stroke:none;fill-rule:nonzero;fill:rgb(38.819885%,44.309998%,94.509888%);fill-opacity:1;" d="M 666.644531 43.0625 C 666.644531 42.71875 666.644531 42.71875 666.644531 43.0625 C 665.621094 42.039062 664.597656 41.355469 663.574219 40.675781 C 663.574219 40.675781 663.574219 40.675781 663.234375 40.675781 C 663.234375 40.675781 663.234375 40.675781 662.894531 40.675781 C 657.777344 37.945312 651.984375 37.261719 646.1875 38.96875 L 402.425781 121.171875 C 394.925781 123.5625 389.46875 130.042969 388.789062 137.886719 C 387.765625 145.734375 391.515625 153.238281 397.992188 157.671875 L 466.859375 202.015625 L 474.359375 273.988281 C 475.042969 281.148438 479.476562 287.289062 485.953125 290.359375 C 485.953125 290.359375 485.953125 290.359375 486.292969 290.359375 C 489.019531 291.722656 491.75 292.066406 494.816406 292.066406 C 499.25 292.066406 503.339844 290.699219 506.75 287.972656 L 552.09375 254.542969 L 602.550781 287.628906 C 605.957031 290.019531 609.707031 291.042969 613.800781 291.042969 C 616.527344 291.042969 619.253906 290.359375 621.980469 289.335938 C 628.460938 286.605469 632.890625 281.148438 633.914062 274.328125 L 673.460938 61.480469 C 674.484375 55 672.097656 47.835938 666.644531 43.0625 Z M 508.792969 217.703125 C 508.792969 217.703125 508.453125 218.046875 508.792969 217.703125 C 508.453125 218.046875 508.453125 218.386719 508.453125 218.386719 C 508.453125 218.386719 508.453125 218.386719 508.453125 218.726562 C 508.453125 219.070312 508.113281 219.070312 508.113281 219.410156 C 508.113281 219.410156 508.113281 219.75 508.113281 219.75 L 487.65625 269.550781 L 480.496094 201.332031 L 617.890625 89.792969 Z M 402.085938 139.933594 C 402.425781 137.207031 404.128906 135.160156 406.515625 134.476562 L 636.984375 56.707031 L 472.65625 189.734375 L 405.152344 146.414062 C 402.765625 145.050781 401.742188 142.664062 402.085938 139.933594 Z M 498.90625 277.398438 L 517.316406 232.371094 L 539.820312 247.039062 Z M 619.9375 272.28125 C 619.59375 274.667969 617.890625 276.375 615.84375 277.398438 C 613.800781 278.421875 611.414062 278.078125 609.367188 276.714844 L 524.136719 220.773438 L 659.484375 61.820312 Z M 619.9375 272.28125 "/>
</g>
<g clip-path="url(#clip3)" clip-rule="nonzero">
<g clip-path="url(#clip4)" clip-rule="nonzero">
<g clip-path="url(#clip5)" clip-rule="nonzero">
<path style=" stroke:none;fill-rule:nonzero;fill:rgb(38.819885%,44.309998%,94.509888%);fill-opacity:1;" d="M 285.851562 366.914062 C 288.152344 365.558594 290.25 363.945312 292.148438 362.070312 C 293.351562 360.90625 294.472656 359.683594 295.546875 358.414062 C 296.855469 359.378906 298.195312 360.304688 299.589844 361.191406 C 301.796875 362.632812 304.105469 363.878906 306.519531 364.9375 C 306.707031 365.019531 306.898438 365.035156 307.09375 364.984375 C 307.292969 364.9375 307.457031 364.835938 307.585938 364.675781 C 307.714844 364.519531 307.78125 364.339844 307.789062 364.132812 C 307.796875 363.929688 307.742188 363.746094 307.625 363.578125 C 306.105469 361.429688 304.417969 359.417969 302.566406 357.546875 C 301.410156 356.347656 300.210938 355.207031 298.976562 354.085938 C 299.960938 352.753906 300.910156 351.394531 301.808594 349.980469 C 303.25 347.773438 304.496094 345.464844 305.546875 343.046875 C 305.660156 342.746094 305.632812 342.457031 305.457031 342.179688 C 305.316406 341.976562 305.121094 341.851562 304.875 341.804688 C 304.628906 341.757812 304.402344 341.808594 304.195312 341.949219 C 302.042969 343.460938 300.027344 345.148438 298.15625 347 C 296.988281 348.140625 295.859375 349.320312 294.753906 350.539062 C 293.460938 349.496094 292.105469 348.535156 290.695312 347.65625 C 288.464844 346.195312 286.085938 345.035156 283.558594 344.1875 C 283.347656 344.117188 283.144531 344.136719 282.953125 344.246094 C 282.769531 344.351562 282.652344 344.503906 282.597656 344.703125 C 282.542969 344.90625 282.566406 345.097656 282.664062 345.277344 C 284.007812 347.582031 285.621094 349.679688 287.5 351.570312 C 288.636719 352.746094 289.832031 353.859375 291.085938 354.914062 C 290.058594 356.1875 289.109375 357.519531 288.242188 358.910156 C 286.785156 361.144531 285.628906 363.527344 284.769531 366.058594 C 284.707031 366.265625 284.722656 366.464844 284.824219 366.65625 C 284.933594 366.828125 285.089844 366.9375 285.289062 366.988281 C 285.484375 367.039062 285.671875 367.011719 285.851562 366.914062 Z M 285.851562 366.914062 "/>
</g>
</g>
</g>
<g clip-path="url(#clip6)" clip-rule="nonzero">
<g clip-path="url(#clip7)" clip-rule="nonzero">
<g clip-path="url(#clip8)" clip-rule="nonzero">
<path style=" stroke:none;fill-rule:nonzero;fill:rgb(38.819885%,44.309998%,94.509888%);fill-opacity:1;" d="M 523.398438 327.335938 C 525.707031 325.988281 527.804688 324.371094 529.699219 322.484375 C 530.894531 321.328125 532.027344 320.113281 533.101562 318.84375 C 534.414062 319.800781 535.753906 320.726562 537.144531 321.621094 C 539.347656 323.058594 541.65625 324.304688 544.070312 325.351562 C 544.375 325.484375 544.664062 325.453125 544.9375 325.261719 C 545.144531 325.125 545.269531 324.933594 545.316406 324.6875 C 545.363281 324.445312 545.316406 324.21875 545.179688 324.011719 L 545.167969 324.003906 C 543.65625 321.851562 541.976562 319.839844 540.125 317.96875 C 538.960938 316.78125 537.757812 315.625 536.527344 314.519531 C 537.511719 313.1875 538.457031 311.8125 539.359375 310.410156 C 540.800781 308.207031 542.046875 305.894531 543.097656 303.480469 C 543.210938 303.175781 543.183594 302.886719 543.007812 302.613281 C 542.871094 302.40625 542.679688 302.28125 542.433594 302.234375 C 542.191406 302.1875 541.964844 302.230469 541.757812 302.371094 L 541.75 302.382812 C 539.59375 303.898438 537.582031 305.582031 535.710938 307.433594 C 534.539062 308.578125 533.414062 309.753906 532.308594 310.972656 C 531.003906 309.945312 529.648438 308.984375 528.246094 308.09375 C 526.015625 306.628906 523.632812 305.46875 521.101562 304.613281 C 520.898438 304.546875 520.699219 304.566406 520.511719 304.675781 C 520.332031 304.777344 520.214844 304.929688 520.15625 305.125 C 520.101562 305.324219 520.121094 305.515625 520.21875 305.699219 C 521.570312 308 523.183594 310.101562 525.0625 312 C 526.195312 313.175781 527.398438 314.269531 528.644531 315.339844 C 527.617188 316.613281 526.671875 317.945312 525.800781 319.335938 C 524.34375 321.574219 523.183594 323.957031 522.316406 326.484375 C 522.226562 326.808594 522.308594 327.078125 522.570312 327.292969 C 522.835938 327.507812 523.117188 327.535156 523.414062 327.378906 Z M 523.398438 327.335938 "/>
</g>
</g>
</g>
<g clip-path="url(#clip9)" clip-rule="nonzero">
<g clip-path="url(#clip10)" clip-rule="nonzero">
<g clip-path="url(#clip11)" clip-rule="nonzero">
<path style=" stroke:none;fill-rule:nonzero;fill:rgb(38.819885%,44.309998%,94.509888%);fill-opacity:1;" d="M 367.839844 313.511719 C 370.148438 312.164062 372.25 310.546875 374.144531 308.660156 C 375.335938 307.503906 376.46875 306.289062 377.542969 305.019531 C 378.855469 305.976562 380.195312 306.902344 381.585938 307.796875 C 383.789062 309.234375 386.097656 310.480469 388.511719 311.527344 C 388.816406 311.660156 389.105469 311.632812 389.378906 311.4375 C 389.585938 311.300781 389.710938 311.109375 389.757812 310.863281 C 389.804688 310.621094 389.761719 310.394531 389.621094 310.1875 L 389.609375 310.179688 C 388.101562 308.027344 386.417969 306.015625 384.558594 304.152344 C 383.402344 302.957031 382.199219 301.800781 380.96875 300.695312 C 381.945312 299.355469 382.902344 297.988281 383.792969 296.582031 C 385.230469 294.375 386.480469 292.066406 387.539062 289.65625 C 387.652344 289.351562 387.625 289.0625 387.449219 288.789062 C 387.3125 288.582031 387.121094 288.457031 386.875 288.410156 C 386.632812 288.363281 386.40625 288.410156 386.199219 288.546875 L 386.191406 288.558594 C 384.039062 290.074219 382.023438 291.757812 380.152344 293.609375 C 378.980469 294.753906 377.847656 295.925781 376.75 297.148438 C 375.453125 296.105469 374.097656 295.140625 372.679688 294.261719 C 370.449219 292.800781 368.070312 291.644531 365.542969 290.789062 C 365.339844 290.722656 365.140625 290.742188 364.953125 290.851562 C 364.773438 290.953125 364.65625 291.105469 364.597656 291.304688 C 364.542969 291.5 364.5625 291.691406 364.660156 291.875 C 366.011719 294.171875 367.621094 296.269531 369.496094 298.167969 C 370.636719 299.351562 371.839844 300.445312 373.078125 301.507812 C 372.0625 302.792969 371.117188 304.125 370.234375 305.503906 C 368.773438 307.742188 367.613281 310.125 366.75 312.65625 C 366.660156 312.980469 366.742188 313.25 367.007812 313.464844 C 367.269531 313.675781 367.550781 313.707031 367.851562 313.550781 Z M 367.839844 313.511719 "/>
</g>
</g>
</g>
<g clip-path="url(#clip12)" clip-rule="nonzero">
<g clip-path="url(#clip13)" clip-rule="nonzero">
<g clip-path="url(#clip14)" clip-rule="nonzero">
<path style=" stroke:none;fill-rule:nonzero;fill:rgb(38.819885%,44.309998%,94.509888%);fill-opacity:1;" d="M 331.832031 363.253906 C 333.191406 362.988281 334.421875 362.4375 335.523438 361.605469 C 335.816406 361.390625 336.09375 361.164062 336.359375 360.921875 C 336.617188 361.054688 336.882812 361.195312 337.148438 361.3125 C 338.332031 361.886719 339.578125 362.265625 340.878906 362.449219 C 341.039062 362.464844 341.191406 362.449219 341.339844 362.394531 C 341.601562 362.320312 341.796875 362.164062 341.925781 361.925781 C 342.054688 361.691406 342.085938 361.441406 342.011719 361.183594 C 342 361.152344 341.992188 361.125 341.980469 361.097656 C 341.546875 359.855469 340.929688 358.710938 340.125 357.664062 C 339.917969 357.378906 339.695312 357.109375 339.472656 356.839844 C 339.636719 356.53125 339.800781 356.222656 339.917969 355.941406 C 340.496094 354.753906 340.871094 353.507812 341.046875 352.203125 C 341.070312 352.046875 341.054688 351.894531 341.003906 351.746094 C 340.960938 351.617188 340.894531 351.503906 340.804688 351.398438 C 340.714844 351.296875 340.609375 351.214844 340.488281 351.15625 C 340.363281 351.09375 340.234375 351.058594 340.101562 351.050781 C 339.964844 351.042969 339.832031 351.058594 339.703125 351.101562 C 338.460938 351.542969 337.320312 352.164062 336.277344 352.96875 C 336.035156 353.136719 335.804688 353.328125 335.578125 353.511719 C 335.269531 353.328125 334.953125 353.160156 334.625 353.011719 C 333.375 352.421875 332.058594 352.132812 330.679688 352.140625 L 330.527344 352.15625 C 330.28125 352.214844 330.085938 352.347656 329.945312 352.554688 C 329.800781 352.761719 329.746094 352.992188 329.78125 353.242188 C 330.042969 354.597656 330.589844 355.828125 331.425781 356.933594 C 331.605469 357.179688 331.789062 357.417969 331.984375 357.640625 C 331.816406 357.890625 331.679688 358.160156 331.578125 358.445312 C 330.980469 359.695312 330.6875 361.011719 330.707031 362.394531 C 330.707031 362.445312 330.710938 362.496094 330.722656 362.546875 C 330.785156 362.789062 330.925781 362.980469 331.140625 363.113281 C 331.351562 363.25 331.582031 363.296875 331.832031 363.253906 Z M 331.832031 363.253906 "/>
</g>
</g>
</g>
<g clip-path="url(#clip15)" clip-rule="nonzero">
<g clip-path="url(#clip16)" clip-rule="nonzero">
<g clip-path="url(#clip17)" clip-rule="nonzero">
<path style=" stroke:none;fill-rule:nonzero;fill:rgb(38.819885%,44.309998%,94.509888%);fill-opacity:1;" d="M 437.796875 404.214844 C 439.039062 403.777344 440.183594 403.160156 441.230469 402.355469 C 441.460938 402.179688 441.703125 401.992188 441.917969 401.804688 C 442.226562 401.996094 442.550781 402.164062 442.878906 402.3125 C 444.125 402.910156 445.4375 403.195312 446.820312 403.175781 L 446.972656 403.160156 C 447.214844 403.101562 447.410156 402.96875 447.554688 402.761719 C 447.695312 402.554688 447.75 402.324219 447.71875 402.074219 C 447.449219 400.722656 446.90625 399.496094 446.078125 398.390625 C 445.902344 398.144531 445.703125 397.90625 445.507812 397.683594 C 446.363281 396.210938 446.792969 394.625 446.792969 392.921875 L 446.777344 392.785156 C 446.722656 392.539062 446.59375 392.34375 446.386719 392.199219 C 446.179688 392.054688 445.953125 392 445.703125 392.03125 C 444.34375 392.296875 443.109375 392.84375 442 393.675781 C 441.714844 393.890625 441.4375 394.121094 441.175781 394.363281 C 440.910156 394.222656 440.648438 394.097656 440.375 393.964844 C 439.191406 393.394531 437.949219 393.019531 436.648438 392.84375 C 436.382812 392.789062 436.136719 392.832031 435.910156 392.980469 C 435.683594 393.125 435.542969 393.332031 435.484375 393.597656 C 435.441406 393.800781 435.460938 394 435.546875 394.195312 C 435.984375 395.429688 436.601562 396.570312 437.398438 397.613281 C 437.617188 397.90625 437.832031 398.179688 438.0625 398.445312 C 437.890625 398.746094 437.734375 399.0625 437.609375 399.335938 C 437.03125 400.523438 436.65625 401.769531 436.476562 403.074219 C 436.457031 403.230469 436.472656 403.382812 436.523438 403.53125 C 436.5625 403.660156 436.625 403.777344 436.710938 403.882812 C 436.796875 403.984375 436.898438 404.070312 437.019531 404.132812 C 437.136719 404.199219 437.265625 404.238281 437.398438 404.25 C 437.535156 404.265625 437.664062 404.253906 437.796875 404.214844 Z M 437.796875 404.214844 "/>
</g>
</g>
</g>
<g clip-path="url(#clip18)" clip-rule="nonzero">
<g clip-path="url(#clip19)" clip-rule="nonzero">
<g clip-path="url(#clip20)" clip-rule="nonzero">
<path style=" stroke:none;fill-rule:nonzero;fill:rgb(38.819885%,44.309998%,94.509888%);fill-opacity:1;" d="M 452.226562 285.535156 C 452.515625 285.324219 452.792969 285.097656 453.0625 284.855469 C 453.316406 284.988281 453.589844 285.121094 453.851562 285.246094 C 455.035156 285.824219 456.28125 286.199219 457.589844 286.375 C 457.742188 286.394531 457.894531 286.378906 458.042969 286.328125 C 458.171875 286.285156 458.289062 286.21875 458.390625 286.128906 C 458.492188 286.039062 458.574219 285.933594 458.636719 285.8125 C 458.695312 285.6875 458.730469 285.558594 458.742188 285.425781 C 458.75 285.289062 458.734375 285.15625 458.691406 285.027344 C 458.25 283.789062 457.628906 282.644531 456.828125 281.601562 C 456.617188 281.316406 456.398438 281.046875 456.175781 280.777344 C 456.339844 280.46875 456.503906 280.160156 456.621094 279.878906 C 457.195312 278.691406 457.574219 277.449219 457.757812 276.144531 C 457.777344 275.988281 457.757812 275.832031 457.707031 275.683594 C 457.660156 275.554688 457.59375 275.441406 457.507812 275.335938 C 457.417969 275.234375 457.3125 275.152344 457.1875 275.09375 C 457.066406 275.03125 456.9375 274.996094 456.800781 274.988281 C 456.667969 274.976562 456.535156 274.996094 456.40625 275.039062 C 455.164062 275.480469 454.023438 276.101562 452.976562 276.902344 C 452.738281 277.074219 452.507812 277.265625 452.28125 277.449219 C 451.976562 277.257812 451.65625 277.09375 451.328125 276.945312 C 450.078125 276.347656 448.765625 276.058594 447.378906 276.078125 L 447.238281 276.097656 C 446.988281 276.140625 446.789062 276.265625 446.640625 276.472656 C 446.492188 276.679688 446.4375 276.90625 446.480469 277.15625 L 446.484375 277.175781 C 446.75 278.535156 447.296875 279.765625 448.128906 280.867188 C 448.304688 281.113281 448.496094 281.34375 448.6875 281.578125 C 448.515625 281.828125 448.382812 282.097656 448.28125 282.382812 C 447.683594 283.628906 447.390625 284.945312 447.40625 286.332031 L 447.429688 286.476562 C 447.484375 286.71875 447.617188 286.914062 447.824219 287.058594 C 448.027344 287.203125 448.257812 287.257812 448.507812 287.226562 C 449.878906 286.957031 451.117188 286.394531 452.226562 285.535156 Z M 452.226562 285.535156 "/>
</g>
</g>
</g>
<g clip-path="url(#clip21)" clip-rule="nonzero">
<g clip-path="url(#clip22)" clip-rule="nonzero">
<g clip-path="url(#clip23)" clip-rule="nonzero">
<path style=" stroke:none;fill-rule:nonzero;fill:rgb(38.819885%,44.309998%,94.509888%);fill-opacity:1;" d="M 286.597656 272.441406 C 286.890625 272.226562 287.167969 271.996094 287.4375 271.75 C 287.683594 271.914062 287.945312 272.046875 288.222656 272.152344 C 289.40625 272.726562 290.652344 273.101562 291.957031 273.277344 C 292.113281 273.300781 292.265625 273.285156 292.414062 273.230469 C 292.542969 273.1875 292.65625 273.121094 292.761719 273.03125 C 292.863281 272.941406 292.945312 272.835938 293.007812 272.714844 C 293.066406 272.59375 293.101562 272.464844 293.109375 272.328125 C 293.121094 272.191406 293.105469 272.058594 293.058594 271.929688 C 292.625 270.6875 292.007812 269.542969 291.203125 268.496094 C 290.988281 268.21875 290.773438 267.941406 290.546875 267.679688 C 290.707031 267.371094 290.871094 267.0625 291.027344 266.734375 C 291.597656 265.550781 291.976562 264.3125 292.160156 263.011719 C 292.175781 262.851562 292.160156 262.695312 292.113281 262.542969 C 292.066406 262.414062 292 262.300781 291.910156 262.195312 C 291.816406 262.09375 291.710938 262.015625 291.589844 261.953125 C 291.464844 261.894531 291.335938 261.859375 291.203125 261.851562 C 291.066406 261.84375 290.933594 261.859375 290.804688 261.90625 C 289.566406 262.34375 288.425781 262.964844 287.382812 263.761719 C 287.136719 263.941406 286.910156 264.125 286.679688 264.3125 C 286.375 264.128906 286.058594 263.957031 285.730469 263.804688 C 284.480469 263.222656 283.167969 262.941406 281.789062 262.964844 L 281.648438 262.976562 C 281.40625 263.027344 281.214844 263.152344 281.074219 263.355469 C 280.933594 263.558594 280.882812 263.78125 280.921875 264.023438 C 281.183594 265.382812 281.730469 266.617188 282.5625 267.722656 C 282.738281 267.96875 282.929688 268.199219 283.125 268.425781 C 282.976562 268.683594 282.84375 268.953125 282.714844 269.238281 C 282.113281 270.484375 281.824219 271.796875 281.847656 273.179688 L 281.863281 273.332031 C 281.917969 273.574219 282.050781 273.769531 282.257812 273.914062 C 282.464844 274.054688 282.695312 274.109375 282.945312 274.074219 C 284.289062 273.816406 285.507812 273.269531 286.597656 272.441406 Z M 286.597656 272.441406 "/>
</g>
</g>
</g>
<g clip-path="url(#clip24)" clip-rule="nonzero">
<g clip-path="url(#clip25)" clip-rule="nonzero">
<g clip-path="url(#clip26)" clip-rule="nonzero">
<path style=" stroke:none;fill-rule:nonzero;fill:rgb(38.819885%,44.309998%,94.509888%);fill-opacity:1;" d="M 406.339844 352.433594 C 406.015625 352.542969 405.699219 352.679688 405.394531 352.835938 L 405.347656 352.796875 C 404.371094 352.511719 403.386719 352.496094 402.402344 352.757812 C 402.152344 352.824219 401.941406 352.957031 401.777344 353.160156 C 401.613281 353.359375 401.523438 353.589844 401.511719 353.851562 C 402.085938 355.644531 402.273438 357.480469 402.066406 359.355469 C 402.132812 359.613281 402.265625 359.820312 402.46875 359.988281 C 402.671875 360.152344 402.902344 360.242188 403.167969 360.253906 C 404.179688 360.304688 405.136719 360.089844 406.035156 359.613281 L 406.074219 359.566406 C 406.402344 359.660156 406.738281 359.726562 407.082031 359.769531 C 407.566406 359.84375 408.054688 359.855469 408.542969 359.800781 C 408.707031 359.785156 408.859375 359.734375 409 359.65625 C 409.144531 359.578125 409.265625 359.476562 409.371094 359.351562 C 409.472656 359.226562 409.546875 359.082031 409.597656 358.929688 C 409.644531 358.773438 409.660156 358.613281 409.644531 358.453125 C 409.597656 357.960938 409.488281 357.484375 409.320312 357.023438 C 409.191406 356.625 409.023438 356.242188 408.816406 355.878906 C 408.945312 355.476562 409.035156 355.066406 409.085938 354.648438 C 409.152344 354.160156 409.160156 353.671875 409.113281 353.179688 C 409.09375 353.019531 409.046875 352.867188 408.96875 352.722656 C 408.890625 352.582031 408.789062 352.457031 408.660156 352.355469 C 408.535156 352.253906 408.394531 352.179688 408.238281 352.128906 C 408.085938 352.082031 407.925781 352.066406 407.765625 352.078125 C 407.273438 352.136719 406.800781 352.253906 406.339844 352.433594 Z M 406.339844 352.433594 "/>
</g>
</g>
</g>
<g clip-path="url(#clip27)" clip-rule="nonzero">
<g clip-path="url(#clip28)" clip-rule="nonzero">
<g clip-path="url(#clip29)" clip-rule="nonzero">
<path style=" stroke:none;fill-rule:nonzero;fill:rgb(38.819885%,44.309998%,94.509888%);fill-opacity:1;" d="M 485.230469 401.613281 C 485.554688 401.507812 485.867188 401.371094 486.167969 401.207031 C 486.1875 401.222656 486.203125 401.234375 486.222656 401.25 C 487.195312 401.542969 488.171875 401.558594 489.15625 401.289062 C 489.410156 401.230469 489.621094 401.09375 489.789062 400.890625 C 489.953125 400.6875 490.042969 400.453125 490.050781 400.191406 C 490.113281 399.234375 489.925781 398.328125 489.492188 397.472656 C 489.742188 396.546875 489.746094 395.625 489.496094 394.699219 C 489.433594 394.441406 489.300781 394.230469 489.097656 394.066406 C 488.894531 393.898438 488.660156 393.8125 488.398438 393.800781 C 487.382812 393.746094 486.425781 393.960938 485.527344 394.441406 L 485.492188 394.488281 C 485.164062 394.386719 484.828125 394.316406 484.488281 394.277344 C 484.003906 394.207031 483.515625 394.199219 483.027344 394.246094 C 482.863281 394.265625 482.710938 394.3125 482.566406 394.390625 C 482.421875 394.46875 482.300781 394.570312 482.195312 394.699219 C 482.09375 394.824219 482.015625 394.96875 481.96875 395.125 C 481.921875 395.28125 481.90625 395.441406 481.917969 395.605469 C 481.96875 396.09375 482.078125 396.566406 482.242188 397.03125 C 482.371094 397.429688 482.539062 397.8125 482.75 398.175781 C 482.621094 398.574219 482.53125 398.980469 482.484375 399.398438 C 482.414062 399.886719 482.40625 400.378906 482.457031 400.867188 C 482.472656 401.03125 482.519531 401.183594 482.597656 401.328125 C 482.675781 401.472656 482.777344 401.59375 482.902344 401.699219 C 483.03125 401.800781 483.171875 401.875 483.328125 401.921875 C 483.484375 401.96875 483.644531 401.984375 483.804688 401.96875 C 484.296875 401.914062 484.773438 401.796875 485.230469 401.613281 Z M 485.230469 401.613281 "/>
</g>
</g>
</g>
<g clip-path="url(#clip30)" clip-rule="nonzero">
<g clip-path="url(#clip31)" clip-rule="nonzero">
<g clip-path="url(#clip32)" clip-rule="nonzero">
<path style=" stroke:none;fill-rule:nonzero;fill:rgb(38.819885%,44.309998%,94.509888%);fill-opacity:1;" d="M 548.386719 406.320312 L 548.425781 406.273438 C 548.753906 406.375 549.089844 406.441406 549.433594 406.476562 C 549.917969 406.550781 550.40625 406.5625 550.894531 406.507812 C 551.058594 406.492188 551.210938 406.445312 551.355469 406.367188 C 551.496094 406.289062 551.621094 406.1875 551.722656 406.0625 C 551.828125 405.933594 551.902344 405.792969 551.949219 405.636719 C 551.996094 405.480469 552.011719 405.320312 551.996094 405.160156 C 551.949219 404.667969 551.84375 404.191406 551.671875 403.730469 C 551.542969 403.332031 551.375 402.949219 551.167969 402.585938 C 551.300781 402.1875 551.390625 401.777344 551.4375 401.355469 C 551.503906 400.871094 551.515625 400.382812 551.472656 399.890625 C 551.453125 399.730469 551.402344 399.578125 551.324219 399.4375 C 551.246094 399.292969 551.144531 399.171875 551.019531 399.070312 C 550.894531 398.964844 550.753906 398.890625 550.597656 398.84375 C 550.441406 398.796875 550.285156 398.777344 550.121094 398.792969 C 549.632812 398.839844 549.152344 398.949219 548.6875 399.113281 C 548.363281 399.222656 548.050781 399.355469 547.75 399.519531 C 547.730469 399.511719 547.714844 399.5 547.703125 399.484375 C 546.726562 399.191406 545.742188 399.175781 544.757812 399.445312 C 544.503906 399.503906 544.292969 399.636719 544.128906 399.839844 C 543.964844 400.042969 543.875 400.273438 543.867188 400.535156 C 543.808594 401.496094 543.992188 402.402344 544.421875 403.261719 C 544.171875 404.1875 544.171875 405.109375 544.414062 406.035156 C 544.480469 406.292969 544.613281 406.5 544.816406 406.667969 C 545.019531 406.832031 545.25 406.921875 545.515625 406.933594 C 546.53125 407.003906 547.488281 406.796875 548.386719 406.320312 Z M 548.386719 406.320312 "/>
</g>
</g>
</g>
<g clip-path="url(#clip33)" clip-rule="nonzero">
<g clip-path="url(#clip34)" clip-rule="nonzero">
<g clip-path="url(#clip35)" clip-rule="nonzero">
<path style=" stroke:none;fill-rule:nonzero;fill:rgb(38.819885%,44.309998%,94.509888%);fill-opacity:1;" d="M 467.71875 322.667969 L 467.757812 322.621094 C 468.085938 322.714844 468.421875 322.785156 468.765625 322.824219 C 469.25 322.894531 469.738281 322.90625 470.226562 322.855469 C 470.390625 322.839844 470.539062 322.789062 470.683594 322.710938 C 470.824219 322.632812 470.949219 322.53125 471.050781 322.40625 C 471.152344 322.277344 471.230469 322.136719 471.277344 321.984375 C 471.324219 321.828125 471.34375 321.667969 471.328125 321.507812 C 471.277344 321.015625 471.167969 320.539062 471.011719 320.074219 C 470.875 319.671875 470.703125 319.289062 470.496094 318.921875 C 470.628906 318.523438 470.71875 318.117188 470.761719 317.699219 C 470.835938 317.210938 470.847656 316.722656 470.796875 316.234375 C 470.777344 316.074219 470.730469 315.921875 470.652344 315.777344 C 470.574219 315.632812 470.472656 315.511719 470.347656 315.410156 C 470.222656 315.304688 470.078125 315.230469 469.925781 315.183594 C 469.769531 315.136719 469.609375 315.121094 469.449219 315.132812 C 468.613281 315.234375 467.820312 315.480469 467.074219 315.863281 L 467.027344 315.828125 C 466.054688 315.535156 465.074219 315.519531 464.089844 315.777344 C 463.835938 315.84375 463.625 315.976562 463.457031 316.179688 C 463.292969 316.382812 463.203125 316.617188 463.191406 316.878906 C 463.136719 317.835938 463.324219 318.746094 463.757812 319.601562 C 463.503906 320.527344 463.503906 321.453125 463.753906 322.378906 C 463.816406 322.632812 463.945312 322.839844 464.148438 323.007812 C 464.351562 323.171875 464.585938 323.257812 464.84375 323.265625 C 465.859375 323.335938 466.816406 323.136719 467.71875 322.667969 Z M 467.71875 322.667969 "/>
</g>
</g>
</g>
<g clip-path="url(#clip36)" clip-rule="nonzero">
<g clip-path="url(#clip37)" clip-rule="nonzero">
<g clip-path="url(#clip38)" clip-rule="nonzero">
<path style=" stroke:none;fill-rule:nonzero;fill:rgb(38.819885%,44.309998%,94.509888%);fill-opacity:1;" d="M 394.878906 225.179688 L 394.917969 225.136719 C 395.25 225.230469 395.589844 225.300781 395.933594 225.34375 C 396.417969 225.414062 396.90625 225.425781 397.394531 225.375 C 397.558594 225.355469 397.710938 225.308594 397.851562 225.230469 C 397.992188 225.152344 398.117188 225.050781 398.21875 224.925781 C 398.320312 224.796875 398.398438 224.65625 398.445312 224.503906 C 398.492188 224.347656 398.511719 224.1875 398.496094 224.027344 C 398.445312 223.539062 398.339844 223.0625 398.171875 222.597656 C 398.039062 222.199219 397.867188 221.816406 397.660156 221.449219 C 397.9375 220.570312 398.039062 219.671875 397.964844 218.753906 C 397.945312 218.59375 397.898438 218.441406 397.820312 218.296875 C 397.742188 218.15625 397.640625 218.035156 397.511719 217.929688 C 397.386719 217.828125 397.246094 217.753906 397.089844 217.703125 C 396.9375 217.65625 396.777344 217.640625 396.617188 217.652344 C 396.125 217.703125 395.648438 217.8125 395.179688 217.972656 C 394.855469 218.082031 394.542969 218.21875 394.242188 218.382812 L 394.195312 218.347656 C 393.222656 218.054688 392.242188 218.039062 391.257812 218.296875 C 391.003906 218.363281 390.792969 218.496094 390.625 218.699219 C 390.460938 218.902344 390.371094 219.136719 390.359375 219.398438 C 390.929688 221.195312 391.117188 223.027344 390.917969 224.902344 C 390.980469 225.160156 391.113281 225.371094 391.316406 225.535156 C 391.519531 225.703125 391.753906 225.789062 392.015625 225.800781 C 393.027344 225.863281 393.984375 225.65625 394.878906 225.179688 Z M 394.878906 225.179688 "/>
</g>
</g>
</g>
</g>
</svg>
