<?xml version="1.0" encoding="UTF-8"?>
<svg xmlns="http://www.w3.org/2000/svg" xmlns:xlink="http://www.w3.org/1999/xlink" width="960pt" height="540.000001pt" viewBox="0 0 960 540.000001" version="1.2">
<defs>
<clipPath id="clip1">
  <path d="M 0.886719 0 L 959.113281 0 L 959.113281 539 L 0.886719 539 Z M 0.886719 0 "/>
</clipPath>
<clipPath id="clip2">
  <path d="M 308.203125 15.894531 L 631.605469 15.894531 L 631.605469 48 L 308.203125 48 Z M 308.203125 15.894531 "/>
</clipPath>
<clipPath id="clip3">
  <path d="M 308.203125 470 L 631.605469 470 L 631.605469 502.492188 L 308.203125 502.492188 Z M 308.203125 470 "/>
</clipPath>
</defs>
<g id="surface1">
<g clip-path="url(#clip1)" clip-rule="nonzero">
<path style=" stroke:none;fill-rule:nonzero;fill:rgb(100%,100%,100%);fill-opacity:1;" d="M 0.886719 0 L 959.113281 0 L 959.113281 539 L 0.886719 539 Z M 0.886719 0 "/>
<path style=" stroke:none;fill-rule:nonzero;fill:rgb(100%,100%,100%);fill-opacity:1;" d="M 0.886719 0 L 959.113281 0 L 959.113281 539 L 0.886719 539 Z M 0.886719 0 "/>
</g>
<g clip-path="url(#clip2)" clip-rule="nonzero">
<path style=" stroke:none;fill-rule:nonzero;fill:rgb(38.819885%,44.309998%,94.509888%);fill-opacity:1;" d="M 631.410156 47.613281 L 308.230469 47.613281 L 308.230469 15.882812 L 631.410156 15.882812 L 631.410156 47.613281 "/>
</g>
<g clip-path="url(#clip3)" clip-rule="nonzero">
<path style=" stroke:none;fill-rule:nonzero;fill:rgb(38.819885%,44.309998%,94.509888%);fill-opacity:1;" d="M 631.410156 502.464844 L 308.230469 502.464844 L 308.230469 470.734375 L 631.410156 470.734375 L 631.410156 502.464844 "/>
</g>
<path style=" stroke:none;fill-rule:nonzero;fill:rgb(38.819885%,44.309998%,94.509888%);fill-opacity:1;" d="M 599.683594 481.957031 L 586.878906 481.933594 C 586.878906 481.386719 586.96875 427.066406 586.878906 409.070312 C 586.742188 381.941406 586.597656 351.207031 534.6875 314.1875 C 509.894531 296.515625 502.738281 285.308594 502.738281 264.207031 C 502.738281 240.847656 510.796875 227.214844 534.6875 210.179688 C 586.597656 173.171875 586.742188 142.429688 586.878906 115.300781 C 586.96875 97.304688 586.878906 42.984375 586.878906 42.4375 L 599.683594 42.414062 C 599.683594 42.957031 599.769531 97.324219 599.683594 115.371094 C 599.542969 144.074219 599.367188 179.792969 542.117188 220.613281 C 519.515625 236.730469 515.539062 247.511719 515.539062 264.207031 C 515.539062 279.914062 519.199219 287.414062 542.117188 303.757812 C 599.367188 344.570312 599.542969 380.296875 599.683594 409 C 599.769531 427.039062 599.683594 481.414062 599.683594 481.957031 "/>
<path style=" stroke:none;fill-rule:nonzero;fill:rgb(38.819885%,44.309998%,94.509888%);fill-opacity:1;" d="M 339.953125 481.957031 C 339.953125 481.414062 339.871094 427.039062 339.953125 409 C 340.101562 380.296875 340.277344 344.570312 397.527344 303.757812 C 420.128906 287.640625 424.105469 276.863281 424.105469 260.164062 C 424.105469 244.457031 420.445312 236.949219 397.527344 220.613281 C 340.277344 179.792969 340.101562 144.074219 339.953125 115.371094 C 339.871094 97.324219 339.953125 42.957031 339.953125 42.414062 L 352.761719 42.4375 C 352.761719 42.984375 352.675781 97.304688 352.761719 115.300781 C 352.902344 142.429688 353.046875 173.171875 404.957031 210.179688 C 429.742188 227.855469 436.914062 239.0625 436.914062 260.164062 C 436.914062 283.523438 428.847656 297.15625 404.957031 314.1875 C 353.046875 351.207031 352.902344 381.941406 352.761719 409.070312 C 352.675781 427.066406 352.761719 481.386719 352.761719 481.933594 L 339.953125 481.957031 "/>
<path style=" stroke:none;fill-rule:nonzero;fill:rgb(38.819885%,44.309998%,94.509888%);fill-opacity:1;" d="M 421.273438 210.179688 C 439.472656 227.855469 450.726562 239.0625 450.726562 260.164062 C 450.726562 283.523438 438.808594 297.15625 421.273438 314.1875 C 383.144531 351.207031 363.839844 364.882812 363.839844 409.070312 C 363.839844 422.011719 363.8125 453.726562 363.824219 470.734375 L 575.425781 470.734375 C 575.4375 453.726562 575.457031 422.011719 575.414062 409.070312 C 575.3125 381.941406 562.769531 352.679688 516.550781 314.1875 C 497.046875 297.957031 487.765625 285.308594 487.765625 264.207031 C 487.765625 240.847656 499 227.214844 516.550781 210.179688 C 531.746094 195.417969 551.761719 181.660156 557.28125 168.726562 L 376.171875 168.726562 C 381.691406 181.660156 406.0625 195.417969 421.273438 210.179688 "/>
</g>
</svg>
