<?xml version="1.0" standalone="no"?>
<!DOCTYPE svg PUBLIC "-//W3C//DTD SVG 20010904//EN"
 "http://www.w3.org/TR/2001/REC-SVG-20010904/DTD/svg10.dtd">
<svg version="1.0" xmlns="http://www.w3.org/2000/svg"
 width="3840.000000pt" height="2160.000000pt" viewBox="0 0 3840.000000 2160.000000"
 preserveAspectRatio="xMidYMid meet">

<g transform="translate(0.000000,2160.000000) scale(0.100000,-0.100000)"
fill="#000000" stroke="none">
<path d="M22290 18563 c0 -230 2 -262 19 -298 40 -87 115 -128 232 -128 89 -1
153 25 198 79 46 57 51 91 51 358 l0 246 -35 0 -35 0 0 -257 c0 -241 -1 -260
-20 -291 -58 -95 -255 -95 -324 1 -20 27 -21 44 -24 288 l-3 259 -30 0 -29 0
0 -257z"/>
<path d="M32690 18481 l0 -341 103 0 c60 0 128 6 162 15 242 63 333 347 174
545 -22 27 -58 53 -107 78 -72 35 -79 36 -203 40 l-129 4 0 -341z m284 249
c61 -23 127 -87 153 -148 20 -46 22 -144 4 -196 -17 -49 -82 -121 -136 -149
-31 -16 -63 -22 -142 -25 l-103 -4 0 271 0 271 85 0 c60 0 100 -6 139 -20z"/>
<path d="M23096 18575 c-21 -7 -51 -26 -67 -41 l-29 -28 0 37 c0 36 -1 37 -35
37 l-35 0 0 -345 0 -345 35 0 35 0 0 161 0 161 35 -31 c48 -42 106 -56 171
-42 101 23 164 107 164 221 0 110 -60 195 -156 219 -54 14 -70 13 -118 -4z
m124 -70 c16 -8 42 -32 57 -52 36 -48 40 -135 7 -180 -51 -69 -128 -91 -201
-57 -111 53 -112 233 -1 287 41 21 100 22 138 2z"/>
<path d="M33445 18571 c-50 -22 -103 -75 -122 -120 -21 -50 -18 -142 6 -188
41 -81 112 -123 207 -123 165 0 271 166 200 315 -28 60 -56 87 -116 114 -56
25 -122 26 -175 2z m161 -67 c50 -24 77 -68 82 -133 4 -61 -17 -105 -69 -144
-68 -49 -182 -20 -227 58 -77 134 72 286 214 219z"/>
<path d="M34101 18422 c-35 -92 -67 -170 -70 -174 -4 -4 -36 69 -71 162 l-65
170 -38 0 -37 0 14 -32 c7 -18 53 -126 101 -240 48 -114 91 -206 94 -203 4 2
36 76 71 164 35 89 66 161 70 161 4 0 35 -72 70 -161 35 -88 67 -162 71 -164
3 -3 31 55 62 128 31 72 76 180 101 240 l45 107 -37 0 -37 0 -64 -165 c-35
-91 -67 -165 -70 -165 -3 0 -35 74 -70 165 -35 91 -67 167 -70 169 -3 2 -35
-71 -70 -162z"/>
<path d="M34763 18575 c-18 -8 -44 -25 -58 -39 l-25 -25 0 34 c0 33 -2 35 -35
35 l-35 0 0 -220 0 -220 35 0 35 0 0 128 c0 104 4 135 20 169 22 49 70 83 117
83 82 0 93 -26 93 -225 l0 -155 35 0 35 0 0 151 c0 85 -5 169 -11 190 -15 49
-57 88 -105 100 -51 11 -63 11 -101 -6z"/>
<path d="M28866 17878 c-14 -19 -16 -70 -16 -356 l0 -333 -42 34 c-62 50 -80
57 -142 57 -76 0 -86 -12 -86 -107 l0 -76 59 -86 c114 -168 248 -419 306 -573
l18 -48 303 0 304 0 0 33 c0 41 43 181 115 372 l55 146 0 142 c0 128 -3 147
-24 193 -27 59 -94 120 -149 136 -22 7 -52 24 -67 40 -26 26 -35 28 -103 28
-69 0 -76 2 -92 26 -22 34 -72 54 -135 54 l-50 0 0 148 c0 196 3 192 -135 192
-96 0 -105 -2 -119 -22z m194 -348 l0 -310 30 0 30 0 0 135 0 135 65 0 c53 0
66 -3 75 -19 5 -11 10 -72 10 -135 l0 -116 30 0 30 0 0 100 0 101 68 -3 67 -3
3 -132 3 -133 29 0 30 0 0 100 c0 93 1 100 20 100 27 0 100 -67 117 -107 8
-21 13 -76 13 -161 l0 -128 -53 -142 c-30 -78 -69 -191 -88 -252 l-34 -110
-250 0 -250 0 -40 97 c-51 124 -156 317 -251 461 -67 102 -74 117 -74 162 0
50 0 50 33 50 17 0 44 -8 58 -18 40 -26 119 -101 119 -112 0 -6 14 -10 30 -10
l30 0 0 380 0 380 75 0 75 0 0 -310z"/>
<path d="M8850 10042 c0 -44 4 -63 18 -75 10 -10 22 -17 27 -17 5 0 16 -6 24
-14 9 -8 28 -17 43 -21 25 -6 27 -5 34 40 9 61 -5 88 -58 113 -88 41 -88 41
-88 -26z"/>
<path d="M6660 9841 c0 -11 5 -23 10 -26 6 -4 10 5 10 19 0 14 -4 26 -10 26
-5 0 -10 -9 -10 -19z"/>
<path d="M9690 9095 c0 -62 1 -63 34 -79 58 -27 66 -23 66 37 0 47 -3 56 -27
73 -16 12 -38 23 -50 26 -22 6 -23 4 -23 -57z"/>
<path d="M9390 8247 c0 -73 16 -101 65 -113 14 -3 25 -10 25 -14 0 -5 15 -14
34 -20 19 -6 37 -16 40 -23 2 -7 5 20 5 59 1 75 -9 94 -56 108 -11 4 -27 13
-33 21 -7 8 -19 15 -28 15 -8 0 -24 7 -34 17 -17 15 -18 13 -18 -50z"/>
<path d="M9824 6839 c-5 -8 -8 -220 -6 -484 1 -258 2 -500 2 -537 0 -38 4 -68
10 -68 5 0 61 69 123 153 93 124 260 344 402 532 13 17 60 80 106 140 45 61
95 126 111 145 61 75 40 84 -252 101 -113 6 -213 13 -223 15 -10 2 -74 6 -141
10 -100 5 -125 4 -132 -7z"/>
<path d="M10480 6310 c-14 -17 -29 -36 -35 -43 -5 -7 -30 -39 -55 -72 -24 -33
-48 -64 -52 -70 -36 -45 -199 -260 -227 -300 -20 -27 -44 -59 -54 -70 -11 -11
-33 -40 -50 -65 -17 -25 -66 -91 -109 -148 l-78 -103 0 -330 c0 -181 3 -329 8
-329 4 0 15 17 24 38 58 129 84 188 119 272 22 52 46 109 54 125 8 17 23 50
33 75 20 45 57 128 92 205 10 22 28 63 40 90 12 28 28 65 36 83 8 17 21 49 30
70 9 20 22 51 29 67 7 17 23 53 35 80 12 28 27 64 35 80 8 17 23 53 35 80 12
28 27 64 35 80 7 17 23 53 35 80 12 28 29 64 37 81 23 45 12 60 -17 24z"/>
</g>
</svg>
