<?xml version="1.0" encoding="UTF-8"?>
<svg xmlns="http://www.w3.org/2000/svg" xmlns:xlink="http://www.w3.org/1999/xlink" width="960pt" height="540.000001pt" viewBox="0 0 960 540.000001" version="1.2">
<defs>
<clipPath id="clip1">
  <path d="M 0.886719 0 L 959.113281 0 L 959.113281 539 L 0.886719 539 Z M 0.886719 0 "/>
</clipPath>
<clipPath id="clip2">
  <path d="M 285.820312 30.917969 L 787.390625 30.917969 L 787.390625 406.71875 L 285.820312 406.71875 Z M 285.820312 30.917969 "/>
</clipPath>
<clipPath id="clip3">
  <path d="M 286 334.773438 L 332 334.773438 L 332 398 L 286 398 Z M 286 334.773438 "/>
</clipPath>
<clipPath id="clip4">
  <path d="M 291.136719 350 L 464.40625 350 L 464.40625 522.65625 L 291.136719 522.65625 Z M 291.136719 350 "/>
</clipPath>
</defs>
<g id="surface1">
<g clip-path="url(#clip1)" clip-rule="nonzero">
<path style=" stroke:none;fill-rule:nonzero;fill:rgb(100%,100%,100%);fill-opacity:1;" d="M 0.886719 0 L 959.113281 0 L 959.113281 539.003906 L 0.886719 539.003906 Z M 0.886719 0 "/>
<path style=" stroke:none;fill-rule:nonzero;fill:rgb(100%,100%,100%);fill-opacity:1;" d="M 0.886719 0 L 959.113281 0 L 959.113281 539.003906 L 0.886719 539.003906 Z M 0.886719 0 "/>
</g>
<path style=" stroke:none;fill-rule:nonzero;fill:rgb(100%,100%,100%);fill-opacity:1;" d="M 505.257812 83.109375 L 505.257812 396.28125 L 463.460938 396.28125 L 463.460938 83.109375 L 505.257812 83.109375 "/>
<path style=" stroke:none;fill-rule:nonzero;fill:rgb(100%,100%,100%);fill-opacity:1;" d="M 776.941406 62.234375 L 776.941406 208.378906 C 776.941406 219.878906 767.511719 229.257812 756.042969 229.257812 L 651.546875 229.257812 L 651.546875 187.5 L 714.246094 187.5 C 725.714844 187.5 735.144531 178.121094 735.144531 166.625 L 735.144531 103.988281 C 735.144531 92.488281 725.714844 83.109375 714.246094 83.109375 L 358.96875 83.109375 C 347.457031 83.109375 338.070312 92.488281 338.070312 103.988281 L 338.070312 166.625 C 338.070312 178.121094 347.457031 187.5 358.96875 187.5 L 421.664062 187.5 L 421.664062 229.257812 L 317.171875 229.257812 C 305.660156 229.257812 296.273438 219.878906 296.273438 208.378906 L 296.273438 62.234375 C 296.273438 50.734375 305.660156 41.355469 317.171875 41.355469 L 756.042969 41.355469 C 767.511719 41.355469 776.941406 50.734375 776.941406 62.234375 "/>
<g clip-path="url(#clip2)" clip-rule="nonzero">
<path style=" stroke:none;fill-rule:nonzero;fill:rgb(38.819885%,44.309998%,94.509888%);fill-opacity:1;" d="M 766.492188 208.378906 C 766.492188 214.128906 761.796875 218.816406 756.042969 218.816406 L 661.996094 218.816406 L 661.996094 197.941406 L 714.246094 197.941406 C 731.550781 197.941406 745.59375 183.914062 745.59375 166.625 L 745.59375 103.988281 C 745.59375 86.699219 731.550781 72.671875 714.246094 72.671875 L 358.96875 72.671875 C 341.660156 72.671875 327.621094 86.699219 327.621094 103.988281 L 327.621094 166.625 C 327.621094 183.914062 341.660156 197.941406 358.96875 197.941406 L 411.214844 197.941406 L 411.214844 218.816406 L 317.171875 218.816406 C 311.414062 218.816406 306.722656 214.128906 306.722656 208.378906 L 306.722656 62.234375 C 306.722656 56.484375 311.414062 51.792969 317.171875 51.792969 L 756.042969 51.792969 C 761.796875 51.792969 766.492188 56.484375 766.492188 62.234375 Z M 714.246094 93.550781 C 720 93.550781 724.695312 98.238281 724.695312 103.988281 L 724.695312 166.625 C 724.695312 172.371094 720 177.0625 714.246094 177.0625 L 661.996094 177.0625 L 661.996094 93.550781 Z M 641.097656 375.402344 C 641.097656 381.152344 636.40625 385.84375 630.648438 385.84375 L 515.707031 385.84375 L 515.707031 93.550781 L 641.097656 93.550781 Z M 473.910156 385.84375 L 473.910156 93.550781 L 494.808594 93.550781 L 494.808594 385.84375 Z M 432.113281 375.402344 L 432.113281 93.550781 L 453.011719 93.550781 L 453.011719 385.84375 L 442.5625 385.84375 C 436.808594 385.84375 432.113281 381.152344 432.113281 375.402344 Z M 411.214844 177.0625 L 358.96875 177.0625 C 353.210938 177.0625 348.519531 172.371094 348.519531 166.625 L 348.519531 103.988281 C 348.519531 98.238281 353.210938 93.550781 358.96875 93.550781 L 411.214844 93.550781 Z M 756.042969 30.917969 L 317.171875 30.917969 C 299.863281 30.917969 285.820312 44.945312 285.820312 62.234375 L 285.820312 208.378906 C 285.820312 225.667969 299.863281 239.695312 317.171875 239.695312 L 411.214844 239.695312 L 411.214844 375.402344 C 411.214844 392.691406 425.253906 406.71875 442.5625 406.71875 L 630.648438 406.71875 C 647.957031 406.71875 661.996094 392.691406 661.996094 375.402344 L 661.996094 239.695312 L 756.042969 239.695312 C 773.347656 239.695312 787.390625 225.667969 787.390625 208.378906 L 787.390625 62.234375 C 787.390625 44.945312 773.347656 30.917969 756.042969 30.917969 "/>
</g>
<g clip-path="url(#clip3)" clip-rule="nonzero">
<path style=" stroke:none;fill-rule:nonzero;fill:rgb(58.039856%,61.959839%,98.81897%);fill-opacity:1;" d="M 331.0625 365.972656 C 311.597656 361.824219 311.597656 361.824219 308.613281 334.777344 C 305.636719 361.824219 305.636719 361.824219 286.175781 365.972656 C 305.636719 370.109375 305.636719 370.109375 308.613281 397.160156 C 311.597656 370.109375 311.597656 370.109375 331.0625 365.972656 "/>
</g>
<g clip-path="url(#clip4)" clip-rule="nonzero">
<path style=" stroke:none;fill-rule:nonzero;fill:rgb(38.819885%,44.309998%,94.509888%);fill-opacity:1;" d="M 463.921875 435.859375 C 386.089844 431.554688 383.007812 428.472656 378.707031 350.617188 C 378.671875 349.964844 377.714844 349.964844 377.675781 350.617188 C 373.34375 428.472656 370.261719 431.554688 292.429688 435.859375 C 291.777344 435.894531 291.777344 436.851562 292.429688 436.890625 C 370.261719 441.226562 373.34375 444.308594 377.675781 522.167969 C 377.714844 522.820312 378.671875 522.816406 378.707031 522.167969 C 383.007812 444.308594 386.089844 441.226562 463.921875 436.890625 C 464.570312 436.851562 464.570312 435.894531 463.921875 435.859375 "/>
</g>
</g>
</svg>
