<?xml version="1.0" encoding="UTF-8"?>
<svg xmlns="http://www.w3.org/2000/svg" xmlns:xlink="http://www.w3.org/1999/xlink" width="960pt" height="540.000001pt" viewBox="0 0 960 540.000001" version="1.2">
<defs>
<clipPath id="clip1">
  <path d="M 0.886719 0 L 959.113281 0 L 959.113281 539 L 0.886719 539 Z M 0.886719 0 "/>
</clipPath>
<clipPath id="clip2">
  <path d="M 139.535156 20.300781 L 777.355469 20.300781 L 777.355469 518.878906 L 139.535156 518.878906 Z M 139.535156 20.300781 "/>
</clipPath>
</defs>
<g id="surface1">
<g clip-path="url(#clip1)" clip-rule="nonzero">
<path style=" stroke:none;fill-rule:nonzero;fill:rgb(100%,100%,100%);fill-opacity:1;" d="M 0.886719 0 L 959.113281 0 L 959.113281 2178.464844 L 0.886719 2178.464844 Z M 0.886719 0 "/>
<path style=" stroke:none;fill-rule:nonzero;fill:rgb(100%,100%,100%);fill-opacity:1;" d="M 0.886719 0 L 959.113281 0 L 959.113281 539 L 0.886719 539 Z M 0.886719 0 "/>
<path style=" stroke:none;fill-rule:nonzero;fill:rgb(100%,100%,100%);fill-opacity:1;" d="M 0.886719 0 L 959.113281 0 L 959.113281 539 L 0.886719 539 Z M 0.886719 0 "/>
</g>
<g clip-path="url(#clip2)" clip-rule="nonzero">
<path style=" stroke:none;fill-rule:nonzero;fill:rgb(38.819885%,44.309998%,94.509888%);fill-opacity:1;" d="M 708.585938 20.300781 L 208.304688 20.300781 C 170.433594 20.300781 139.539062 51.210938 139.539062 89.105469 L 139.539062 430.128906 C 139.539062 464.035156 164.453125 491.953125 196.34375 497.9375 L 196.34375 498.933594 C 196.34375 509.902344 205.3125 518.878906 216.277344 518.878906 L 235.210938 518.878906 C 246.171875 518.878906 255.144531 509.902344 255.144531 498.933594 L 664.738281 498.933594 C 664.738281 509.902344 673.707031 518.878906 684.667969 518.878906 L 703.601562 518.878906 C 714.566406 518.878906 723.535156 509.902344 723.535156 498.933594 L 723.535156 496.941406 C 754.429688 489.960938 777.351562 462.039062 777.351562 430.128906 L 777.351562 89.105469 C 777.351562 51.210938 746.457031 20.300781 708.585938 20.300781 Z M 757.417969 430.128906 C 757.417969 457.054688 735.492188 478.992188 708.585938 478.992188 L 208.304688 478.992188 C 181.394531 478.992188 159.472656 457.054688 159.472656 430.128906 L 159.472656 89.105469 C 159.472656 62.179688 181.394531 40.242188 208.304688 40.242188 L 708.585938 40.242188 C 735.492188 40.242188 757.417969 62.179688 757.417969 89.105469 Z M 757.417969 430.128906 "/>
</g>
<path style=" stroke:none;fill-rule:nonzero;fill:rgb(38.819885%,44.309998%,94.509888%);fill-opacity:1;" d="M 316.929688 209.757812 C 315.933594 209.757812 315.933594 209.757812 316.929688 209.757812 C 303.976562 222.722656 296.003906 239.675781 296.003906 259.617188 C 296.003906 278.5625 303.976562 296.511719 315.933594 308.476562 C 328.890625 321.441406 345.832031 328.421875 364.765625 328.421875 C 383.703125 328.421875 401.640625 320.445312 413.597656 308.476562 C 425.558594 296.511719 413.597656 308.476562 413.597656 308.476562 C 426.554688 295.515625 433.53125 278.5625 433.53125 259.617188 C 433.53125 220.726562 402.636719 189.816406 363.769531 189.816406 C 346.828125 188.820312 328.890625 196.796875 316.929688 209.757812 Z M 414.59375 249.644531 L 394.664062 249.644531 C 394.664062 248.648438 393.667969 246.65625 393.667969 245.65625 L 408.617188 231.695312 Z M 406.621094 286.539062 L 392.671875 272.582031 C 392.671875 271.582031 393.667969 271.582031 393.667969 270.585938 L 413.597656 270.585938 C 412.601562 275.570312 410.609375 281.554688 406.621094 286.539062 Z M 323.90625 231.695312 L 337.859375 245.65625 C 336.863281 246.65625 336.863281 248.648438 336.863281 249.644531 L 316.929688 249.644531 C 317.925781 242.664062 320.917969 236.683594 323.90625 231.695312 Z M 355.796875 258.621094 C 355.796875 252.636719 360.78125 248.648438 365.761719 248.648438 C 371.742188 248.648438 375.730469 253.632812 375.730469 258.621094 C 375.730469 264.601562 370.746094 268.589844 365.761719 268.589844 C 359.785156 268.589844 355.796875 264.601562 355.796875 258.621094 Z M 358.785156 229.703125 C 356.792969 229.703125 354.800781 230.699219 352.808594 231.695312 L 338.855469 217.738281 C 344.835938 213.75 351.8125 210.757812 359.785156 209.757812 L 359.785156 229.703125 Z M 316.929688 269.589844 L 336.863281 269.589844 C 336.863281 270.585938 337.859375 270.585938 337.859375 271.582031 L 323.90625 285.542969 C 320.917969 281.554688 317.925781 275.570312 316.929688 269.589844 Z M 352.808594 285.542969 C 354.800781 286.539062 356.792969 287.539062 358.785156 287.539062 L 358.785156 307.480469 C 350.8125 306.484375 343.839844 303.492188 337.859375 299.503906 Z M 378.71875 286.539062 L 392.671875 300.5 C 388.683594 303.492188 383.703125 305.488281 378.71875 306.484375 Z M 378.71875 231.695312 L 378.71875 210.757812 C 383.703125 211.753906 388.683594 214.746094 393.667969 217.738281 Z M 378.71875 231.695312 "/>
<path style=" stroke:none;fill-rule:nonzero;fill:rgb(38.819885%,44.309998%,94.509888%);fill-opacity:1;" d="M 259.128906 169.875 C 248.167969 169.875 239.199219 178.847656 239.199219 189.816406 L 239.199219 329.417969 C 239.199219 340.386719 248.167969 349.359375 259.128906 349.359375 L 269.09375 349.359375 C 280.058594 349.359375 289.027344 340.386719 289.027344 329.417969 L 289.027344 189.816406 C 289.027344 178.847656 280.058594 169.875 269.09375 169.875 Z M 259.128906 329.417969 L 259.128906 189.816406 L 269.09375 189.816406 L 269.09375 329.417969 Z M 259.128906 329.417969 "/>
<path style=" stroke:none;fill-rule:nonzero;fill:rgb(38.819885%,44.309998%,94.509888%);fill-opacity:1;" d="M 717.554688 120.015625 L 707.589844 120.015625 L 707.589844 100.074219 C 707.589844 94.089844 703.601562 90.101562 697.625 90.101562 L 667.726562 90.101562 C 661.746094 90.101562 657.761719 94.089844 657.761719 100.074219 C 657.761719 106.054688 661.746094 110.042969 667.726562 110.042969 L 687.65625 110.042969 L 687.65625 120.015625 L 677.691406 120.015625 C 671.710938 120.015625 667.726562 124.003906 667.726562 129.988281 L 667.726562 169.875 C 667.726562 175.855469 671.710938 179.84375 677.691406 179.84375 L 687.65625 179.84375 L 687.65625 329.417969 L 677.691406 329.417969 C 671.710938 329.417969 667.726562 333.40625 667.726562 339.390625 L 667.726562 379.277344 C 667.726562 385.257812 671.710938 389.246094 677.691406 389.246094 L 687.65625 389.246094 L 687.65625 409.191406 L 229.230469 409.191406 L 229.230469 110.042969 L 627.863281 110.042969 C 633.84375 110.042969 637.828125 106.054688 637.828125 100.074219 C 637.828125 94.089844 633.84375 90.101562 627.863281 90.101562 L 219.265625 90.101562 C 213.285156 90.101562 209.300781 94.089844 209.300781 100.074219 L 209.300781 219.730469 C 190.363281 222.722656 175.417969 238.675781 175.417969 258.621094 C 175.417969 278.5625 190.363281 294.519531 209.300781 297.507812 L 209.300781 419.160156 C 209.300781 425.144531 213.285156 429.132812 219.265625 429.132812 L 697.625 429.132812 C 703.601562 429.132812 707.589844 425.144531 707.589844 419.160156 L 707.589844 389.246094 L 717.554688 389.246094 C 723.535156 389.246094 727.519531 385.257812 727.519531 379.277344 L 727.519531 339.390625 C 727.519531 333.40625 723.535156 329.417969 717.554688 329.417969 L 707.589844 329.417969 L 707.589844 179.84375 L 717.554688 179.84375 C 723.535156 179.84375 727.519531 175.855469 727.519531 169.875 L 727.519531 129.988281 C 727.519531 124.003906 723.535156 120.015625 717.554688 120.015625 Z M 195.347656 258.621094 C 195.347656 249.644531 201.328125 242.664062 209.300781 239.675781 L 209.300781 276.570312 C 201.328125 275.570312 195.347656 267.59375 195.347656 258.621094 Z M 707.589844 369.304688 L 687.65625 369.304688 L 687.65625 349.359375 L 707.589844 349.359375 Z M 707.589844 159.902344 L 687.65625 159.902344 L 687.65625 139.957031 L 707.589844 139.957031 Z M 707.589844 159.902344 "/>
</g>
</svg>
