<?xml version="1.0" encoding="UTF-8"?>
<svg xmlns="http://www.w3.org/2000/svg" xmlns:xlink="http://www.w3.org/1999/xlink" width="960pt" height="540.000001pt" viewBox="0 0 960 540.000001" version="1.2">
<defs>
<clipPath id="clip1">
  <path d="M 0.886719 0 L 959.113281 0 L 959.113281 539 L 0.886719 539 Z M 0.886719 0 "/>
</clipPath>
<clipPath id="clip2">
  <path d="M 206.445312 18.253906 L 669 18.253906 L 669 531.800781 L 206.445312 531.800781 Z M 206.445312 18.253906 "/>
</clipPath>
</defs>
<g id="surface1">
<g clip-path="url(#clip1)" clip-rule="nonzero">
<path style=" stroke:none;fill-rule:nonzero;fill:rgb(100%,100%,100%);fill-opacity:1;" d="M 0.886719 0 L 959.113281 0 L 959.113281 539 L 0.886719 539 Z M 0.886719 0 "/>
<path style=" stroke:none;fill-rule:nonzero;fill:rgb(100%,100%,100%);fill-opacity:1;" d="M 0.886719 0 L 959.113281 0 L 959.113281 539 L 0.886719 539 Z M 0.886719 0 "/>
</g>
<g clip-path="url(#clip2)" clip-rule="nonzero">
<path style=" stroke:none;fill-rule:nonzero;fill:rgb(38.819885%,44.309998%,94.509888%);fill-opacity:1;" d="M 617.4375 300.875 L 617.4375 275.027344 L 539.425781 150.148438 L 567.164062 90.613281 L 412.101562 18.253906 L 356.25 138.082031 L 292.320312 138.082031 L 206.765625 275.027344 L 206.765625 497.566406 L 453.390625 497.566406 C 476.269531 518.742188 506.796875 531.800781 540.4375 531.800781 C 611.328125 531.800781 668.769531 474.335938 668.769531 403.414062 C 668.769531 361.457031 648.546875 324.3125 617.4375 300.875 Z M 420.382812 41.003906 L 544.441406 98.878906 L 494.253906 206.554688 L 343.226562 206.554688 Z M 301.816406 155.199219 L 348.277344 155.199219 L 324.355469 206.554688 L 292.320312 206.554688 L 292.320312 223.671875 L 531.878906 223.671875 L 531.878906 206.554688 L 513.125 206.554688 L 530.800781 168.652344 L 597.246094 275.027344 L 226.957031 275.027344 Z M 223.875 292.144531 L 476.59375 292.144531 C 438.09375 314.3125 412.101562 355.792969 412.101562 403.414062 C 412.101562 432.363281 421.785156 458.980469 437.9375 480.445312 L 223.875 480.445312 Z M 540.4375 514.683594 C 479.007812 514.683594 429.210938 464.871094 429.210938 403.414062 C 429.210938 341.960938 479.007812 292.144531 540.4375 292.144531 C 601.867188 292.144531 651.660156 341.960938 651.660156 403.414062 C 651.660156 464.871094 601.867188 514.683594 540.4375 514.683594 Z M 540.4375 514.683594 "/>
</g>
<path style=" stroke:none;fill-rule:nonzero;fill:rgb(38.819885%,44.309998%,94.509888%);fill-opacity:1;" d="M 516.242188 433.679688 L 479.949219 397.355469 L 467.847656 409.472656 L 516.242188 457.886719 L 613.023438 361.046875 L 600.925781 348.945312 Z M 516.242188 433.679688 "/>
</g>
</svg>
