<?xml version="1.0" encoding="UTF-8"?>
<svg xmlns="http://www.w3.org/2000/svg" xmlns:xlink="http://www.w3.org/1999/xlink" width="960pt" height="540.000001pt" viewBox="0 0 960 540.000001" version="1.2">
<defs>
<clipPath id="clip1">
  <path d="M 0.886719 0 L 959.113281 0 L 959.113281 539 L 0.886719 539 Z M 0.886719 0 "/>
</clipPath>
<clipPath id="clip2">
  <path d="M 280 254 L 645.160156 254 L 645.160156 519 L 280 519 Z M 280 254 "/>
</clipPath>
</defs>
<g id="surface1">
<g clip-path="url(#clip1)" clip-rule="nonzero">
<path style=" stroke:none;fill-rule:nonzero;fill:rgb(100%,100%,100%);fill-opacity:1;" d="M 0.886719 0 L 959.113281 0 L 959.113281 539 L 0.886719 539 Z M 0.886719 0 "/>
<path style=" stroke:none;fill-rule:nonzero;fill:rgb(100%,100%,100%);fill-opacity:1;" d="M 0.886719 0 L 959.113281 0 L 959.113281 539 L 0.886719 539 Z M 0.886719 0 "/>
</g>
<g clip-path="url(#clip2)" clip-rule="nonzero">
<path style=" stroke:none;fill-rule:nonzero;fill:rgb(38.819885%,44.309998%,94.509888%);fill-opacity:1;" d="M 635.015625 518.664062 L 290.191406 518.664062 C 284.59375 518.664062 280.050781 514.09375 280.050781 508.511719 L 280.050781 264.945312 C 280.050781 259.363281 284.59375 254.796875 290.191406 254.796875 L 635.015625 254.796875 C 640.59375 254.796875 645.160156 259.363281 645.160156 264.945312 L 645.160156 508.511719 C 645.160156 514.09375 640.59375 518.664062 635.015625 518.664062 Z M 300.332031 498.363281 L 624.875 498.363281 L 624.875 275.09375 L 300.332031 275.09375 Z M 300.332031 498.363281 "/>
</g>
<path style=" stroke:none;fill-rule:nonzero;fill:rgb(38.819885%,44.309998%,94.509888%);fill-opacity:1;" d="M 614.734375 264.945312 C 609.15625 264.945312 604.589844 260.378906 604.589844 254.796875 L 604.589844 173.609375 C 604.589844 103.035156 549.175781 51.824219 472.746094 51.824219 L 452.460938 51.824219 C 376.050781 51.824219 320.617188 103.035156 320.617188 173.609375 C 320.617188 179.191406 316.074219 183.757812 310.476562 183.757812 C 304.875 183.757812 300.332031 179.191406 300.332031 173.609375 C 300.332031 92.621094 365.726562 31.527344 452.460938 31.527344 L 472.746094 31.527344 C 559.460938 31.527344 624.875 92.621094 624.875 173.609375 L 624.875 254.796875 C 624.875 260.378906 620.3125 264.945312 614.734375 264.945312 Z M 614.734375 264.945312 "/>
<path style=" stroke:none;fill-rule:nonzero;fill:rgb(38.819885%,44.309998%,94.509888%);fill-opacity:1;" d="M 472.746094 457.769531 L 452.460938 457.769531 C 434.164062 457.769531 422.035156 433.332031 422.035156 417.175781 L 422.035156 386.464844 C 415.464844 377.65625 411.894531 367.101562 411.894531 356.285156 C 411.894531 328.292969 434.652344 305.539062 462.605469 305.539062 C 490.554688 305.539062 513.3125 328.292969 513.3125 356.285156 C 513.3125 367.101562 509.742188 377.695312 503.171875 386.464844 L 503.171875 417.175781 C 503.171875 433.332031 491.042969 457.769531 472.746094 457.769531 Z M 462.605469 325.835938 C 445.828125 325.835938 432.179688 339.496094 432.179688 356.285156 C 432.179688 365.539062 436.335938 372.21875 439.804688 376.175781 C 441.425781 378.042969 442.320312 380.417969 442.320312 382.875 L 442.320312 417.175781 C 442.320312 425.496094 449.214844 437.046875 452.480469 437.472656 L 472.726562 437.472656 C 476.011719 437.046875 482.886719 425.496094 482.886719 417.175781 L 482.886719 382.894531 C 482.886719 380.4375 483.78125 378.101562 485.402344 376.257812 C 488.890625 372.277344 493.03125 365.601562 493.03125 356.34375 C 493.03125 339.496094 479.378906 325.835938 462.605469 325.835938 Z M 462.605469 325.835938 "/>
</g>
</svg>
