<?xml version="1.0" encoding="UTF-8"?>
<svg xmlns="http://www.w3.org/2000/svg" xmlns:xlink="http://www.w3.org/1999/xlink" width="960pt" height="540.000001pt" viewBox="0 0 960 540.000001" version="1.2">
<defs>
<clipPath id="clip1">
  <path d="M 0.886719 0 L 959.113281 0 L 959.113281 539 L 0.886719 539 Z M 0.886719 0 "/>
</clipPath>
<clipPath id="clip2">
  <path d="M 198.816406 16.824219 L 705.628906 16.824219 L 705.628906 397.121094 L 198.816406 397.121094 Z M 198.816406 16.824219 "/>
</clipPath>
<clipPath id="clip3">
  <path d="M 199 323.960938 L 245 323.960938 L 245 388 L 199 388 Z M 199 323.960938 "/>
</clipPath>
<clipPath id="clip4">
  <path d="M 204.179688 339.027344 L 378.894531 339.027344 L 378.894531 514.089844 L 204.179688 514.089844 Z M 204.179688 339.027344 "/>
</clipPath>
</defs>
<g id="surface1">
<g clip-path="url(#clip1)" clip-rule="nonzero">
<path style=" stroke:none;fill-rule:nonzero;fill:rgb(100%,100%,100%);fill-opacity:1;" d="M 0.886719 0 L 959.113281 0 L 959.113281 539.003906 L 0.886719 539.003906 Z M 0.886719 0 "/>
<path style=" stroke:none;fill-rule:nonzero;fill:rgb(100%,100%,100%);fill-opacity:1;" d="M 0.886719 0 L 959.113281 0 L 959.113281 539.003906 L 0.886719 539.003906 Z M 0.886719 0 "/>
</g>
<path style=" stroke:none;fill-rule:nonzero;fill:rgb(100%,100%,100%);fill-opacity:1;" d="M 420.546875 69.644531 L 420.546875 386.554688 L 378.3125 386.554688 L 378.3125 69.644531 L 420.546875 69.644531 "/>
<path style=" stroke:none;fill-rule:nonzero;fill:rgb(100%,100%,100%);fill-opacity:1;" d="M 695.066406 48.515625 L 695.066406 196.410156 C 695.066406 208.046875 685.539062 217.535156 673.949219 217.535156 L 568.367188 217.535156 L 568.367188 175.28125 L 631.714844 175.28125 C 643.304688 175.28125 652.832031 165.789062 652.832031 154.152344 L 652.832031 90.769531 C 652.832031 79.132812 643.304688 69.644531 631.714844 69.644531 L 272.730469 69.644531 C 261.097656 69.644531 251.613281 79.132812 251.613281 90.769531 L 251.613281 154.152344 C 251.613281 165.789062 261.097656 175.28125 272.730469 175.28125 L 336.082031 175.28125 L 336.082031 217.535156 L 230.496094 217.535156 C 218.867188 217.535156 209.378906 208.046875 209.378906 196.410156 L 209.378906 48.515625 C 209.378906 36.878906 218.867188 27.386719 230.496094 27.386719 L 673.949219 27.386719 C 685.539062 27.386719 695.066406 36.878906 695.066406 48.515625 "/>
<g clip-path="url(#clip2)" clip-rule="nonzero">
<path style=" stroke:none;fill-rule:nonzero;fill:rgb(38.819885%,44.309998%,94.509888%);fill-opacity:1;" d="M 684.507812 196.410156 C 684.507812 202.226562 679.765625 206.972656 673.949219 206.972656 L 578.925781 206.972656 L 578.925781 185.84375 L 631.714844 185.84375 C 649.203125 185.84375 663.390625 171.648438 663.390625 154.152344 L 663.390625 90.769531 C 663.390625 73.273438 649.203125 59.078125 631.714844 59.078125 L 272.730469 59.078125 C 255.242188 59.078125 241.054688 73.273438 241.054688 90.769531 L 241.054688 154.152344 C 241.054688 171.648438 255.242188 185.84375 272.730469 185.84375 L 325.523438 185.84375 L 325.523438 206.972656 L 230.496094 206.972656 C 224.679688 206.972656 219.9375 202.226562 219.9375 196.410156 L 219.9375 48.515625 C 219.9375 42.695312 224.679688 37.953125 230.496094 37.953125 L 673.949219 37.953125 C 679.765625 37.953125 684.507812 42.695312 684.507812 48.515625 Z M 631.714844 80.207031 C 637.53125 80.207031 642.273438 84.953125 642.273438 90.769531 L 642.273438 154.152344 C 642.273438 159.972656 637.53125 164.71875 631.714844 164.71875 L 578.925781 164.71875 L 578.925781 80.207031 Z M 557.808594 365.429688 C 557.808594 371.246094 553.0625 375.992188 547.25 375.992188 L 431.105469 375.992188 L 431.105469 80.207031 L 557.808594 80.207031 Z M 388.871094 375.992188 L 388.871094 80.207031 L 409.988281 80.207031 L 409.988281 375.992188 Z M 346.640625 365.429688 L 346.640625 80.207031 L 367.753906 80.207031 L 367.753906 375.992188 L 357.199219 375.992188 C 351.382812 375.992188 346.640625 371.246094 346.640625 365.429688 Z M 325.523438 164.71875 L 272.730469 164.71875 C 266.914062 164.71875 262.171875 159.972656 262.171875 154.152344 L 262.171875 90.769531 C 262.171875 84.953125 266.914062 80.207031 272.730469 80.207031 L 325.523438 80.207031 Z M 673.949219 16.824219 L 230.496094 16.824219 C 213.007812 16.824219 198.820312 31.019531 198.820312 48.515625 L 198.820312 196.410156 C 198.820312 213.90625 213.007812 228.097656 230.496094 228.097656 L 325.523438 228.097656 L 325.523438 365.429688 C 325.523438 382.925781 339.710938 397.121094 357.199219 397.121094 L 547.25 397.121094 C 564.734375 397.121094 578.925781 382.925781 578.925781 365.429688 L 578.925781 228.097656 L 673.949219 228.097656 C 691.4375 228.097656 705.625 213.90625 705.625 196.410156 L 705.625 48.515625 C 705.625 31.019531 691.4375 16.824219 673.949219 16.824219 "/>
</g>
<g clip-path="url(#clip3)" clip-rule="nonzero">
<path style=" stroke:none;fill-rule:nonzero;fill:rgb(58.039856%,61.959839%,98.81897%);fill-opacity:1;" d="M 244.4375 355.535156 C 224.8125 351.335938 224.8125 351.335938 221.800781 323.964844 C 218.800781 351.335938 218.800781 351.335938 199.175781 355.535156 C 218.800781 359.722656 218.800781 359.722656 221.800781 387.09375 C 224.8125 359.722656 224.8125 359.722656 244.4375 355.535156 "/>
</g>
<g clip-path="url(#clip4)" clip-rule="nonzero">
<path style=" stroke:none;fill-rule:nonzero;fill:rgb(38.819885%,44.309998%,94.509888%);fill-opacity:1;" d="M 378.40625 426.257812 C 299.925781 421.902344 296.820312 418.78125 292.480469 339.992188 C 292.445312 339.332031 291.480469 339.332031 291.441406 339.992188 C 287.070312 418.78125 283.964844 421.902344 205.484375 426.257812 C 204.828125 426.292969 204.828125 427.261719 205.484375 427.300781 C 283.964844 431.6875 287.070312 434.804688 291.441406 513.59375 C 291.480469 514.253906 292.445312 514.25 292.480469 513.59375 C 296.820312 434.804688 299.925781 431.6875 378.40625 427.300781 C 379.058594 427.261719 379.058594 426.292969 378.40625 426.257812 "/>
</g>
</g>
</svg>
