<?xml version="1.0" standalone="no"?>
<!DOCTYPE svg PUBLIC "-//W3C//DTD SVG 20010904//EN"
 "http://www.w3.org/TR/2001/REC-SVG-20010904/DTD/svg10.dtd">
<svg version="1.0" xmlns="http://www.w3.org/2000/svg"
 width="3840.000000pt" height="2160.000000pt" viewBox="0 0 3840.000000 2160.000000"
 preserveAspectRatio="xMidYMid meet">

<g transform="translate(0.000000,2160.000000) scale(0.100000,-0.100000)"
fill="#000000" stroke="none">
<path d="M6521 18633 c-23 -49 -95 -200 -159 -338 l-118 -250 -187 -5 -187 -5
-245 -389 -245 -390 0 -633 0 -633 709 0 710 0 75 -54 c127 -91 277 -138 441
-139 440 -1 790 417 712 849 -29 157 -93 279 -209 397 l-78 78 0 71 0 71 -221
351 c-122 193 -222 356 -222 361 0 6 35 84 77 174 42 90 75 165 74 166 -9 6
-874 405 -879 405 -4 0 -25 -39 -48 -87z m451 -195 c194 -89 354 -163 356
-164 2 -1 -62 -141 -141 -311 l-145 -308 -441 -3 c-419 -2 -441 -1 -433 15 5
10 105 224 223 475 118 252 217 458 221 458 4 0 166 -73 360 -162z m-818 -585
c-26 -54 -57 -122 -70 -150 l-24 -53 -90 0 -90 0 0 -45 0 -45 685 0 685 0 0
45 0 44 -54 3 -54 3 50 108 c28 59 54 107 57 107 8 -1 383 -602 378 -606 -2
-2 -483 -3 -1070 -2 l-1065 3 215 343 215 342 139 0 138 0 -45 -97z m776 -691
c0 -4 -15 -16 -32 -27 -55 -32 -169 -146 -213 -215 -88 -136 -121 -261 -112
-433 7 -143 42 -253 116 -362 12 -16 21 -33 21 -37 0 -5 -279 -8 -620 -8
l-620 0 0 545 0 545 730 0 c402 0 730 -4 730 -8z m539 -18 c212 -54 401 -241
455 -451 71 -274 -32 -543 -269 -702 -348 -233 -838 -61 -966 339 -27 82 -36
238 -19 322 6 35 29 99 49 143 132 282 443 427 750 349z"/>
<path d="M7406 16589 l-247 -242 -105 104 -104 104 -31 -31 -31 -31 139 -136
138 -136 275 274 275 275 -31 30 -30 31 -248 -242z"/>
<path d="M32686 18053 c-26 -32 -71 -83 -99 -113 -29 -30 -86 -93 -127 -140
-41 -47 -81 -92 -90 -100 -8 -8 -33 -35 -54 -60 -21 -25 -60 -68 -85 -95 -25
-28 -80 -88 -121 -135 -41 -46 -89 -99 -106 -118 l-31 -33 -53 83 c-29 46 -95
146 -146 223 l-92 140 -199 3 -198 4 26 -29 c60 -65 128 -140 155 -171 28 -32
33 -33 107 -36 78 -3 79 -3 100 -37 12 -19 27 -40 34 -47 8 -8 21 -28 29 -45
9 -16 20 -35 25 -41 5 -6 31 -45 57 -86 27 -41 86 -133 132 -205 46 -71 118
-183 159 -248 42 -65 110 -172 151 -237 41 -66 77 -120 80 -119 3 0 25 30 49
66 l44 66 -18 31 c-10 17 -55 88 -101 157 -45 70 -88 137 -94 150 -7 12 -17
28 -22 33 -13 16 -116 174 -129 197 -9 17 1 32 68 107 43 47 87 96 98 107 11
12 49 55 85 95 121 137 235 264 295 330 34 36 89 98 124 138 l63 72 313 0 313
0 22 35 c12 20 27 41 34 48 6 6 19 24 29 40 l17 27 -398 0 -398 0 -48 -57z"/>
<path d="M17206 17895 c-75 -27 -126 -81 -146 -157 -7 -25 -10 -226 -8 -576 3
-533 3 -537 25 -579 31 -57 87 -100 147 -113 36 -8 629 -10 2006 -8 l1955 3
46 27 c25 15 59 46 75 69 l29 42 3 561 c3 633 5 613 -72 684 -24 22 -61 45
-82 51 -27 8 -633 11 -1989 11 -1648 -1 -1956 -3 -1989 -15z m3968 -100 c68
-32 66 -14 66 -610 0 -488 -2 -540 -17 -566 -38 -63 110 -59 -2025 -59 -1830
0 -1945 1 -1978 18 -71 35 -70 25 -70 607 0 582 -1 572 70 607 33 17 148 18
1978 18 1717 0 1948 -2 1976 -15z"/>
<path d="M17866 17420 c-54 -17 -106 -83 -106 -135 0 -23 3 -25 45 -25 37 0
45 3 45 18 0 47 88 73 110 33 22 -42 10 -67 -105 -214 -63 -81 -115 -150 -115
-152 0 -3 74 -5 165 -5 l165 0 0 45 0 45 -70 0 c-38 0 -70 3 -70 6 0 3 22 34
49 68 64 81 83 119 83 172 0 103 -98 175 -196 144z"/>
<path d="M18824 17411 c-115 -52 -157 -228 -89 -367 38 -78 85 -108 162 -102
74 5 115 34 149 104 65 133 24 306 -86 362 -54 27 -82 27 -136 3z m116 -99
c33 -33 46 -96 36 -175 -7 -59 -31 -98 -68 -108 -62 -16 -108 46 -108 149 0
72 18 122 51 146 34 23 57 20 89 -12z"/>
<path d="M19276 17420 c-104 -33 -167 -210 -121 -341 33 -92 90 -139 170 -139
114 0 190 101 189 251 0 155 -117 267 -238 229z m99 -104 c68 -68 53 -257 -22
-284 -64 -22 -106 23 -111 119 -5 90 3 131 33 163 30 33 68 34 100 2z"/>
<path d="M19870 17408 c-115 -59 -154 -261 -74 -384 38 -58 70 -77 134 -82 68
-5 107 12 145 63 76 99 71 274 -12 365 -55 62 -120 74 -193 38z m119 -89 c32
-30 41 -61 41 -137 0 -149 -100 -214 -157 -102 -68 133 25 324 116 239z"/>
<path d="M20310 17408 c-115 -59 -154 -261 -74 -384 38 -58 70 -77 134 -82 68
-5 107 12 145 63 76 99 71 274 -12 365 -55 62 -120 74 -193 38z m119 -89 c32
-30 41 -61 41 -137 0 -149 -100 -214 -157 -102 -68 133 25 324 116 239z"/>
<path d="M20750 17408 c-115 -59 -154 -261 -74 -384 38 -58 70 -77 134 -82 68
-5 107 12 145 63 76 99 71 274 -12 365 -55 62 -120 74 -193 38z m119 -89 c32
-30 41 -61 41 -137 0 -149 -100 -214 -157 -102 -68 133 25 324 116 239z"/>
<path d="M17608 17392 c-76 -25 -78 -27 -78 -59 0 -30 3 -33 30 -33 l30 0 0
-180 0 -180 50 0 50 0 0 240 c0 132 -1 240 -2 239 -2 0 -38 -13 -80 -27z"/>
<path d="M18381 17353 c-43 -148 -42 -142 -14 -160 16 -11 42 -16 72 -14 62 3
101 -25 101 -74 0 -80 -116 -102 -171 -32 -16 20 -16 20 -52 -7 -35 -27 -36
-29 -20 -52 9 -14 36 -36 60 -51 37 -22 53 -25 107 -21 84 5 137 39 161 102
43 112 -25 216 -140 216 -34 0 -35 1 -29 28 10 42 11 42 90 42 l74 0 0 45 0
45 -110 0 -109 0 -20 -67z"/>
<path d="M18133 16940 l-20 -90 26 0 c23 0 31 11 68 90 l42 90 -48 0 -48 0
-20 -90z"/>
<path d="M19577 16948 c-9 -46 -17 -86 -17 -90 0 -13 48 -9 53 5 3 6 21 47 41
90 l35 77 -47 0 -48 0 -17 -82z"/>
<path d="M32822 17722 c-34 -38 -65 -72 -69 -75 -3 -4 97 -7 223 -7 l229 0 39
61 c22 34 46 67 54 75 11 12 -18 14 -201 14 l-214 0 -61 -68z"/>
<path d="M32570 17443 c-12 -16 -39 -47 -61 -70 -21 -23 -39 -44 -39 -47 0 -3
114 -6 254 -6 l253 0 44 62 c24 34 48 68 52 75 7 11 -37 13 -237 13 l-245 0
-21 -27z"/>
<path d="M32293 17133 c-21 -8 -15 -27 24 -87 l37 -56 196 0 196 0 52 75 52
75 -272 -1 c-150 0 -279 -3 -285 -6z"/>
<path d="M31700 16582 l0 -502 40 25 c22 14 42 25 46 25 3 0 18 8 32 18 15 11
54 34 87 51 121 66 255 143 260 150 2 4 -22 47 -54 97 -163 249 -211 325 -211
334 0 6 -4 10 -8 10 -5 0 -13 10 -19 23 -6 12 -47 78 -92 146 l-81 125 0 -502z"/>
<path d="M32472 16813 c12 -27 64 -113 68 -113 3 0 22 24 42 54 31 45 35 55
22 60 -23 9 -136 7 -132 -1z"/>
<path d="M32100 16111 c-14 -10 -52 -33 -85 -51 -94 -52 -94 -52 -207 -120
l-108 -65 0 -179 0 -179 30 39 c16 22 33 44 38 49 4 6 28 39 52 75 24 36 46
67 50 70 4 3 31 40 61 84 72 105 74 108 146 209 63 89 67 101 23 68z"/>
<path d="M2170 13863 c0 -4 73 -189 163 -410 l162 -403 79 2 79 3 163 404 c90
223 164 406 164 408 0 2 -44 2 -97 1 l-97 -3 -63 -170 c-35 -93 -82 -223 -104
-288 -23 -64 -44 -115 -47 -112 -3 2 -47 120 -98 262 -52 142 -99 270 -105
286 -11 27 -12 27 -105 27 -52 0 -94 -3 -94 -7z"/>
<path d="M28110 13410 l0 -450 90 0 90 0 0 450 0 450 -90 0 -90 0 0 -450z"/>
<path d="M14844 13810 c-103 -22 -189 -91 -213 -169 -39 -132 34 -246 187
-290 37 -11 102 -30 145 -42 89 -25 127 -54 127 -97 0 -72 -130 -118 -223 -78
-42 17 -87 70 -87 102 0 24 -1 24 -95 24 l-96 0 7 -37 c19 -110 80 -184 183
-225 81 -32 242 -31 324 1 132 52 197 165 167 290 -24 100 -94 148 -284 195
-122 30 -164 50 -172 83 -9 36 0 56 36 81 31 21 43 23 100 19 56 -4 68 -9 92
-36 15 -17 28 -40 28 -51 0 -18 7 -20 90 -20 101 0 99 -3 75 77 -19 63 -91
133 -163 157 -58 20 -172 28 -228 16z"/>
<path d="M27515 13776 c-238 -59 -376 -298 -305 -528 37 -120 113 -207 229
-262 61 -29 74 -31 171 -31 100 0 109 2 175 34 84 42 161 115 198 191 l28 55
-97 3 -96 3 -36 -42 c-46 -53 -101 -79 -172 -79 -106 0 -195 69 -226 176 -48
165 81 338 241 321 67 -7 124 -36 161 -82 l29 -36 97 3 96 3 -26 53 c-51 105
-172 196 -290 221 -66 14 -113 13 -177 -3z"/>
<path d="M3800 13680 l0 -100 -50 0 -50 0 0 -70 0 -70 50 0 50 0 0 -195 0
-195 85 0 85 0 0 195 0 195 50 0 50 0 0 70 0 70 -50 0 -50 0 0 100 0 100 -85
0 -85 0 0 -100z"/>
<path d="M29245 13773 c-36 -10 -64 -35 -75 -68 -23 -71 23 -135 97 -135 116
0 144 151 37 196 -18 8 -35 13 -36 13 -2 -1 -12 -4 -23 -6z"/>
<path d="M16120 13620 l0 -100 -50 0 -50 0 0 -70 0 -70 50 0 50 0 0 -195 0
-195 90 0 90 0 0 195 0 195 45 0 45 0 0 70 0 70 -45 0 -45 0 0 100 0 100 -90
0 -90 0 0 -100z"/>
<path d="M3222 13572 c-67 -24 -119 -66 -157 -127 -27 -44 -30 -57 -30 -129 0
-91 19 -137 77 -193 59 -56 121 -78 223 -78 105 1 160 21 219 79 51 51 68 91
74 168 6 84 -15 144 -70 204 -76 82 -224 116 -336 76z m168 -137 c40 -20 60
-63 60 -125 0 -91 -35 -129 -117 -130 -44 0 -58 5 -84 28 -62 56 -48 196 23
227 43 19 82 19 118 0z"/>
<path d="M4322 13570 c-117 -42 -183 -133 -184 -254 -1 -162 124 -276 302
-276 136 0 256 78 276 179 l7 31 -86 0 c-79 0 -87 -2 -98 -22 -19 -39 -51 -58
-97 -58 -37 0 -50 6 -78 34 -21 21 -34 44 -34 60 l0 26 203 2 202 3 -2 52 c-3
70 -42 145 -95 183 -82 60 -214 77 -316 40z m216 -135 c42 -50 34 -55 -93 -55
-127 0 -135 5 -92 55 42 50 142 50 185 0z"/>
<path d="M15565 13516 c-66 -21 -101 -43 -143 -91 -98 -111 -78 -300 40 -386
74 -53 206 -75 298 -49 85 23 160 96 185 178 6 22 5 22 -85 22 -86 0 -91 -1
-100 -24 -13 -35 -49 -56 -95 -56 -47 0 -79 19 -100 60 -32 61 -35 60 191 60
l207 0 -7 62 c-11 110 -80 191 -189 223 -61 18 -147 18 -202 1z m172 -122 c13
-8 30 -28 38 -44 l16 -30 -121 0 c-66 0 -120 2 -120 5 0 4 6 18 14 33 29 57
112 74 173 36z"/>
<path d="M28565 13476 c-210 -99 -210 -403 0 -502 82 -39 193 -29 255 22 l30
26 0 -31 0 -31 90 0 90 0 0 265 0 265 -90 0 -90 0 0 -31 0 -30 -32 24 c-72 53
-171 62 -253 23z m225 -145 c38 -26 63 -85 56 -127 -9 -47 -59 -102 -100 -109
-73 -14 -146 50 -146 128 0 108 104 167 190 108z"/>
<path d="M29765 13483 c-16 -8 -40 -25 -52 -36 l-23 -20 0 31 0 32 -90 0 -90
0 0 -265 0 -265 90 0 90 0 0 145 c0 154 8 193 49 229 28 26 81 23 103 -5 16
-18 18 -44 18 -195 l0 -174 89 0 89 0 4 158 c2 124 7 164 20 188 20 37 68 57
101 45 48 -18 52 -33 55 -218 l4 -173 90 0 90 0 -4 188 c-4 199 -13 239 -61
290 -74 79 -206 83 -300 10 l-39 -30 -31 30 c-18 17 -45 36 -60 41 -40 16
-107 13 -142 -6z"/>
<path d="M29180 13225 l0 -265 90 0 90 0 0 265 0 265 -90 0 -90 0 0 -265z"/>
<path d="M2165 12740 c-3 -6 0 -12 7 -15 27 -10 9073 0 9071 10 -4 14 -9069
19 -9078 5z"/>
<path d="M14567 12684 c-4 -4 -4 -11 -1 -15 3 -5 2018 -9 4540 -9 3624 0 4535
3 4532 13 -4 9 -921 13 -4535 15 -2491 1 -4533 -1 -4536 -4z"/>
<path d="M27150 12610 c0 -7 1520 -10 4540 -10 3020 0 4540 3 4540 10 0 7
-1520 10 -4540 10 -3020 0 -4540 -3 -4540 -10z"/>
<path d="M3190 11845 c0 -212 1 -225 19 -225 16 0 19 11 24 83 7 100 12 114
48 132 70 37 89 12 89 -116 0 -99 0 -99 25 -99 25 0 25 1 25 89 0 106 -12 147
-51 166 -39 20 -72 19 -102 -5 -14 -11 -28 -20 -31 -20 -3 0 -6 50 -6 110 0
103 -1 110 -20 110 -19 0 -20 -7 -20 -225z"/>
<path d="M4750 11845 c0 -217 1 -225 20 -225 16 0 19 8 22 61 l3 62 48 -62
c36 -45 55 -61 73 -61 13 0 24 3 24 6 0 4 -22 32 -50 64 -27 32 -50 62 -50 67
0 4 20 31 45 60 25 28 45 54 45 57 0 3 -11 6 -24 6 -18 0 -37 -15 -68 -55
l-43 -55 -3 150 c-2 142 -4 150 -22 150 -19 0 -20 -8 -20 -225z"/>
<path d="M6380 11845 c0 -218 1 -225 20 -225 18 0 20 7 20 86 0 81 1 87 29
115 32 32 57 36 87 15 16 -12 20 -29 22 -115 4 -91 6 -101 23 -101 17 0 19 8
19 95 0 67 -5 105 -15 126 -27 50 -93 64 -139 28 l-26 -20 0 110 c0 104 -1
111 -20 111 -19 0 -20 -7 -20 -225z"/>
<path d="M7010 11845 c0 -218 1 -225 20 -225 19 0 20 7 20 225 0 218 -1 225
-20 225 -19 0 -20 -7 -20 -225z"/>
<path d="M7350 11960 l0 -110 -32 20 c-42 25 -84 25 -125 0 -45 -27 -65 -62
-65 -113 0 -53 23 -100 58 -123 35 -24 99 -21 135 5 29 21 29 21 29 1 0 -13 7
-20 20 -20 19 0 20 7 20 225 0 218 -1 225 -20 225 -19 0 -20 -7 -20 -110z
m-22 -146 c53 -60 11 -154 -70 -154 -53 0 -88 35 -88 87 0 92 99 134 158 67z"/>
<path d="M5650 12030 c-103 -18 -170 -101 -170 -207 0 -55 26 -118 61 -150 59
-54 168 -69 238 -34 47 24 99 82 107 119 3 15 7 33 10 40 2 9 -22 12 -101 12
-98 0 -105 -1 -105 -20 0 -18 7 -20 81 -20 l80 0 -18 -31 c-25 -43 -90 -79
-142 -79 -58 0 -104 22 -137 66 -25 32 -29 46 -29 100 0 48 5 69 21 91 72 97
204 99 275 4 23 -32 59 -42 59 -17 0 18 -43 70 -80 96 -35 25 -103 38 -150 30z"/>
<path d="M2210 11825 l0 -205 120 0 c113 0 120 1 120 20 0 19 -7 20 -100 20
l-100 0 0 70 0 70 95 0 c88 0 95 1 95 20 0 19 -7 20 -95 20 l-95 0 0 75 0 75
100 0 c93 0 100 1 100 20 0 19 -7 20 -120 20 l-120 0 0 -205z"/>
<path d="M5160 11825 l0 -205 120 0 c113 0 120 1 120 20 0 19 -7 20 -100 20
l-100 0 0 70 0 70 100 0 c93 0 100 1 100 20 0 18 -8 20 -97 22 l-98 3 0 70 0
70 98 3 c89 2 97 4 97 22 0 19 -7 20 -120 20 l-120 0 0 -205z"/>
<path d="M5970 11825 l0 -205 95 0 c88 0 95 1 95 20 0 18 -7 20 -75 20 l-75 0
0 185 c0 178 -1 185 -20 185 -19 0 -20 -7 -20 -205z"/>
<path d="M10147 11983 c-4 -3 -7 -28 -7 -55 0 -47 -1 -48 -30 -48 -20 0 -30
-5 -30 -15 0 -10 10 -15 30 -15 l30 0 0 -115 c0 -108 1 -115 20 -115 18 0 20
8 22 113 l3 112 33 3 c19 2 32 9 32 17 0 8 -13 15 -32 17 -32 3 -33 4 -36 56
-3 49 -16 65 -35 45z"/>
<path d="M17780 11725 c0 -218 1 -225 20 -225 18 0 20 7 20 61 l0 61 51 -61
c38 -45 57 -61 76 -61 29 0 28 4 -44 87 l-41 49 49 59 c46 56 48 60 27 63 -17
3 -34 -9 -70 -50 l-47 -53 -1 148 c0 140 -1 147 -20 147 -19 0 -20 -7 -20
-225z"/>
<path d="M18390 11725 c0 -214 1 -225 19 -225 17 0 19 9 23 90 2 73 7 93 23
109 32 32 70 36 94 12 18 -18 21 -33 21 -116 0 -88 1 -95 20 -95 19 0 20 7 20
106 0 104 0 106 -30 136 -27 27 -36 30 -71 25 -22 -3 -49 -13 -60 -23 -19 -17
-19 -15 -19 94 0 105 -1 112 -20 112 -19 0 -20 -7 -20 -225z"/>
<path d="M19390 11840 l0 -110 -32 20 c-42 25 -84 25 -125 0 -45 -27 -65 -62
-65 -113 0 -53 23 -100 58 -123 35 -24 99 -21 135 5 29 21 29 21 29 1 0 -13 7
-20 20 -20 19 0 20 7 20 225 0 218 -1 225 -20 225 -19 0 -20 -7 -20 -110z
m-22 -146 c53 -60 11 -154 -70 -154 -53 0 -88 35 -88 87 0 92 99 134 158 67z"/>
<path d="M20950 11840 l0 -110 -32 20 c-42 25 -84 25 -125 0 -45 -27 -65 -62
-65 -113 0 -53 23 -100 58 -123 35 -24 99 -21 135 5 29 21 29 21 29 1 0 -13 7
-20 20 -20 19 0 20 7 20 225 0 218 -1 225 -20 225 -19 0 -20 -7 -20 -110z
m-22 -146 c53 -60 11 -154 -70 -154 -53 0 -88 35 -88 87 0 92 99 134 158 67z"/>
<path d="M22340 11725 c0 -218 1 -225 20 -225 19 0 20 7 20 225 0 218 -1 225
-20 225 -19 0 -20 -7 -20 -225z"/>
<path d="M14710 11894 c-76 -33 -121 -104 -121 -189 0 -116 87 -205 201 -205
89 0 157 41 191 115 36 77 16 188 -42 242 -56 51 -158 68 -229 37z m177 -50
c53 -40 68 -71 68 -139 0 -49 -5 -70 -21 -91 -36 -49 -70 -67 -131 -72 -49 -3
-64 0 -93 20 -53 36 -80 83 -80 140 0 72 38 131 100 157 38 16 127 7 157 -15z"/>
<path d="M2584 11872 c-83 -53 -83 -183 1 -238 36 -24 100 -22 136 5 29 21 29
21 29 1 0 -13 7 -20 20 -20 19 0 20 7 20 130 0 123 -1 130 -20 130 -14 0 -20
-7 -20 -22 l0 -21 -24 22 c-34 32 -101 38 -142 13z m128 -51 c67 -60 29 -161
-61 -161 -91 0 -122 131 -42 175 40 22 67 18 103 -14z"/>
<path d="M2933 11870 c-85 -51 -95 -168 -20 -224 42 -31 75 -38 119 -25 34 9
88 58 88 80 0 17 -32 9 -62 -16 -64 -54 -148 -17 -148 65 0 85 89 123 151 64
50 -47 81 -21 34 30 -45 49 -108 59 -162 26z"/>
<path d="M3821 11868 c-40 -104 -65 -164 -71 -171 -4 -4 -23 34 -43 85 -30 81
-38 93 -60 96 -25 3 -25 2 36 -142 34 -79 65 -142 68 -138 3 4 21 47 39 95 18
48 36 90 40 92 4 3 25 -40 46 -95 21 -55 41 -96 45 -92 5 5 58 129 116 270 3
7 -3 12 -18 12 -21 0 -29 -12 -58 -88 -18 -48 -37 -91 -41 -95 -4 -5 -24 37
-45 92 -21 56 -40 101 -42 101 -2 0 -7 -10 -12 -22z"/>
<path d="M4153 11875 c-67 -29 -94 -126 -53 -192 25 -42 68 -63 126 -63 40 0
51 5 83 37 34 36 35 38 13 41 -12 2 -34 -6 -48 -17 -40 -31 -89 -28 -125 9
-17 16 -28 34 -24 40 4 6 53 10 116 10 l109 0 0 28 c0 61 -69 123 -137 122
-15 -1 -43 -7 -60 -15z m106 -39 c15 -8 32 -26 39 -40 l12 -26 -95 0 -95 0 12
26 c13 27 51 53 81 54 10 0 30 -6 46 -14z"/>
<path d="M4473 11870 c-123 -74 -75 -250 68 -250 44 0 81 17 107 48 28 36 -6
45 -48 12 -36 -28 -91 -26 -124 5 -51 47 -39 55 90 55 l117 0 -7 32 c-13 67
-72 118 -136 118 -19 0 -49 -9 -67 -20z m128 -49 c16 -16 29 -34 29 -40 0 -7
-32 -11 -90 -11 -58 0 -90 4 -90 11 0 24 59 69 90 69 22 0 41 -9 61 -29z"/>
<path d="M6733 11871 c-53 -33 -67 -66 -64 -145 1 -19 14 -41 40 -67 34 -35
44 -39 87 -39 92 0 153 66 141 154 -12 90 -127 145 -204 97z m116 -36 c56 -29
64 -103 16 -151 -53 -53 -155 -11 -155 65 0 79 70 122 139 86z"/>
<path d="M7543 11875 c-67 -29 -94 -126 -53 -192 25 -42 68 -63 126 -63 40 0
51 5 83 37 34 36 35 38 13 41 -12 2 -34 -6 -48 -17 -40 -31 -89 -28 -125 9
-17 16 -28 34 -24 40 4 6 53 10 116 10 l109 0 0 28 c0 61 -69 123 -137 122
-15 -1 -43 -7 -60 -15z m106 -39 c15 -8 32 -26 39 -40 l12 -26 -95 0 -95 0 12
26 c13 27 51 53 81 54 10 0 30 -6 46 -14z"/>
<path d="M7877 11870 c-22 -18 -27 -19 -27 -6 0 9 -8 16 -20 16 -19 0 -20 -7
-20 -130 0 -120 1 -130 19 -130 16 0 19 10 23 84 5 104 24 140 69 134 27 -4
30 -2 27 21 -4 34 -36 39 -71 11z"/>
<path d="M8025 11878 c-30 -16 -45 -39 -45 -68 0 -34 22 -53 87 -74 63 -21 79
-37 63 -65 -15 -29 -84 -30 -102 -1 -7 11 -23 20 -35 20 -19 0 -21 -3 -14 -22
9 -27 65 -58 102 -58 43 0 94 41 97 77 4 41 -23 69 -82 84 -56 14 -85 42 -66
64 16 20 79 20 86 0 5 -13 54 -23 54 -11 0 49 -92 83 -145 54z"/>
<path d="M8464 11876 c-72 -32 -98 -129 -55 -200 19 -30 37 -42 93 -59 27 -9
83 11 112 39 50 51 20 76 -36 29 -40 -34 -87 -33 -122 1 -30 31 -35 86 -11
122 31 44 122 45 146 1 5 -11 20 -19 35 -19 24 0 24 1 9 30 -30 58 -110 84
-171 56z"/>
<path d="M8763 11870 c-83 -50 -85 -180 -4 -236 30 -21 102 -21 132 -1 29 21
39 21 39 2 0 -8 9 -15 20 -15 19 0 20 7 20 130 0 123 -1 130 -20 130 -11 0
-20 -7 -20 -15 0 -19 -3 -19 -42 5 -42 25 -84 25 -125 0z m135 -56 c31 -36 30
-97 -3 -129 -37 -38 -95 -35 -129 6 -42 50 -33 114 22 144 36 20 81 11 110
-21z"/>
<path d="M9150 11883 c-8 -3 -23 -12 -32 -21 -16 -14 -18 -13 -18 1 0 10 -8
17 -20 17 -19 0 -20 -7 -20 -130 0 -123 1 -130 20 -130 18 0 20 7 20 75 0 86
17 131 56 145 35 14 41 13 64 -10 17 -17 20 -33 20 -115 0 -88 1 -95 20 -95
19 0 20 7 20 106 0 103 -1 106 -29 135 -29 28 -63 36 -101 22z"/>
<path d="M9833 11870 c-122 -74 -75 -250 67 -250 54 0 92 23 120 73 49 86 -19
197 -120 197 -19 0 -49 -9 -67 -20z m125 -45 c70 -58 32 -165 -58 -165 -61 0
-104 53 -93 114 7 35 57 76 93 76 16 0 42 -11 58 -25z"/>
<path d="M10375 11880 c-37 -15 -76 -66 -82 -107 -11 -86 49 -153 139 -153 39
0 54 6 83 31 19 17 35 35 35 40 0 16 -41 9 -67 -11 -14 -11 -40 -20 -58 -20
-38 0 -85 33 -85 61 0 18 8 19 115 19 l115 0 -6 33 c-17 88 -109 141 -189 107z
m123 -65 c12 -14 22 -30 22 -36 0 -5 -40 -9 -90 -9 -102 0 -112 10 -58 55 26
22 39 26 67 21 21 -3 45 -16 59 -31z"/>
<path d="M9490 11877 c0 -2 27 -66 59 -142 54 -126 60 -138 69 -115 6 14 32
78 60 143 49 115 49 117 27 117 -20 0 -28 -12 -56 -85 -17 -47 -35 -88 -39
-90 -4 -3 -23 36 -41 85 -29 76 -37 90 -56 90 -13 0 -23 -1 -23 -3z"/>
<path d="M18227 11863 c-4 -3 -7 -28 -7 -55 0 -47 -1 -48 -30 -48 -20 0 -30
-5 -30 -15 0 -10 10 -15 30 -15 l30 0 0 -115 c0 -108 1 -115 20 -115 18 0 20
8 22 113 l3 112 33 3 c19 2 32 9 32 17 0 8 -13 15 -32 17 -32 3 -33 4 -36 56
-3 49 -16 65 -35 45z"/>
<path d="M23238 11818 c-3 -52 -4 -53 -35 -56 -20 -2 -33 -9 -33 -17 0 -8 13
-15 33 -17 l32 -3 3 -112 c2 -105 4 -113 22 -113 19 0 20 7 20 115 l0 115 30
0 c20 0 30 5 30 15 0 10 -10 15 -29 15 -29 0 -30 2 -33 52 -2 40 -7 54 -20 56
-14 3 -17 -6 -20 -50z"/>
<path d="M20094 11845 c-4 -9 -2 -21 4 -27 15 -15 44 -1 40 19 -4 23 -36 29
-44 8z"/>
<path d="M22474 11845 c-4 -9 -2 -21 4 -27 15 -15 44 -1 40 19 -4 23 -36 29
-44 8z"/>
<path d="M23063 11844 c-3 -8 -1 -20 5 -26 16 -16 42 -2 42 22 0 24 -38 28
-47 4z"/>
<path d="M27720 11635 c0 -212 1 -225 19 -225 16 0 19 11 24 83 7 100 12 114
48 132 70 37 89 12 89 -116 0 -99 0 -99 25 -99 25 0 25 1 25 89 0 106 -12 147
-51 166 -39 20 -72 19 -102 -5 -14 -11 -28 -20 -31 -20 -3 0 -6 50 -6 110 0
103 -1 110 -20 110 -19 0 -20 -7 -20 -225z"/>
<path d="M31656 11832 c-33 -64 -50 -148 -50 -252 -1 -160 35 -292 81 -298
l22 -3 -23 54 c-61 137 -60 340 3 482 19 44 19 45 1 45 -11 0 -26 -12 -34 -28z"/>
<path d="M32650 11635 c0 -218 1 -225 20 -225 19 0 20 7 20 225 0 218 -1 225
-20 225 -19 0 -20 -7 -20 -225z"/>
<path d="M34150 11635 c0 -218 1 -225 20 -225 19 0 20 7 20 225 0 218 -1 225
-20 225 -19 0 -20 -7 -20 -225z"/>
<path d="M34280 11635 c0 -218 1 -225 20 -225 19 0 20 7 20 225 0 218 -1 225
-20 225 -19 0 -20 -7 -20 -225z"/>
<path d="M27190 11615 l0 -205 120 0 c113 0 120 1 120 20 0 19 -7 20 -100 20
l-100 0 0 70 0 70 100 0 c93 0 100 1 100 20 0 18 -8 20 -97 22 l-98 3 0 70 0
70 98 3 c89 2 97 4 97 22 0 19 -7 20 -120 20 l-120 0 0 -205z"/>
<path d="M27558 11728 c-3 -52 -4 -53 -35 -56 -20 -2 -33 -9 -33 -17 0 -8 13
-15 33 -17 l32 -3 3 -112 c2 -105 4 -113 22 -113 19 0 20 7 20 115 l0 115 35
0 c24 0 35 5 35 15 0 10 -11 15 -35 15 l-35 0 0 55 c0 48 -3 55 -19 55 -17 0
-20 -8 -23 -52z"/>
<path d="M33197 11773 c-4 -3 -7 -28 -7 -55 0 -47 -1 -48 -30 -48 -20 0 -30
-5 -30 -15 0 -10 10 -15 30 -15 l30 0 0 -115 c0 -108 1 -115 20 -115 18 0 20
8 22 113 l3 112 33 3 c19 2 32 9 32 17 0 8 -13 15 -32 17 -32 3 -33 4 -36 56
-3 49 -16 65 -35 45z"/>
<path d="M35007 11773 c-4 -3 -7 -28 -7 -55 0 -47 -1 -48 -30 -48 -20 0 -30
-5 -30 -15 0 -10 10 -15 30 -15 l30 0 0 -115 c0 -108 1 -115 20 -115 18 0 20
8 22 113 l3 112 33 3 c19 2 32 9 32 17 0 8 -13 15 -32 17 -32 3 -33 4 -36 56
-3 49 -16 65 -35 45z"/>
<path d="M15170 11763 c-8 -3 -23 -12 -32 -21 -16 -14 -18 -13 -18 1 0 10 -8
17 -20 17 -19 0 -20 -7 -20 -130 0 -123 1 -130 20 -130 18 0 20 7 20 75 0 86
17 131 56 145 35 14 41 13 64 -10 17 -17 20 -33 20 -115 0 -88 1 -95 20 -95
19 0 20 7 20 106 0 103 -1 106 -29 135 -29 28 -63 36 -101 22z"/>
<path d="M15444 11756 c-72 -32 -98 -129 -55 -200 19 -30 37 -42 93 -59 27 -9
83 11 112 39 50 51 20 76 -36 29 -40 -34 -87 -33 -122 1 -30 31 -35 86 -11
122 31 44 122 45 146 1 5 -11 20 -19 35 -19 24 0 24 1 9 30 -30 58 -110 84
-171 56z"/>
<path d="M15753 11755 c-67 -29 -94 -126 -53 -192 25 -42 68 -63 126 -63 40 0
51 5 83 37 34 36 35 38 13 41 -12 2 -34 -6 -48 -17 -40 -31 -89 -28 -125 9
-17 16 -28 34 -24 40 4 6 53 10 116 10 l109 0 0 28 c0 61 -69 123 -137 122
-15 -1 -43 -7 -60 -15z m106 -39 c15 -8 32 -26 39 -40 l12 -26 -95 0 -95 0 12
26 c13 27 51 53 81 54 10 0 30 -6 46 -14z"/>
<path d="M16233 11750 c-45 -27 -65 -62 -65 -113 0 -53 23 -100 58 -123 35
-24 99 -21 135 5 29 21 29 21 29 1 0 -13 7 -20 20 -20 19 0 20 7 20 130 0 123
-1 130 -20 130 -11 0 -20 -7 -20 -15 0 -12 -6 -11 -32 5 -42 25 -84 25 -125 0z
m135 -56 c53 -60 11 -154 -70 -154 -53 0 -88 35 -88 87 0 92 99 134 158 67z"/>
<path d="M16832 11707 c-12 -34 -31 -80 -40 -102 l-18 -40 -39 98 c-33 83 -42
97 -61 97 -23 0 -23 -1 16 -92 21 -51 49 -117 62 -147 l24 -54 39 101 c22 56
42 102 45 102 3 0 23 -46 45 -102 l39 -102 19 43 c10 23 38 89 62 147 43 103
44 104 20 104 -20 0 -28 -13 -60 -95 -20 -52 -38 -95 -40 -95 -1 0 -19 42 -40
93 -20 50 -40 95 -43 99 -4 4 -18 -21 -30 -55z"/>
<path d="M17173 11751 c-53 -33 -67 -66 -64 -145 1 -19 14 -41 40 -67 34 -34
44 -39 85 -39 65 0 126 36 126 74 0 13 -34 5 -57 -14 -36 -28 -85 -26 -122 6
-56 47 -44 54 85 54 l117 0 -6 37 c-10 57 -63 105 -124 110 -36 3 -56 -1 -80
-16z m126 -47 c53 -44 43 -54 -59 -54 -58 0 -90 4 -90 11 0 6 13 24 29 40 37
37 79 38 120 3z"/>
<path d="M17503 11750 c-123 -74 -75 -250 68 -250 44 0 81 17 107 48 28 36 -6
45 -48 12 -36 -28 -91 -26 -124 5 -51 47 -39 55 90 55 l117 0 -7 32 c-13 67
-72 118 -136 118 -19 0 -49 -9 -67 -20z m128 -49 c16 -16 29 -34 29 -40 0 -7
-32 -11 -90 -11 -58 0 -90 4 -90 11 0 24 59 69 90 69 22 0 41 -9 61 -29z"/>
<path d="M18743 11751 c-53 -33 -67 -66 -64 -145 1 -19 14 -41 40 -67 34 -34
44 -39 85 -39 65 0 126 36 126 74 0 13 -34 5 -57 -14 -36 -28 -85 -26 -122 6
-56 47 -44 54 85 54 l117 0 -6 37 c-10 57 -63 105 -124 110 -36 3 -56 -1 -80
-16z m126 -47 c53 -44 43 -54 -59 -54 -58 0 -90 4 -90 11 0 6 13 24 29 40 37
37 79 38 120 3z"/>
<path d="M19583 11755 c-67 -29 -94 -126 -53 -192 25 -42 68 -63 126 -63 40 0
51 5 83 37 34 36 35 38 13 41 -12 2 -34 -6 -48 -17 -40 -31 -89 -28 -125 9
-17 16 -28 34 -24 40 4 6 53 10 116 10 l109 0 0 28 c0 61 -69 123 -137 122
-15 -1 -43 -7 -60 -15z m106 -39 c15 -8 32 -26 39 -40 l12 -26 -95 0 -95 0 12
26 c13 27 51 53 81 54 10 0 30 -6 46 -14z"/>
<path d="M19873 11759 c-12 -6 -27 -25 -34 -41 -18 -44 0 -72 58 -93 64 -22
75 -28 87 -47 26 -42 -67 -68 -101 -28 -18 21 -53 27 -53 9 0 -63 128 -91 181
-38 24 24 25 80 2 102 -10 8 -40 22 -67 29 -53 16 -73 35 -63 62 8 21 75 22
83 1 6 -16 54 -21 54 -6 0 5 -8 19 -18 31 -21 26 -94 36 -129 19z"/>
<path d="M20297 11750 c-22 -18 -27 -19 -27 -6 0 9 -8 16 -20 16 -19 0 -20 -7
-20 -130 0 -121 1 -130 19 -130 17 0 19 9 23 89 3 101 20 131 70 131 25 0 29
4 26 23 -4 30 -37 33 -71 7z"/>
<path d="M20485 11760 c-37 -15 -76 -66 -82 -107 -11 -86 49 -153 139 -153 39
0 54 6 83 31 19 17 35 35 35 40 0 16 -41 9 -67 -11 -14 -11 -40 -20 -58 -20
-38 0 -85 33 -85 61 0 18 8 19 115 19 l115 0 -6 33 c-17 88 -109 141 -189 107z
m123 -65 c12 -14 22 -30 22 -36 0 -5 -40 -9 -90 -9 -102 0 -112 10 -58 55 26
22 39 26 67 21 21 -3 45 -16 59 -31z"/>
<path d="M21320 11763 c-31 -11 -71 -58 -80 -95 -34 -125 109 -225 201 -142
18 16 19 15 19 -30 0 -53 -27 -90 -75 -102 -34 -8 -91 17 -100 45 -4 13 -15
21 -30 21 -58 0 27 -98 92 -107 51 -7 109 19 134 61 16 27 19 52 19 189 0 150
-1 157 -20 157 -11 0 -20 -7 -20 -15 0 -12 -6 -12 -37 5 -37 19 -73 24 -103
13z m83 -44 c60 -31 74 -97 31 -148 -54 -64 -154 -28 -154 56 0 75 64 122 123
92z"/>
<path d="M21643 11750 c-45 -27 -65 -62 -65 -113 0 -53 23 -100 58 -123 35
-24 99 -21 135 5 29 21 29 21 29 1 0 -13 7 -20 20 -20 19 0 20 7 20 130 0 123
-1 130 -20 130 -11 0 -20 -7 -20 -15 0 -12 -6 -11 -32 5 -42 25 -84 25 -125 0z
m135 -56 c53 -60 11 -154 -70 -154 -53 0 -88 35 -88 87 0 92 99 134 158 67z"/>
<path d="M21952 11755 c-50 -37 -47 -104 7 -123 14 -6 44 -16 66 -24 42 -15
55 -39 35 -63 -18 -22 -74 -19 -95 5 -20 23 -55 27 -55 7 0 -21 43 -56 77 -63
35 -7 95 10 113 31 17 21 15 74 -3 93 -10 9 -43 25 -75 37 -49 17 -57 24 -57
45 0 21 5 25 36 28 23 2 40 -2 49 -12 15 -20 50 -21 50 -3 0 44 -105 73 -148
42z"/>
<path d="M22610 11635 c0 -128 1 -135 20 -135 18 0 20 7 20 86 0 81 1 87 29
115 65 65 101 27 101 -108 0 -86 1 -93 20 -93 19 0 20 7 20 90 0 83 2 93 25
115 28 29 57 32 79 9 12 -12 16 -38 16 -115 0 -92 1 -99 20 -99 19 0 20 7 20
109 0 101 -2 110 -25 135 -30 33 -81 35 -119 5 l-26 -20 -26 20 c-34 26 -74
27 -107 1 -25 -20 -25 -20 -30 0 -3 11 -12 20 -21 20 -14 0 -16 -18 -16 -135z"/>
<path d="M30254 11755 c-4 -9 -2 -21 4 -27 15 -15 44 -1 40 19 -4 23 -36 29
-44 8z"/>
<path d="M32784 11755 c-4 -9 -2 -21 4 -27 15 -15 44 -1 40 19 -4 23 -36 29
-44 8z"/>
<path d="M33357 11756 c-6 -15 11 -36 29 -36 14 0 27 28 18 41 -8 14 -41 11
-47 -5z"/>
<path d="M34834 11755 c-4 -9 -2 -21 4 -27 15 -15 44 -1 40 19 -4 23 -36 29
-44 8z"/>
<path d="M35327 11756 c-6 -15 11 -36 29 -36 14 0 27 28 18 41 -8 14 -41 11
-47 -5z"/>
<path d="M20100 11630 c0 -123 1 -130 20 -130 19 0 20 7 20 130 0 123 -1 130
-20 130 -19 0 -20 -7 -20 -130z"/>
<path d="M22470 11630 c0 -123 1 -130 20 -130 19 0 20 7 20 130 0 123 -1 130
-20 130 -19 0 -20 -7 -20 -130z"/>
<path d="M23070 11630 c0 -123 1 -130 20 -130 19 0 20 7 20 130 0 123 -1 130
-20 130 -19 0 -20 -7 -20 -130z"/>
<path d="M28095 11670 c-37 -15 -76 -66 -82 -107 -11 -86 49 -153 139 -153 39
0 54 6 83 31 19 17 35 35 35 40 0 16 -41 9 -67 -11 -14 -11 -40 -20 -58 -20
-38 0 -85 33 -85 61 0 18 8 19 115 19 l115 0 -6 33 c-17 88 -109 141 -189 107z
m123 -65 c12 -14 22 -30 22 -36 0 -5 -40 -9 -90 -9 -102 0 -112 10 -58 55 26
22 39 26 67 21 21 -3 45 -16 59 -31z"/>
<path d="M28420 11660 c-16 -16 -20 -17 -20 -5 0 8 -9 15 -20 15 -19 0 -20 -7
-20 -130 0 -123 1 -130 20 -130 18 0 20 7 20 80 0 43 5 91 12 105 12 26 48 42
67 30 7 -4 11 5 11 24 0 26 -4 31 -25 31 -14 0 -34 -9 -45 -20z"/>
<path d="M28593 11660 c-123 -74 -75 -250 68 -250 44 0 81 17 107 48 28 36 -6
45 -48 12 -36 -28 -91 -26 -124 5 -51 47 -39 55 90 55 l117 0 -7 32 c-13 67
-72 118 -136 118 -19 0 -49 -9 -67 -20z m128 -49 c16 -16 29 -34 29 -40 0 -7
-32 -11 -90 -11 -58 0 -90 4 -90 11 0 24 59 69 90 69 22 0 41 -9 61 -29z"/>
<path d="M29177 11673 c-4 -3 -7 -64 -7 -135 0 -121 1 -128 20 -128 18 0 20 7
20 63 0 120 38 182 98 161 26 -9 27 -11 32 -114 5 -100 6 -105 28 -108 21 -3
22 -1 22 92 0 85 2 97 22 116 12 11 32 20 44 20 40 0 54 -35 54 -137 0 -88 1
-93 21 -93 20 0 21 4 17 111 -3 107 -4 112 -31 135 -37 32 -87 32 -117 1 l-23
-23 -23 23 c-29 29 -82 30 -118 2 l-26 -20 0 20 c0 20 -19 28 -33 14z"/>
<path d="M29797 11673 c-4 -3 -7 -64 -7 -135 0 -121 1 -128 20 -128 18 0 20 7
20 63 0 120 38 182 98 161 26 -9 27 -11 32 -114 5 -100 6 -105 28 -108 21 -3
22 -1 22 92 0 85 2 97 22 116 12 11 32 20 44 20 40 0 54 -35 54 -137 0 -88 1
-93 21 -93 20 0 21 4 17 111 -3 107 -4 112 -31 135 -37 32 -87 32 -117 1 l-23
-23 -23 23 c-29 29 -82 30 -118 2 l-26 -20 0 20 c0 20 -19 28 -33 14z"/>
<path d="M30480 11673 c-8 -3 -23 -12 -32 -21 -16 -14 -18 -13 -18 1 0 10 -8
17 -20 17 -19 0 -20 -7 -20 -130 0 -123 1 -130 20 -130 18 0 20 7 20 75 0 86
17 131 56 145 35 14 41 13 64 -10 17 -17 20 -33 20 -115 0 -88 1 -95 20 -95
19 0 20 7 20 106 0 103 -1 106 -29 135 -29 28 -63 36 -101 22z"/>
<path d="M30743 11661 c-53 -33 -67 -66 -64 -145 1 -19 14 -41 40 -67 34 -34
44 -39 85 -39 65 0 126 36 126 74 0 13 -34 5 -57 -14 -36 -28 -85 -26 -122 6
-56 47 -44 54 85 54 l117 0 -6 37 c-10 57 -63 105 -124 110 -36 3 -56 -1 -80
-16z m126 -47 c53 -44 43 -54 -59 -54 -58 0 -90 4 -90 11 0 6 13 24 29 40 37
37 79 38 120 3z"/>
<path d="M31087 11660 c-22 -18 -27 -19 -27 -6 0 9 -8 16 -20 16 -19 0 -20 -7
-20 -130 0 -121 1 -130 19 -130 17 0 19 9 23 89 3 101 20 131 70 131 25 0 29
4 26 23 -4 30 -37 33 -71 7z"/>
<path d="M31223 11660 c-27 -16 -33 -26 -33 -54 0 -41 15 -55 89 -81 44 -16
57 -25 59 -44 4 -29 -12 -41 -55 -41 -22 0 -37 7 -45 20 -13 20 -58 28 -58 11
0 -6 10 -22 23 -36 64 -75 219 -8 179 79 -8 17 -28 30 -76 46 -72 24 -80 31
-71 60 8 25 60 27 86 4 9 -8 28 -14 41 -12 23 3 23 3 -9 36 -37 38 -81 42
-130 12z"/>
<path d="M31860 11660 c-16 -16 -20 -17 -20 -5 0 8 -9 15 -20 15 -19 0 -20 -7
-20 -130 0 -123 1 -130 20 -130 18 0 20 7 20 80 0 43 5 91 12 105 12 26 48 42
67 30 7 -4 11 5 11 24 0 26 -4 31 -25 31 -14 0 -34 -9 -45 -20z"/>
<path d="M32033 11661 c-53 -33 -67 -66 -64 -145 1 -19 14 -41 40 -67 34 -34
44 -39 85 -39 65 0 126 36 126 74 0 13 -34 5 -57 -14 -36 -28 -85 -26 -122 6
-56 47 -44 54 85 54 l117 0 -6 37 c-10 57 -63 105 -124 110 -36 3 -56 -1 -80
-16z m126 -47 c53 -44 43 -54 -59 -54 -58 0 -90 4 -90 11 0 6 13 24 29 40 37
37 79 38 120 3z"/>
<path d="M32354 11662 c-83 -53 -83 -183 1 -238 36 -24 100 -22 136 5 29 21
29 21 29 1 0 -13 7 -20 20 -20 19 0 20 7 20 130 0 123 -1 130 -20 130 -14 0
-20 -7 -20 -22 l0 -21 -24 22 c-34 32 -101 38 -142 13z m128 -51 c67 -60 29
-161 -61 -161 -91 0 -122 131 -42 175 40 22 67 18 103 -14z"/>
<path d="M32945 11668 c-30 -16 -45 -39 -45 -68 0 -34 22 -53 87 -74 63 -21
79 -37 63 -65 -15 -29 -84 -30 -102 -1 -7 11 -23 20 -35 20 -19 0 -21 -3 -14
-22 9 -27 65 -58 102 -58 43 0 94 41 97 77 4 41 -23 69 -82 84 -56 14 -85 42
-66 64 16 20 79 20 86 0 5 -13 54 -23 54 -11 0 49 -92 83 -145 54z"/>
<path d="M33551 11663 c-46 -23 -71 -67 -71 -125 0 -86 83 -149 166 -126 40
11 84 49 84 73 0 19 -36 20 -47 1 -26 -43 -94 -47 -134 -7 -78 79 22 198 116
137 14 -9 25 -21 25 -26 0 -6 11 -10 25 -10 14 0 25 4 25 9 0 18 -45 64 -76
77 -43 18 -71 17 -113 -3z"/>
<path d="M33854 11662 c-83 -53 -83 -183 1 -238 36 -24 100 -22 136 5 29 21
29 21 29 1 0 -13 7 -20 20 -20 19 0 20 7 20 130 0 123 -1 130 -20 130 -14 0
-20 -7 -20 -22 l0 -21 -24 22 c-34 32 -101 38 -142 13z m128 -51 c67 -60 29
-161 -61 -161 -91 0 -122 131 -42 175 40 22 67 18 103 -14z"/>
<path d="M35482 11665 c-50 -37 -47 -104 7 -123 14 -6 44 -16 66 -24 42 -15
55 -39 35 -63 -18 -22 -74 -19 -95 5 -20 23 -55 27 -55 7 0 -21 43 -56 77 -63
35 -7 95 10 113 31 17 21 15 74 -3 93 -10 9 -43 25 -75 37 -49 17 -57 24 -57
45 0 21 5 25 36 28 23 2 40 -2 49 -12 15 -20 50 -21 50 -3 0 44 -105 73 -148
42z"/>
<path d="M28870 11565 c0 -99 2 -107 25 -130 35 -36 95 -37 133 -2 l22 20 0
-21 c0 -15 6 -22 20 -22 19 0 20 7 20 130 0 123 -1 130 -20 130 -18 0 -20 -7
-20 -69 0 -113 -22 -151 -89 -151 -42 0 -51 22 -51 129 0 84 -1 91 -20 91 -19
0 -20 -7 -20 -105z"/>
<path d="M30250 11540 c0 -123 1 -130 20 -130 19 0 20 7 20 130 0 123 -1 130
-20 130 -19 0 -20 -7 -20 -130z"/>
<path d="M32790 11540 c0 -123 1 -130 20 -130 19 0 20 7 20 130 0 123 -1 130
-20 130 -19 0 -20 -7 -20 -130z"/>
<path d="M33360 11540 c0 -123 1 -130 20 -130 19 0 20 7 20 130 0 123 -1 130
-20 130 -19 0 -20 -7 -20 -130z"/>
<path d="M34430 11570 c27 -55 50 -107 50 -116 0 -9 -18 -54 -40 -101 -22 -47
-40 -88 -40 -90 0 -2 12 -3 26 -1 21 2 31 15 54 68 15 36 55 127 88 203 59
132 60 137 38 137 -24 0 -27 -6 -83 -139 l-14 -33 -41 86 c-35 72 -45 86 -65
86 -23 0 -22 -3 27 -100z"/>
<path d="M34840 11540 c0 -123 1 -130 20 -130 19 0 20 7 20 130 0 123 -1 130
-20 130 -19 0 -20 -7 -20 -130z"/>
<path d="M35330 11540 c0 -123 1 -130 20 -130 19 0 20 7 20 130 0 123 -1 130
-20 130 -19 0 -20 -7 -20 -130z"/>
<path d="M3720 10993 l0 -116 -24 22 c-15 15 -41 25 -68 28 -134 13 -189 -177
-73 -253 36 -24 100 -22 136 5 29 21 29 21 29 1 0 -13 7 -20 20 -20 19 0 20 7
20 225 0 218 -1 225 -20 225 -19 0 -20 -7 -20 -117z m-38 -132 c67 -60 29
-161 -61 -161 -91 0 -122 131 -42 175 40 22 67 18 103 -14z"/>
<path d="M5280 10993 l0 -116 -24 22 c-15 15 -41 25 -68 28 -134 13 -189 -177
-73 -253 36 -24 100 -22 136 5 29 21 29 21 29 1 0 -13 7 -20 20 -20 19 0 20 7
20 225 0 218 -1 225 -20 225 -19 0 -20 -7 -20 -117z m-38 -132 c67 -60 29
-161 -61 -161 -91 0 -122 131 -42 175 40 22 67 18 103 -14z"/>
<path d="M6660 10885 c0 -218 1 -225 20 -225 19 0 20 7 20 225 0 218 -1 225
-20 225 -19 0 -20 -7 -20 -225z"/>
<path d="M8480 10885 c0 -218 1 -225 20 -225 18 0 20 7 20 73 0 86 21 136 63
150 20 7 34 5 52 -7 24 -16 25 -21 25 -116 0 -93 1 -100 20 -100 19 0 20 7 20
106 0 103 -1 106 -29 135 -35 35 -72 37 -118 9 l-33 -20 0 110 c0 103 -1 110
-20 110 -19 0 -20 -7 -20 -225z"/>
<path d="M7560 10975 l0 -55 -35 0 c-24 0 -35 -5 -35 -15 0 -10 11 -15 35 -15
l35 0 0 -115 c0 -108 1 -115 20 -115 18 0 20 8 22 113 l3 112 33 3 c19 2 32 9
32 17 0 8 -13 15 -32 17 -32 3 -33 4 -36 56 -3 44 -6 52 -23 52 -16 0 -19 -7
-19 -55z"/>
<path d="M8318 10978 c-3 -52 -4 -53 -35 -56 -20 -2 -33 -9 -33 -17 0 -8 13
-15 33 -17 l32 -3 3 -112 c2 -105 4 -113 22 -113 19 0 20 7 20 115 l0 115 30
0 c20 0 30 5 30 15 0 10 -10 15 -29 15 -29 0 -30 2 -33 52 -2 40 -7 54 -20 56
-14 3 -17 -6 -20 -50z"/>
<path d="M10930 10975 l0 -55 -35 0 c-24 0 -35 -5 -35 -15 0 -10 11 -15 35
-15 l35 0 0 -115 c0 -108 1 -115 20 -115 18 0 20 8 22 113 l3 112 33 3 c19 2
32 9 32 17 0 8 -13 15 -32 17 -32 3 -33 4 -36 56 -3 44 -6 52 -23 52 -16 0
-19 -7 -19 -55z"/>
<path d="M4417 11006 c-6 -15 11 -36 29 -36 14 0 27 28 18 41 -8 14 -41 11
-47 -5z"/>
<path d="M6793 11004 c-3 -8 -1 -20 5 -26 16 -16 42 -2 42 22 0 24 -38 28 -47
4z"/>
<path d="M7394 11005 c-4 -9 -2 -21 4 -27 15 -15 44 -1 40 19 -4 23 -36 29
-44 8z"/>
<path d="M2263 10915 c-123 -53 -80 -255 54 -255 84 0 143 56 143 135 0 100
-102 162 -197 120z m107 -40 c59 -30 68 -98 21 -146 -76 -76 -202 16 -151 111
12 23 57 49 83 50 10 0 31 -7 47 -15z"/>
<path d="M2606 10909 c-21 -17 -26 -18 -26 -5 0 9 -8 16 -20 16 -19 0 -20 -7
-20 -130 0 -123 1 -130 20 -130 18 0 20 7 20 84 0 74 3 88 23 110 28 32 66 41
92 22 17 -12 20 -28 23 -115 4 -91 6 -101 23 -101 17 0 19 8 19 95 0 67 -5
105 -15 126 -27 50 -93 64 -139 28z"/>
<path d="M3053 10910 c-45 -27 -65 -62 -65 -113 0 -53 23 -100 58 -123 35 -24
99 -21 135 5 29 21 29 21 29 1 0 -13 7 -20 20 -20 19 0 20 7 20 130 0 123 -1
130 -20 130 -11 0 -20 -7 -20 -15 0 -12 -6 -11 -32 5 -42 25 -84 25 -125 0z
m135 -56 c53 -60 11 -154 -70 -154 -53 0 -88 35 -88 87 0 92 99 134 158 67z"/>
<path d="M3915 10920 c-37 -15 -76 -66 -82 -107 -11 -86 49 -153 139 -153 39
0 54 6 83 31 19 17 35 35 35 40 0 16 -41 9 -67 -11 -14 -11 -40 -20 -58 -20
-38 0 -85 33 -85 61 0 18 8 19 115 19 l115 0 -6 33 c-17 88 -109 141 -189 107z
m123 -65 c12 -14 22 -30 22 -36 0 -5 -40 -9 -90 -9 -102 0 -112 10 -58 55 26
22 39 26 67 21 21 -3 45 -16 59 -31z"/>
<path d="M4192 10915 c-50 -37 -47 -104 7 -123 14 -6 44 -16 66 -24 42 -15 55
-39 35 -63 -18 -22 -74 -19 -95 5 -20 23 -55 27 -55 7 0 -21 43 -56 77 -63 35
-7 95 10 113 31 17 21 15 74 -3 93 -10 9 -43 25 -75 37 -49 17 -57 24 -57 45
0 21 5 25 36 28 23 2 40 -2 49 -12 15 -20 50 -21 50 -3 0 44 -105 73 -148 42z"/>
<path d="M4620 10910 c-16 -16 -20 -17 -20 -5 0 8 -9 15 -20 15 -19 0 -20 -7
-20 -130 0 -123 1 -130 20 -130 18 0 20 7 20 80 0 43 5 91 12 105 12 26 48 42
67 30 7 -4 11 5 11 24 0 26 -4 31 -25 31 -14 0 -34 -9 -45 -20z"/>
<path d="M4793 10910 c-123 -74 -75 -250 68 -250 44 0 81 17 107 48 28 36 -6
45 -48 12 -36 -28 -91 -26 -124 5 -51 47 -39 55 90 55 l117 0 -7 32 c-13 67
-72 118 -136 118 -19 0 -49 -9 -67 -20z m128 -49 c16 -16 29 -34 29 -40 0 -7
-32 -11 -90 -11 -58 0 -90 4 -90 11 0 24 59 69 90 69 22 0 41 -9 61 -29z"/>
<path d="M5623 10910 c-98 -59 -76 -219 34 -249 39 -11 68 -5 107 22 l29 21
-7 -50 c-9 -66 -41 -99 -97 -99 -35 0 -46 6 -69 33 -46 56 -83 34 -38 -23 44
-56 123 -70 179 -32 59 39 69 73 69 240 0 140 -1 147 -20 147 -11 0 -20 -7
-20 -15 0 -19 -3 -19 -42 5 -42 25 -84 25 -125 0z m125 -45 c36 -30 45 -69 27
-112 -26 -62 -106 -74 -149 -22 -41 48 -29 115 25 145 36 20 64 17 97 -11z"/>
<path d="M5964 10912 c-83 -53 -83 -183 1 -238 36 -24 100 -22 136 5 29 21 29
21 29 1 0 -13 7 -20 20 -20 19 0 20 7 20 130 0 123 -1 130 -20 130 -14 0 -20
-7 -20 -22 l0 -21 -24 22 c-34 32 -101 38 -142 13z m128 -51 c67 -60 29 -161
-61 -161 -91 0 -122 131 -42 175 40 22 67 18 103 -14z"/>
<path d="M6285 10918 c-30 -16 -45 -39 -45 -68 0 -34 22 -53 87 -74 63 -21 79
-37 63 -65 -15 -29 -84 -30 -102 -1 -7 11 -23 20 -35 20 -19 0 -21 -3 -14 -22
9 -27 65 -58 102 -58 43 0 94 41 97 77 4 41 -23 69 -82 84 -56 14 -85 42 -66
64 16 20 79 20 86 0 5 -13 54 -23 54 -11 0 49 -92 83 -145 54z"/>
<path d="M6937 10923 c-4 -3 -7 -64 -7 -135 0 -121 1 -128 20 -128 18 0 20 7
20 63 0 120 38 182 98 161 26 -9 27 -11 32 -114 5 -100 6 -105 28 -108 21 -3
22 -1 22 92 0 85 2 97 22 116 12 11 32 20 44 20 40 0 54 -35 54 -137 0 -88 1
-93 21 -93 20 0 21 4 17 111 -3 107 -4 112 -31 135 -37 32 -87 32 -117 1 l-23
-23 -23 23 c-29 29 -82 30 -118 2 l-26 -20 0 20 c0 20 -19 28 -33 14z"/>
<path d="M8843 10915 c-67 -29 -94 -126 -53 -192 25 -42 68 -63 126 -63 40 0
51 5 83 37 34 36 35 38 13 41 -12 2 -34 -6 -48 -17 -40 -31 -89 -28 -125 9
-17 16 -28 34 -24 40 4 6 53 10 116 10 l109 0 0 28 c0 61 -69 123 -137 122
-15 -1 -43 -7 -60 -15z m106 -39 c15 -8 32 -26 39 -40 l12 -26 -95 0 -95 0 12
26 c13 27 51 53 81 54 10 0 30 -6 46 -14z"/>
<path d="M9331 10913 c-46 -23 -71 -67 -71 -125 0 -86 83 -149 166 -126 40 11
84 49 84 73 0 19 -36 20 -47 1 -26 -43 -94 -47 -134 -7 -78 79 22 198 116 137
14 -9 25 -21 25 -26 0 -6 11 -10 25 -10 14 0 25 4 25 9 0 18 -45 64 -76 77
-43 18 -71 17 -113 -3z"/>
<path d="M9957 10910 c-22 -18 -27 -19 -27 -6 0 9 -8 16 -20 16 -19 0 -20 -7
-20 -130 0 -120 1 -130 19 -130 16 0 19 10 23 84 5 104 24 140 69 134 27 -4
30 -2 27 21 -4 34 -36 39 -71 11z"/>
<path d="M10147 10910 c-22 -18 -27 -19 -27 -6 0 9 -8 16 -20 16 -19 0 -20 -7
-20 -130 0 -121 1 -130 19 -130 17 0 19 9 23 89 3 101 20 131 70 131 25 0 29
4 26 23 -4 30 -37 33 -71 7z"/>
<path d="M10323 10915 c-67 -29 -94 -126 -53 -192 25 -42 68 -63 126 -63 40 0
51 5 83 37 34 36 35 38 13 41 -12 2 -34 -6 -48 -17 -40 -31 -89 -28 -125 9
-17 16 -28 34 -24 40 4 6 53 10 116 10 l109 0 0 28 c0 61 -69 123 -137 122
-15 -1 -43 -7 -60 -15z m106 -39 c15 -8 32 -26 39 -40 l12 -26 -95 0 -95 0 12
26 c13 27 51 53 81 54 10 0 30 -6 46 -14z"/>
<path d="M10667 10910 c-30 -24 -37 -25 -37 -5 0 8 -9 15 -20 15 -19 0 -20 -7
-20 -130 0 -123 1 -130 20 -130 17 0 20 7 20 53 1 105 37 177 90 177 40 0 50
-26 50 -131 0 -99 0 -99 25 -99 25 0 25 1 25 89 0 106 -12 147 -51 166 -39 20
-72 19 -102 -5z"/>
<path d="M4420 10790 c0 -123 1 -130 20 -130 19 0 20 7 20 130 0 123 -1 130
-20 130 -19 0 -20 -7 -20 -130z"/>
<path d="M6800 10790 c0 -123 1 -130 20 -130 19 0 20 7 20 130 0 123 -1 130
-20 130 -19 0 -20 -7 -20 -130z"/>
<path d="M7390 10790 c0 -123 1 -130 20 -130 19 0 20 7 20 130 0 123 -1 130
-20 130 -19 0 -20 -7 -20 -130z"/>
<path d="M9590 10815 c0 -99 2 -107 25 -130 35 -36 95 -37 133 -2 l22 20 0
-21 c0 -15 6 -22 20 -22 19 0 20 7 20 130 0 123 -1 130 -20 130 -18 0 -20 -7
-20 -69 0 -113 -22 -151 -89 -151 -42 0 -51 22 -51 129 0 84 -1 91 -20 91 -19
0 -20 -7 -20 -105z"/>
<path d="M15748 10858 c-3 -52 -4 -53 -35 -56 -20 -2 -33 -9 -33 -17 0 -8 13
-15 33 -17 l32 -3 3 -112 c2 -105 4 -113 22 -113 19 0 20 7 20 115 l0 115 30
0 c20 0 30 5 30 15 0 10 -10 15 -29 15 -29 0 -30 2 -33 52 -2 40 -7 54 -20 56
-14 3 -17 -6 -20 -50z"/>
<path d="M14604 10885 c-4 -9 -2 -21 4 -27 15 -15 44 -1 40 19 -4 23 -36 29
-44 8z"/>
<path d="M27720 10675 c0 -212 1 -225 19 -225 16 0 19 11 24 83 7 100 12 114
48 132 70 37 89 12 89 -116 0 -99 0 -99 25 -99 25 0 25 1 25 89 0 106 -12 147
-51 166 -39 20 -72 19 -102 -5 -14 -11 -28 -20 -31 -20 -3 0 -6 50 -6 110 0
103 -1 110 -20 110 -19 0 -20 -7 -20 -225z"/>
<path d="M30800 10675 c0 -218 1 -225 20 -225 19 0 20 7 20 225 0 218 -1 225
-20 225 -19 0 -20 -7 -20 -225z"/>
<path d="M31186 10843 c36 -90 47 -158 41 -268 -4 -88 -20 -163 -52 -237 -5
-14 -2 -18 13 -18 45 0 88 187 79 334 -9 132 -49 246 -86 246 -18 0 -17 -3 5
-57z"/>
<path d="M35420 10675 c0 -218 1 -225 20 -225 13 0 20 7 20 20 0 20 0 20 29
-1 36 -27 97 -29 135 -4 80 53 73 195 -13 240 -40 20 -79 19 -118 -5 l-33 -20
0 110 c0 103 -1 110 -20 110 -19 0 -20 -7 -20 -225z m198 -31 c32 -36 30 -93
-4 -128 -58 -58 -154 -18 -154 63 0 91 99 132 158 65z"/>
<path d="M34445 10860 c-68 -15 -134 -69 -157 -129 -16 -43 -11 -126 10 -167
39 -75 102 -114 187 -114 84 0 148 39 186 112 38 74 33 78 -87 78 -95 0 -105
-2 -102 -17 3 -15 16 -18 81 -21 42 -2 77 -7 77 -12 0 -15 -52 -70 -81 -85
-44 -23 -120 -19 -160 8 -53 36 -79 82 -79 142 0 162 204 227 301 96 13 -17
31 -31 41 -31 22 0 22 3 4 38 -38 73 -140 120 -221 102z"/>
<path d="M27190 10655 l0 -205 120 0 c113 0 120 1 120 20 0 19 -7 20 -100 20
l-100 0 0 70 0 70 100 0 c93 0 100 1 100 20 0 18 -8 20 -97 22 l-98 3 0 70 0
70 98 3 c89 2 97 4 97 22 0 19 -7 20 -120 20 l-120 0 0 -205z"/>
<path d="M33960 10655 l0 -205 120 0 c113 0 120 1 120 20 0 19 -7 20 -100 20
l-100 0 0 70 0 69 97 3 c83 3 98 6 101 20 3 15 -8 18 -95 20 l-98 3 -3 73 -3
72 101 0 c93 0 100 1 100 20 0 19 -7 20 -120 20 l-120 0 0 -205z"/>
<path d="M34770 10655 l0 -205 95 0 c88 0 95 1 95 20 0 18 -7 20 -75 20 l-75
0 0 185 c0 178 -1 185 -20 185 -19 0 -20 -7 -20 -205z"/>
<path d="M27558 10768 c-3 -52 -4 -53 -35 -56 -20 -2 -33 -9 -33 -17 0 -8 13
-15 33 -17 l32 -3 3 -112 c2 -105 4 -113 22 -113 19 0 20 7 20 115 l0 115 35
0 c24 0 35 5 35 15 0 10 -11 15 -35 15 l-35 0 0 55 c0 48 -3 55 -19 55 -17 0
-20 -8 -23 -52z"/>
<path d="M14765 10798 c-30 -16 -45 -39 -45 -68 0 -34 22 -53 87 -74 63 -21
79 -37 63 -65 -15 -29 -84 -30 -102 -1 -7 11 -23 20 -35 20 -19 0 -21 -3 -14
-22 9 -27 65 -58 102 -58 43 0 94 41 97 77 4 41 -23 69 -82 84 -56 14 -85 42
-66 64 16 20 79 20 86 0 5 -13 54 -23 54 -11 0 49 -92 83 -145 54z"/>
<path d="M15162 10795 c-50 -37 -47 -104 7 -123 14 -6 44 -16 66 -24 42 -15
55 -39 35 -63 -18 -22 -74 -19 -95 5 -20 23 -55 27 -55 7 0 -21 43 -56 77 -63
35 -7 95 10 113 31 17 21 15 74 -3 93 -10 9 -43 25 -75 37 -49 17 -57 24 -57
45 0 21 5 25 36 28 23 2 40 -2 49 -12 15 -20 50 -21 50 -3 0 44 -105 73 -148
42z"/>
<path d="M15443 10795 c-67 -29 -94 -126 -53 -192 25 -42 68 -63 126 -63 40 0
51 5 83 37 34 36 35 38 13 41 -12 2 -34 -6 -48 -17 -40 -31 -89 -28 -125 9
-17 16 -28 34 -24 40 4 6 53 10 116 10 l109 0 0 28 c0 61 -69 123 -137 122
-15 -1 -43 -7 -60 -15z m106 -39 c15 -8 32 -26 39 -40 l12 -26 -95 0 -95 0 12
26 c13 27 51 53 81 54 10 0 30 -6 46 -14z"/>
<path d="M7860 10785 c0 -12 18 -15 100 -15 82 0 100 3 100 15 0 12 -18 15
-100 15 -82 0 -100 -3 -100 -15z"/>
<path d="M14610 10670 c0 -123 1 -130 20 -130 19 0 20 7 20 130 0 123 -1 130
-20 130 -19 0 -20 -7 -20 -130z"/>
<path d="M28095 10710 c-37 -15 -76 -66 -82 -107 -11 -86 49 -153 139 -153 39
0 54 6 83 31 19 17 35 35 35 40 0 16 -41 9 -67 -11 -14 -11 -40 -20 -58 -20
-38 0 -85 33 -85 61 0 18 8 19 115 19 l115 0 -6 33 c-17 88 -109 141 -189 107z
m123 -65 c12 -14 22 -30 22 -36 0 -5 -40 -9 -90 -9 -102 0 -112 10 -58 55 26
22 39 26 67 21 21 -3 45 -16 59 -31z"/>
<path d="M28420 10700 c-16 -16 -20 -17 -20 -5 0 8 -9 15 -20 15 -19 0 -20 -7
-20 -130 0 -123 1 -130 20 -130 18 0 20 7 20 80 0 43 5 91 12 105 12 26 48 42
67 30 7 -4 11 5 11 24 0 26 -4 31 -25 31 -14 0 -34 -9 -45 -20z"/>
<path d="M28593 10700 c-123 -74 -75 -250 68 -250 44 0 81 17 107 48 28 36 -6
45 -48 12 -36 -28 -91 -26 -124 5 -51 47 -39 55 90 55 l117 0 -7 32 c-13 67
-72 118 -136 118 -19 0 -49 -9 -67 -20z m128 -49 c16 -16 29 -34 29 -40 0 -7
-32 -11 -90 -11 -58 0 -90 4 -90 11 0 24 59 69 90 69 22 0 41 -9 61 -29z"/>
<path d="M29177 10713 c-4 -3 -7 -64 -7 -135 0 -121 1 -128 20 -128 18 0 20 7
20 63 0 120 38 182 98 161 26 -9 27 -11 32 -114 5 -100 6 -105 28 -108 21 -3
22 -1 22 92 0 85 2 97 22 116 12 11 32 20 44 20 40 0 54 -35 54 -137 0 -88 1
-93 21 -93 20 0 21 4 17 111 -3 107 -4 112 -31 135 -37 32 -87 32 -117 1 l-23
-23 -23 23 c-29 29 -82 30 -118 2 l-26 -20 0 20 c0 20 -19 28 -33 14z"/>
<path d="M29872 10700 c-39 -24 -42 -24 -42 -5 0 8 -9 15 -20 15 -19 0 -20 -7
-20 -205 0 -198 1 -205 20 -205 19 0 20 7 20 96 l0 95 28 -19 c37 -26 66 -32
105 -21 110 30 132 190 34 249 -41 25 -83 25 -125 0z m97 -34 c54 -28 66 -97
25 -145 -21 -25 -33 -31 -65 -31 -88 0 -124 101 -58 163 33 30 57 34 98 13z"/>
<path d="M30193 10705 c-123 -53 -80 -255 54 -255 84 0 143 56 143 135 0 100
-102 162 -197 120z m107 -40 c59 -30 68 -98 21 -146 -76 -76 -202 16 -151 111
12 23 57 49 83 50 10 0 31 -7 47 -15z"/>
<path d="M30523 10705 c-123 -53 -80 -255 54 -255 84 0 143 56 143 135 0 100
-102 162 -197 120z m107 -40 c59 -30 68 -98 21 -146 -76 -76 -202 16 -151 111
12 23 57 49 83 50 10 0 31 -7 47 -15z"/>
<path d="M30943 10700 c-27 -16 -33 -26 -33 -54 0 -41 15 -55 89 -81 44 -16
57 -25 59 -44 4 -29 -12 -41 -55 -41 -22 0 -37 7 -45 20 -13 20 -58 28 -58 11
0 -6 10 -22 23 -36 64 -75 219 -8 179 79 -8 17 -28 30 -76 46 -72 24 -80 31
-71 60 8 25 60 27 86 4 9 -8 28 -14 41 -12 23 3 23 3 -9 36 -37 38 -81 42
-130 12z"/>
<path d="M31571 10703 c-46 -23 -71 -67 -71 -125 0 -86 83 -149 166 -126 40
11 84 49 84 73 0 19 -36 20 -47 1 -26 -43 -94 -47 -134 -7 -78 79 22 198 116
137 14 -9 25 -21 25 -26 0 -6 11 -10 25 -10 14 0 25 4 25 9 0 18 -45 64 -76
77 -43 18 -71 17 -113 -3z"/>
<path d="M31874 10702 c-83 -53 -83 -183 1 -238 36 -24 100 -22 136 5 29 21
29 21 29 1 0 -13 7 -20 20 -20 19 0 20 7 20 130 0 123 -1 130 -20 130 -14 0
-20 -7 -20 -22 l0 -21 -24 22 c-34 32 -101 38 -142 13z m128 -51 c67 -60 29
-161 -61 -161 -91 0 -122 131 -42 175 40 22 67 18 103 -14z"/>
<path d="M32243 10700 c-27 -16 -33 -17 -33 -5 0 8 -9 15 -20 15 -19 0 -20 -7
-20 -130 0 -123 1 -130 20 -130 18 0 20 7 20 70 0 88 17 132 59 149 26 12 34
11 56 -3 24 -16 25 -21 25 -116 0 -93 1 -100 20 -100 19 0 20 7 20 106 0 103
-1 106 -29 135 -35 35 -72 37 -118 9z"/>
<path d="M32705 10710 c-37 -15 -76 -66 -82 -107 -11 -86 49 -153 139 -153 39
0 54 6 83 31 19 17 35 35 35 40 0 16 -41 9 -67 -11 -14 -11 -40 -20 -58 -20
-38 0 -85 33 -85 61 0 18 8 19 115 19 l115 0 -6 33 c-17 88 -109 141 -189 107z
m123 -65 c12 -14 22 -30 22 -36 0 -5 -40 -9 -90 -9 -102 0 -112 10 -58 55 26
22 39 26 67 21 21 -3 45 -16 59 -31z"/>
<path d="M33013 10700 c-45 -27 -65 -62 -65 -113 0 -53 23 -100 58 -123 35
-24 99 -21 135 5 29 21 29 21 29 1 0 -13 7 -20 20 -20 19 0 20 7 20 130 0 123
-1 130 -20 130 -11 0 -20 -7 -20 -15 0 -12 -6 -11 -32 5 -42 25 -84 25 -125 0z
m135 -56 c53 -60 11 -154 -70 -154 -53 0 -88 35 -88 87 0 92 99 134 158 67z"/>
<path d="M33370 10700 c-16 -16 -20 -17 -20 -5 0 8 -9 15 -20 15 -19 0 -20 -7
-20 -130 0 -123 1 -130 20 -130 18 0 20 7 20 80 0 43 5 91 12 105 12 26 48 42
67 30 7 -4 11 5 11 24 0 26 -4 31 -25 31 -14 0 -34 -9 -45 -20z"/>
<path d="M33567 10700 c-30 -24 -37 -25 -37 -5 0 8 -9 15 -20 15 -19 0 -20 -7
-20 -130 0 -123 1 -130 20 -130 17 0 20 7 20 53 1 105 37 177 90 177 40 0 50
-26 50 -131 0 -99 0 -99 25 -99 25 0 25 1 25 89 0 106 -12 147 -51 166 -39 20
-72 19 -102 -5z"/>
<path d="M35033 10709 c-12 -6 -27 -25 -34 -41 -18 -44 0 -72 58 -93 64 -22
75 -28 87 -47 26 -42 -67 -68 -101 -28 -18 21 -53 27 -53 9 0 -63 128 -91 181
-38 24 24 25 80 2 102 -10 8 -40 22 -67 29 -53 16 -73 35 -63 62 8 21 75 22
83 1 6 -16 54 -21 54 -6 0 5 -8 19 -18 31 -21 26 -94 36 -129 19z"/>
<path d="M28870 10605 c0 -99 2 -107 25 -130 35 -36 95 -37 133 -2 l22 20 0
-21 c0 -15 6 -22 20 -22 19 0 20 7 20 130 0 123 -1 130 -20 130 -18 0 -20 -7
-20 -69 0 -113 -22 -151 -89 -151 -42 0 -51 22 -51 129 0 84 -1 91 -20 91 -19
0 -20 -7 -20 -105z"/>
<path d="M35775 10601 l54 -109 -43 -94 c-41 -87 -43 -93 -24 -96 11 -2 24 0
28 5 6 6 137 295 177 391 3 8 -4 12 -19 12 -21 0 -29 -11 -57 -80 -19 -44 -37
-80 -41 -80 -4 0 -24 36 -44 80 -31 69 -40 80 -61 80 -25 0 -25 -1 30 -109z"/>
<path d="M15922 10588 c-30 -30 9 -69 44 -43 15 11 17 17 8 32 -14 23 -36 27
-52 11z"/>
<path d="M3300 9925 c0 -218 1 -225 20 -225 19 0 20 7 20 225 0 218 -1 225
-20 225 -19 0 -20 -7 -20 -225z"/>
<path d="M7461 10098 c-34 -86 -44 -154 -39 -272 6 -140 39 -249 77 -254 20
-3 23 -1 16 15 -79 188 -79 351 0 546 5 13 2 17 -13 17 -14 0 -25 -14 -41 -52z"/>
<path d="M8276 10093 c36 -90 47 -158 41 -268 -4 -88 -20 -163 -52 -237 -5
-14 -2 -18 13 -18 45 0 88 187 79 334 -9 132 -49 246 -86 246 -18 0 -17 -3 5
-57z"/>
<path d="M4798 10103 c-28 -7 -21 -31 10 -35 l27 -3 3 -182 c2 -175 3 -183 22
-183 19 0 20 7 20 205 l0 205 -32 -1 c-18 -1 -41 -3 -50 -6z"/>
<path d="M5168 10095 c-43 -24 -72 -98 -73 -185 0 -138 46 -210 135 -210 88 0
135 72 135 205 -1 83 -16 133 -55 175 -23 25 -36 30 -72 30 -23 -1 -55 -7 -70
-15z m112 -55 c30 -32 40 -67 40 -139 0 -95 -38 -161 -92 -161 -57 0 -90 59
-90 160 -1 141 73 214 142 140z"/>
<path d="M5485 10077 c-43 -43 -58 -102 -53 -198 7 -115 55 -181 133 -181 78
0 126 66 133 181 5 96 -10 155 -53 198 -28 28 -40 33 -80 33 -40 0 -52 -5 -80
-33z m122 -29 c45 -50 60 -120 43 -202 -35 -170 -180 -127 -180 54 0 130 77
213 137 148z"/>
<path d="M5831 10085 c-46 -39 -64 -98 -59 -197 6 -132 48 -190 136 -190 43 0
79 26 106 78 31 58 30 202 -1 261 -29 54 -58 73 -109 73 -31 0 -51 -7 -73 -25z
m112 -35 c51 -40 65 -170 28 -255 -21 -48 -49 -63 -97 -51 -75 19 -89 249 -17
306 32 25 53 25 86 0z"/>
<path d="M6312 10094 c-80 -56 -95 -260 -26 -351 43 -56 123 -62 173 -13 75
76 72 282 -6 350 -39 35 -103 41 -141 14z m113 -48 c59 -59 59 -221 -1 -287
-13 -14 -28 -19 -53 -17 -46 4 -77 49 -86 123 -19 145 66 255 140 181z"/>
<path d="M6641 10085 c-46 -39 -64 -98 -59 -197 6 -132 48 -190 136 -190 43 0
79 26 106 78 31 58 30 202 -1 261 -29 54 -58 73 -109 73 -31 0 -51 -7 -73 -25z
m112 -35 c51 -40 65 -170 28 -255 -21 -48 -49 -63 -97 -51 -75 19 -89 249 -17
306 32 25 53 25 86 0z"/>
<path d="M6988 10095 c-43 -24 -72 -98 -73 -185 0 -138 46 -210 135 -210 88 0
135 72 135 205 -1 83 -16 133 -55 175 -23 25 -36 30 -72 30 -23 -1 -55 -7 -70
-15z m112 -55 c30 -32 40 -67 40 -139 0 -95 -38 -161 -92 -161 -57 0 -90 59
-90 160 -1 141 73 214 142 140z"/>
<path d="M4197 10063 c-4 -3 -7 -28 -7 -55 0 -47 -1 -48 -30 -48 -20 0 -30 -5
-30 -15 0 -10 10 -15 30 -15 l30 0 0 -115 c0 -108 1 -115 20 -115 18 0 20 8
22 113 l3 112 33 3 c19 2 32 9 32 17 0 8 -13 15 -32 17 -32 3 -33 4 -36 56 -3
49 -16 65 -35 45z"/>
<path d="M3427 10046 c-6 -15 11 -36 29 -36 14 0 27 28 18 41 -8 14 -41 11
-47 -5z"/>
<path d="M4024 10045 c-4 -9 -2 -21 4 -27 15 -15 44 -1 40 19 -4 23 -36 29
-44 8z"/>
<path d="M2262 9954 c-66 -34 -90 -134 -48 -199 39 -60 122 -77 177 -36 l29
22 0 -36 c0 -49 -23 -90 -59 -105 -40 -16 -77 -6 -112 31 -25 27 -59 39 -59
22 0 -23 43 -72 75 -87 55 -27 109 -17 154 28 l36 36 3 165 c3 161 3 165 -17
165 -12 0 -21 -7 -21 -15 0 -19 -9 -19 -31 1 -26 24 -88 27 -127 8z m101 -35
c89 -41 59 -179 -39 -179 -51 0 -89 38 -89 90 0 35 6 47 33 71 35 31 57 35 95
18z"/>
<path d="M2614 9961 c-32 -14 -72 -68 -80 -106 -22 -120 120 -208 207 -129 18
16 19 16 19 -4 0 -15 6 -22 20 -22 19 0 20 7 20 130 0 123 -1 130 -20 130 -14
0 -20 -7 -20 -22 l0 -21 -24 22 c-26 25 -89 36 -122 22z m95 -45 c54 -28 66
-97 25 -145 -43 -52 -123 -40 -149 22 -18 43 -9 82 27 112 34 29 57 31 97 11z"/>
<path d="M2913 9959 c-12 -6 -27 -25 -34 -41 -18 -44 0 -72 58 -93 64 -22 75
-28 87 -47 26 -42 -67 -68 -101 -28 -18 21 -53 27 -53 9 0 -63 128 -91 181
-38 24 24 25 80 2 102 -10 8 -40 22 -67 29 -53 16 -73 35 -63 62 8 21 75 22
83 1 6 -16 54 -21 54 -6 0 5 -8 19 -18 31 -21 26 -94 36 -129 19z"/>
<path d="M3570 9835 c0 -128 1 -135 20 -135 18 0 20 7 20 81 0 103 23 148 77
149 39 0 53 -35 53 -137 0 -86 1 -93 20 -93 19 0 20 7 20 94 0 90 1 96 26 115
64 51 94 14 94 -116 0 -86 1 -93 20 -93 19 0 20 7 20 106 0 103 -1 106 -29
135 -35 35 -77 38 -115 8 l-26 -20 -26 20 c-34 26 -84 27 -111 2 -21 -20 -21
-20 -26 0 -3 10 -12 19 -21 19 -14 0 -16 -18 -16 -135z"/>
<path d="M7993 9950 c-27 -16 -33 -17 -33 -5 0 8 -9 15 -20 15 -19 0 -20 -7
-20 -205 0 -198 1 -205 20 -205 19 0 20 7 20 95 l0 96 29 -22 c36 -27 97 -29
135 -4 80 53 73 195 -13 240 -40 20 -79 19 -118 -5z m125 -56 c32 -36 30 -93
-4 -128 -58 -58 -154 -18 -154 63 0 91 99 132 158 65z"/>
<path d="M3430 9830 c0 -123 1 -130 20 -130 19 0 20 7 20 130 0 123 -1 130
-20 130 -19 0 -20 -7 -20 -130z"/>
<path d="M4030 9830 c0 -123 1 -130 20 -130 19 0 20 7 20 130 0 123 -1 130
-20 130 -19 0 -20 -7 -20 -130z"/>
<path d="M7610 9865 c0 -114 14 -150 63 -163 38 -10 87 1 105 25 11 15 12 15
12 -5 0 -15 6 -22 20 -22 19 0 20 7 20 130 0 121 -1 130 -19 130 -17 0 -19 -9
-23 -91 -3 -81 -6 -93 -27 -110 -13 -10 -39 -19 -57 -19 -45 0 -54 24 -54 136
0 77 -2 84 -20 84 -19 0 -20 -7 -20 -95z"/>
<path d="M4600 9900 l0 -50 -50 0 c-37 0 -50 -4 -50 -14 0 -11 14 -16 48 -18
l47 -3 3 -47 c2 -34 7 -48 18 -48 10 0 14 13 14 50 l0 50 50 0 c38 0 50 4 50
15 0 11 -12 15 -50 15 l-50 0 0 50 c0 38 -4 50 -15 50 -11 0 -15 -12 -15 -50z"/>
<path d="M29550 9715 c0 -218 1 -225 20 -225 14 0 20 7 20 22 0 20 1 20 19 4
48 -44 131 -37 174 14 95 112 -25 278 -153 211 l-40 -21 0 110 c0 103 -1 110
-20 110 -19 0 -20 -7 -20 -225z m197 -28 c35 -36 34 -97 -2 -132 -37 -38 -95
-35 -129 6 -77 91 47 212 131 126z"/>
<path d="M29890 9715 c0 -218 1 -225 20 -225 19 0 20 7 20 225 0 218 -1 225
-20 225 -19 0 -20 -7 -20 -225z"/>
<path d="M30660 9715 c0 -217 1 -225 20 -225 16 0 19 8 22 62 l3 62 50 -61
c39 -49 56 -62 78 -62 l29 -1 -34 41 c-18 22 -43 53 -56 68 l-23 28 52 62 51
61 -29 0 c-22 -1 -38 -13 -73 -57 l-45 -56 -3 151 c-2 144 -4 152 -22 152 -19
0 -20 -8 -20 -225z"/>
<path d="M31280 9715 c0 -218 1 -225 20 -225 18 0 20 7 20 86 0 81 1 87 29
115 32 32 57 36 87 15 16 -12 20 -29 22 -115 4 -91 6 -101 23 -101 17 0 19 8
19 95 0 67 -5 105 -15 126 -27 50 -93 64 -139 28 l-26 -20 0 110 c0 104 -1
111 -20 111 -19 0 -20 -7 -20 -225z"/>
<path d="M32339 9921 c-20 -16 -24 -30 -27 -95 -4 -72 -5 -76 -28 -76 -15 0
-24 -6 -24 -15 0 -9 9 -15 25 -15 l25 0 0 -115 c0 -108 1 -115 20 -115 18 0
20 8 22 113 l3 112 33 3 c19 2 32 9 32 17 0 8 -13 15 -32 17 -33 3 -33 4 -36
61 -3 65 8 87 44 87 17 0 24 6 24 20 0 27 -49 27 -81 1z"/>
<path d="M32820 9715 c0 -218 1 -225 20 -225 19 0 20 7 20 225 0 218 -1 225
-20 225 -19 0 -20 -7 -20 -225z"/>
<path d="M32950 9715 c0 -218 1 -225 20 -225 19 0 20 7 20 225 0 218 -1 225
-20 225 -19 0 -20 -7 -20 -225z"/>
<path d="M34990 9715 c0 -212 1 -225 19 -225 16 0 19 11 24 83 7 100 12 114
48 132 70 37 89 12 89 -116 0 -99 0 -99 25 -99 25 0 25 1 25 89 0 106 -12 147
-51 166 -39 20 -72 19 -102 -5 -14 -11 -28 -20 -31 -20 -3 0 -6 50 -6 110 0
103 -1 110 -20 110 -19 0 -20 -7 -20 -225z"/>
<path d="M31110 9805 l0 -55 -35 0 c-24 0 -35 -5 -35 -15 0 -10 11 -15 35 -15
l35 0 0 -115 c0 -108 1 -115 20 -115 18 0 20 8 22 113 l3 112 33 3 c19 2 32 9
32 17 0 8 -13 15 -32 17 -32 3 -33 4 -36 56 -3 44 -6 52 -23 52 -16 0 -19 -7
-19 -55z"/>
<path d="M31958 9808 c-3 -52 -4 -53 -35 -56 -20 -2 -33 -9 -33 -17 0 -8 13
-15 33 -17 l32 -3 3 -112 c2 -105 4 -113 22 -113 19 0 20 7 20 115 l0 115 30
0 c20 0 30 5 30 15 0 10 -10 15 -29 15 -29 0 -30 2 -33 52 -2 40 -7 54 -20 56
-14 3 -17 -6 -20 -50z"/>
<path d="M34828 9808 c-3 -52 -4 -53 -35 -56 -20 -2 -33 -9 -33 -17 0 -8 13
-15 33 -17 l32 -3 3 -112 c2 -105 4 -113 22 -113 19 0 20 7 20 115 l0 115 35
0 c24 0 35 5 35 15 0 10 -11 15 -35 15 l-35 0 0 55 c0 48 -3 55 -19 55 -17 0
-20 -8 -23 -52z"/>
<path d="M27654 9835 c-4 -9 -2 -21 4 -27 15 -15 44 -1 40 19 -4 23 -36 29
-44 8z"/>
<path d="M28094 9835 c-4 -9 -2 -21 4 -27 15 -15 44 -1 40 19 -4 23 -36 29
-44 8z"/>
<path d="M33843 9834 c-3 -8 -1 -20 5 -26 16 -16 42 -2 42 22 0 24 -38 28 -47
4z"/>
<path d="M4985 9758 c-2 -7 -11 -41 -18 -75 -19 -82 1 -86 36 -9 41 90 42 96
12 96 -14 0 -28 -6 -30 -12z"/>
<path d="M6121 9709 c-7 -34 -15 -67 -18 -75 -3 -8 1 -14 10 -14 12 0 39 50
74 138 3 8 -5 12 -25 12 -28 0 -30 -3 -41 -61z"/>
<path d="M8450 9718 c-6 -29 -13 -63 -16 -75 -4 -16 -2 -23 8 -23 8 0 27 32
45 75 l32 75 -29 0 c-26 0 -29 -4 -40 -52z"/>
<path d="M27197 9753 c-4 -3 -7 -64 -7 -135 0 -121 1 -128 20 -128 18 0 20 7
20 63 0 120 38 182 98 161 26 -9 27 -11 32 -114 5 -100 6 -105 28 -108 21 -3
22 -1 22 92 0 85 2 97 22 116 12 11 32 20 44 20 40 0 54 -35 54 -137 0 -88 1
-93 21 -93 20 0 21 4 17 111 -3 107 -4 112 -31 135 -37 32 -87 32 -117 1 l-23
-23 -23 23 c-29 29 -82 30 -118 2 l-26 -20 0 20 c0 20 -19 28 -33 14z"/>
<path d="M27880 9753 c-8 -3 -23 -12 -32 -21 -16 -14 -18 -13 -18 1 0 10 -8
17 -20 17 -19 0 -20 -7 -20 -130 0 -123 1 -130 20 -130 18 0 20 7 20 75 0 86
17 131 56 145 35 14 41 13 64 -10 17 -17 20 -33 20 -115 0 -88 1 -95 20 -95
19 0 20 7 20 106 0 103 -1 106 -29 135 -29 28 -63 36 -101 22z"/>
<path d="M28303 9740 c-27 -16 -33 -17 -33 -5 0 8 -9 15 -20 15 -19 0 -20 -7
-20 -130 0 -123 1 -130 20 -130 18 0 20 7 20 70 0 88 17 132 59 149 26 12 34
11 56 -3 24 -16 25 -21 25 -116 0 -93 1 -100 20 -100 19 0 20 7 20 106 0 103
-1 106 -29 135 -35 35 -72 37 -118 9z"/>
<path d="M28592 9744 c-66 -34 -90 -134 -48 -199 39 -60 122 -77 177 -36 l29
22 0 -36 c0 -49 -23 -90 -59 -105 -40 -16 -77 -6 -112 31 -25 27 -59 39 -59
22 0 -23 43 -72 75 -87 55 -27 109 -17 154 28 l36 36 3 165 c3 161 3 165 -17
165 -12 0 -21 -7 -21 -15 0 -19 -9 -19 -31 1 -26 24 -88 27 -127 8z m101 -35
c89 -41 59 -179 -39 -179 -51 0 -89 38 -89 90 0 35 6 47 33 71 35 31 57 35 95
18z"/>
<path d="M29093 9740 c-45 -27 -65 -62 -65 -113 0 -53 23 -100 58 -123 35 -24
99 -21 135 5 29 21 29 21 29 1 0 -13 7 -20 20 -20 19 0 20 7 20 130 0 123 -1
130 -20 130 -11 0 -20 -7 -20 -15 0 -12 -6 -11 -32 5 -42 25 -84 25 -125 0z
m135 -56 c53 -60 11 -154 -70 -154 -53 0 -88 35 -88 87 0 92 99 134 158 67z"/>
<path d="M30073 9740 c-122 -74 -75 -250 67 -250 54 0 92 23 120 73 49 86 -19
197 -120 197 -19 0 -49 -9 -67 -20z m125 -45 c70 -58 32 -165 -58 -165 -61 0
-104 53 -93 114 7 35 57 76 93 76 16 0 42 -11 58 -25z"/>
<path d="M30403 9740 c-85 -51 -95 -168 -20 -224 42 -31 75 -38 119 -25 34 9
88 58 88 80 0 17 -32 9 -62 -16 -64 -54 -148 -17 -148 65 0 85 89 123 151 64
50 -47 81 -21 34 30 -45 49 -108 59 -162 26z"/>
<path d="M31644 9751 c-32 -14 -72 -68 -80 -106 -22 -120 120 -208 207 -129
18 16 19 16 19 -4 0 -15 6 -22 20 -22 19 0 20 7 20 130 0 123 -1 130 -20 130
-14 0 -20 -7 -20 -22 l0 -21 -24 22 c-26 25 -89 36 -122 22z m95 -45 c54 -28
66 -97 25 -145 -43 -52 -123 -40 -149 22 -18 43 -9 82 27 112 34 29 57 31 97
11z"/>
<path d="M32555 9750 c-37 -15 -76 -66 -82 -107 -12 -87 49 -153 141 -153 43
0 53 4 87 39 38 38 45 57 39 121 -7 77 -109 132 -185 100z m123 -65 c34 -40
30 -96 -9 -129 -79 -66 -188 11 -149 105 26 62 113 75 158 24z"/>
<path d="M33133 9740 c-122 -74 -75 -250 67 -250 54 0 92 23 120 73 49 86 -19
197 -120 197 -19 0 -49 -9 -67 -20z m125 -45 c70 -58 32 -165 -58 -165 -61 0
-104 53 -93 114 7 35 57 76 93 76 16 0 42 -11 58 -25z"/>
<path d="M33571 9738 c-40 -104 -65 -164 -71 -171 -4 -4 -23 34 -43 85 -30 81
-38 93 -60 96 -25 3 -25 2 36 -142 34 -79 65 -142 68 -138 3 4 21 47 39 95 18
48 36 90 40 92 4 3 25 -40 46 -95 21 -55 41 -96 45 -92 5 5 58 129 116 270 3
7 -3 12 -18 12 -21 0 -29 -12 -58 -88 -18 -48 -37 -91 -41 -95 -4 -5 -24 37
-45 92 -21 56 -40 101 -42 101 -2 0 -7 -10 -12 -22z"/>
<path d="M34057 9740 c-30 -24 -37 -25 -37 -5 0 8 -9 15 -20 15 -19 0 -20 -7
-20 -130 0 -123 1 -130 20 -130 17 0 20 7 20 53 1 105 37 177 90 177 40 0 50
-26 50 -131 0 -99 0 -99 25 -99 25 0 25 1 25 89 0 106 -12 147 -51 166 -39 20
-72 19 -102 -5z"/>
<path d="M34360 9753 c-31 -11 -71 -58 -80 -95 -34 -125 109 -225 201 -142 18
16 19 15 19 -30 0 -53 -27 -90 -75 -102 -34 -8 -91 17 -100 45 -4 13 -15 21
-30 21 -58 0 27 -98 92 -107 51 -7 109 19 134 61 16 27 19 52 19 189 0 150 -1
157 -20 157 -11 0 -20 -7 -20 -15 0 -12 -6 -12 -37 5 -37 19 -73 24 -103 13z
m83 -44 c60 -31 74 -97 31 -148 -54 -64 -154 -28 -154 56 0 75 64 122 123 92z"/>
<path d="M35365 9750 c-37 -15 -76 -66 -82 -107 -11 -86 49 -153 139 -153 39
0 54 6 83 31 19 17 35 35 35 40 0 16 -41 9 -67 -11 -14 -11 -40 -20 -58 -20
-38 0 -85 33 -85 61 0 18 8 19 115 19 l115 0 -6 33 c-17 88 -109 141 -189 107z
m123 -65 c12 -14 22 -30 22 -36 0 -5 -40 -9 -90 -9 -102 0 -112 10 -58 55 26
22 39 26 67 21 21 -3 45 -16 59 -31z"/>
<path d="M27650 9620 c0 -123 1 -130 20 -130 19 0 20 7 20 130 0 123 -1 130
-20 130 -19 0 -20 -7 -20 -130z"/>
<path d="M28100 9620 c0 -123 1 -130 20 -130 19 0 20 7 20 130 0 123 -1 130
-20 130 -19 0 -20 -7 -20 -130z"/>
<path d="M33850 9620 c0 -123 1 -130 20 -130 19 0 20 7 20 130 0 123 -1 130
-20 130 -19 0 -20 -7 -20 -130z"/>
<path d="M5900 8965 c0 -217 1 -225 20 -225 16 0 19 8 22 61 l3 62 48 -62 c36
-45 55 -61 73 -61 13 0 24 3 24 6 0 4 -22 32 -50 64 -27 32 -50 62 -50 67 0 4
20 31 45 60 25 28 45 54 45 57 0 3 -11 6 -24 6 -18 0 -37 -15 -68 -55 l-43
-55 -3 150 c-2 142 -4 150 -22 150 -19 0 -20 -8 -20 -225z"/>
<path d="M8000 8965 c0 -212 1 -225 19 -225 16 0 19 11 24 83 7 100 12 114 48
132 70 37 89 12 89 -116 0 -99 0 -99 25 -99 25 0 25 1 25 89 0 106 -12 147
-51 166 -39 20 -72 19 -102 -5 -14 -11 -28 -20 -31 -20 -3 0 -6 50 -6 110 0
103 -1 110 -20 110 -19 0 -20 -7 -20 -225z"/>
<path d="M2453 9143 c-23 -9 -14 -33 12 -33 l25 0 0 -185 0 -185 25 0 25 0 0
205 0 205 -37 -1 c-21 0 -44 -3 -50 -6z"/>
<path d="M2805 9117 c-43 -43 -58 -102 -53 -198 7 -115 55 -181 133 -181 78 0
126 66 133 181 5 96 -10 155 -53 198 -28 28 -40 33 -80 33 -40 0 -52 -5 -80
-33z m122 -29 c45 -50 60 -120 43 -202 -35 -170 -180 -127 -180 54 0 130 77
213 137 148z"/>
<path d="M3158 9135 c-43 -24 -72 -98 -73 -185 0 -138 46 -210 135 -210 88 0
135 72 135 205 -1 83 -16 133 -55 175 -23 25 -36 30 -72 30 -23 -1 -55 -7 -70
-15z m112 -55 c30 -32 40 -67 40 -139 0 -95 -38 -161 -92 -161 -57 0 -90 59
-90 160 -1 141 73 214 142 140z"/>
<path d="M3492 9134 c-80 -56 -95 -260 -26 -351 43 -56 123 -62 173 -13 75 76
72 282 -6 350 -39 35 -103 41 -141 14z m113 -48 c59 -59 59 -221 -1 -287 -13
-14 -28 -19 -53 -17 -46 4 -77 49 -86 123 -19 145 66 255 140 181z"/>
<path d="M3961 9125 c-46 -39 -64 -98 -59 -197 6 -132 48 -190 136 -190 43 0
79 26 106 78 31 58 30 202 -1 261 -29 54 -58 73 -109 73 -31 0 -51 -7 -73 -25z
m112 -35 c51 -40 65 -170 28 -255 -21 -48 -49 -63 -97 -51 -75 19 -89 249 -17
306 32 25 53 25 86 0z"/>
<path d="M4302 9134 c-80 -56 -95 -260 -26 -351 43 -56 123 -62 173 -13 75 76
72 282 -6 350 -39 35 -103 41 -141 14z m113 -48 c59 -59 59 -221 -1 -287 -13
-14 -28 -19 -53 -17 -46 4 -77 49 -86 123 -19 145 66 255 140 181z"/>
<path d="M4625 9117 c-43 -43 -58 -102 -53 -198 7 -115 55 -181 133 -181 78 0
126 66 133 181 5 96 -10 155 -53 198 -28 28 -40 33 -80 33 -40 0 -52 -5 -80
-33z m122 -29 c45 -50 60 -120 43 -202 -35 -170 -180 -127 -180 54 0 130 77
213 137 148z"/>
<path d="M7478 9058 c-3 -52 -4 -53 -35 -56 -20 -2 -33 -9 -33 -17 0 -8 13
-15 33 -17 l32 -3 3 -112 c2 -105 4 -113 22 -113 19 0 20 7 20 115 l0 115 35
0 c24 0 35 5 35 15 0 10 -11 15 -35 15 l-35 0 0 55 c0 48 -3 55 -19 55 -17 0
-20 -8 -23 -52z"/>
<path d="M7838 9058 c-3 -52 -4 -53 -35 -56 -20 -2 -33 -9 -33 -17 0 -8 13
-15 33 -17 l32 -3 3 -112 c2 -105 4 -113 22 -113 19 0 20 7 20 115 l0 115 35
0 c24 0 35 5 35 15 0 10 -11 15 -35 15 l-35 0 0 55 c0 48 -3 55 -19 55 -17 0
-20 -8 -23 -52z"/>
<path d="M7307 9086 c-6 -15 11 -36 29 -36 14 0 27 28 18 41 -8 14 -41 11 -47
-5z"/>
<path d="M5273 8990 c-122 -74 -75 -250 67 -250 54 0 92 23 120 73 49 86 -19
197 -120 197 -19 0 -49 -9 -67 -20z m125 -45 c70 -58 32 -165 -58 -165 -61 0
-104 53 -93 114 7 35 57 76 93 76 16 0 42 -11 58 -25z"/>
<path d="M5617 8990 c-22 -18 -27 -19 -27 -6 0 9 -8 16 -20 16 -19 0 -20 -7
-20 -130 0 -121 1 -130 19 -130 17 0 19 9 23 89 3 101 20 131 70 131 25 0 29
4 26 23 -4 30 -37 33 -71 7z"/>
<path d="M6203 8990 c-123 -74 -75 -250 68 -250 44 0 81 17 107 48 28 36 -6
45 -48 12 -36 -28 -91 -26 -124 5 -51 47 -39 55 90 55 l117 0 -7 32 c-13 67
-72 118 -136 118 -19 0 -49 -9 -67 -20z m128 -49 c16 -16 29 -34 29 -40 0 -7
-32 -11 -90 -11 -58 0 -90 4 -90 11 0 24 59 69 90 69 22 0 41 -9 61 -29z"/>
<path d="M6545 9000 c-37 -15 -76 -66 -82 -107 -11 -86 49 -153 139 -153 39 0
54 6 83 31 19 17 35 35 35 40 0 16 -41 9 -67 -11 -14 -11 -40 -20 -58 -20 -38
0 -85 33 -85 61 0 18 8 19 115 19 l115 0 -6 33 c-17 88 -109 141 -189 107z
m123 -65 c12 -14 22 -30 22 -36 0 -5 -40 -9 -90 -9 -102 0 -112 10 -58 55 26
22 39 26 67 21 21 -3 45 -16 59 -31z"/>
<path d="M6883 8990 c-27 -16 -33 -17 -33 -5 0 8 -9 15 -20 15 -19 0 -20 -7
-20 -205 0 -198 1 -205 20 -205 19 0 20 7 20 95 l0 96 29 -22 c36 -27 97 -29
135 -4 80 53 73 195 -13 240 -40 20 -79 19 -118 -5z m125 -56 c32 -36 30 -93
-4 -128 -58 -58 -154 -18 -154 63 0 91 99 132 158 65z"/>
<path d="M8375 9000 c-37 -15 -76 -66 -82 -107 -11 -86 49 -153 139 -153 39 0
54 6 83 31 19 17 35 35 35 40 0 16 -41 9 -67 -11 -14 -11 -40 -20 -58 -20 -38
0 -85 33 -85 61 0 18 8 19 115 19 l115 0 -6 33 c-17 88 -109 141 -189 107z
m123 -65 c12 -14 22 -30 22 -36 0 -5 -40 -9 -90 -9 -102 0 -112 10 -58 55 26
22 39 26 67 21 21 -3 45 -16 59 -31z"/>
<path d="M8813 8990 c-27 -16 -33 -26 -33 -54 0 -41 15 -55 89 -81 44 -16 57
-25 59 -44 4 -29 -12 -41 -55 -41 -22 0 -37 7 -45 20 -13 20 -58 28 -58 11 0
-6 10 -22 23 -36 64 -75 219 -8 179 79 -8 17 -28 30 -76 46 -72 24 -80 31 -71
60 8 25 60 27 86 4 9 -8 28 -14 41 -12 23 3 23 3 -9 36 -37 38 -81 42 -130 12z"/>
<path d="M9084 8992 c-83 -53 -83 -183 1 -238 36 -24 100 -22 136 5 29 21 29
21 29 1 0 -13 7 -20 20 -20 19 0 20 7 20 130 0 123 -1 130 -20 130 -14 0 -20
-7 -20 -22 l0 -21 -24 22 c-34 32 -101 38 -142 13z m128 -51 c67 -60 29 -161
-61 -161 -91 0 -122 131 -42 175 40 22 67 18 103 -14z"/>
<path d="M9380 8875 c0 -128 1 -135 20 -135 18 0 20 7 20 70 0 102 30 160 84
160 36 0 46 -28 46 -131 0 -92 1 -99 20 -99 19 0 20 7 20 90 0 83 2 93 25 115
27 28 52 32 78 13 13 -10 17 -34 19 -113 3 -95 4 -100 26 -103 21 -3 22 -1 22
88 0 98 -15 151 -48 169 -32 17 -77 13 -105 -9 l-26 -21 -21 21 c-26 26 -79
26 -114 -1 l-26 -20 0 20 c0 14 -6 21 -20 21 -19 0 -20 -7 -20 -135z"/>
<path d="M9905 9000 c-37 -15 -76 -66 -82 -107 -11 -86 49 -153 139 -153 39 0
54 6 83 31 19 17 35 35 35 40 0 16 -41 9 -67 -11 -14 -11 -40 -20 -58 -20 -38
0 -85 33 -85 61 0 18 8 19 115 19 l115 0 -6 33 c-17 88 -109 141 -189 107z
m123 -65 c12 -14 22 -30 22 -36 0 -5 -40 -9 -90 -9 -102 0 -112 10 -58 55 26
22 39 26 67 21 21 -3 45 -16 59 -31z"/>
<path d="M7310 8870 c0 -123 1 -130 20 -130 19 0 20 7 20 130 0 123 -1 130
-20 130 -19 0 -20 -7 -20 -130z"/>
<path d="M28280 8755 c0 -218 1 -225 20 -225 19 0 20 7 20 225 0 218 -1 225
-20 225 -19 0 -20 -7 -20 -225z"/>
<path d="M29930 8755 c0 -218 1 -225 20 -225 18 0 20 7 20 73 0 86 21 136 63
150 20 7 34 5 52 -7 24 -16 25 -21 25 -116 0 -93 1 -100 20 -100 19 0 20 7 20
106 0 103 -1 106 -29 135 -35 35 -72 37 -118 9 l-33 -20 0 110 c0 103 -1 110
-20 110 -19 0 -20 -7 -20 -225z"/>
<path d="M29630 8920 c0 -17 7 -20 50 -20 l50 0 0 -186 0 -185 23 3 c22 3 22
5 25 186 l2 182 45 0 c38 0 45 3 45 20 0 19 -7 20 -120 20 -113 0 -120 -1
-120 -20z"/>
<path d="M29180 8845 l0 -55 -35 0 c-24 0 -35 -5 -35 -15 0 -10 11 -15 35 -15
l35 0 0 -115 c0 -108 1 -115 20 -115 18 0 20 8 22 113 l3 112 33 3 c19 2 32 9
32 17 0 8 -13 15 -32 17 -32 3 -33 4 -36 56 -3 44 -6 52 -23 52 -16 0 -19 -7
-19 -55z"/>
<path d="M2180 8875 c0 -12 18 -15 100 -15 82 0 100 3 100 15 0 12 -18 15
-100 15 -82 0 -100 -3 -100 -15z"/>
<path d="M28413 8874 c-3 -8 -1 -20 5 -26 16 -16 42 -2 42 22 0 24 -38 28 -47
4z"/>
<path d="M29014 8875 c-4 -9 -2 -21 4 -27 15 -15 44 -1 40 19 -4 23 -36 29
-44 8z"/>
<path d="M31544 8875 c-4 -9 -2 -21 4 -27 15 -15 44 -1 40 19 -4 23 -36 29
-44 8z"/>
<path d="M2630 8758 c-6 -29 -13 -63 -16 -75 -4 -16 -2 -23 8 -23 8 0 27 32
45 75 l32 75 -29 0 c-26 0 -29 -4 -40 -52z"/>
<path d="M3784 8783 c-3 -16 -10 -44 -15 -63 -22 -85 2 -81 41 6 36 80 37 84
5 84 -19 0 -26 -7 -31 -27z"/>
<path d="M4935 8798 c-2 -7 -11 -41 -18 -75 -19 -82 1 -86 36 -9 41 90 42 96
12 96 -14 0 -28 -6 -30 -12z"/>
<path d="M10177 8794 c-13 -13 -7 -52 9 -58 22 -9 46 13 42 38 -3 21 -37 34
-51 20z"/>
<path d="M27243 8780 c-98 -59 -76 -219 34 -249 39 -11 68 -5 107 22 l29 21
-7 -50 c-9 -66 -41 -99 -97 -99 -35 0 -46 6 -69 33 -46 56 -83 34 -38 -23 44
-56 123 -70 179 -32 59 39 69 73 69 240 0 140 -1 147 -20 147 -11 0 -20 -7
-20 -15 0 -19 -3 -19 -42 5 -42 25 -84 25 -125 0z m125 -45 c36 -30 45 -69 27
-112 -26 -62 -106 -74 -149 -22 -41 48 -29 115 25 145 36 20 64 17 97 -11z"/>
<path d="M27584 8782 c-83 -53 -83 -183 1 -238 36 -24 100 -22 136 5 29 21 29
21 29 1 0 -13 7 -20 20 -20 19 0 20 7 20 130 0 123 -1 130 -20 130 -14 0 -20
-7 -20 -22 l0 -21 -24 22 c-34 32 -101 38 -142 13z m128 -51 c67 -60 29 -161
-61 -161 -91 0 -122 131 -42 175 40 22 67 18 103 -14z"/>
<path d="M27905 8788 c-30 -16 -45 -39 -45 -68 0 -34 22 -53 87 -74 63 -21 79
-37 63 -65 -15 -29 -84 -30 -102 -1 -7 11 -23 20 -35 20 -19 0 -21 -3 -14 -22
9 -27 65 -58 102 -58 43 0 94 41 97 77 4 41 -23 69 -82 84 -56 14 -85 42 -66
64 16 20 79 20 86 0 5 -13 54 -23 54 -11 0 49 -92 83 -145 54z"/>
<path d="M28557 8793 c-4 -3 -7 -64 -7 -135 0 -121 1 -128 20 -128 18 0 20 7
20 63 0 120 38 182 98 161 26 -9 27 -11 32 -114 5 -100 6 -105 28 -108 21 -3
22 -1 22 92 0 85 2 97 22 116 12 11 32 20 44 20 40 0 54 -35 54 -137 0 -88 1
-93 21 -93 20 0 21 4 17 111 -3 107 -4 112 -31 135 -37 32 -87 32 -117 1 l-23
-23 -23 23 c-29 29 -82 30 -118 2 l-26 -20 0 20 c0 20 -19 28 -33 14z"/>
<path d="M30563 8789 c-12 -6 -27 -25 -34 -41 -18 -44 0 -72 58 -93 64 -22 75
-28 87 -47 26 -42 -67 -68 -101 -28 -18 21 -53 27 -53 9 0 -63 128 -91 181
-38 24 24 25 80 2 102 -10 8 -40 22 -67 29 -53 16 -73 35 -63 62 8 21 75 22
83 1 6 -16 54 -21 54 -6 0 5 -8 19 -18 31 -21 26 -94 36 -129 19z"/>
<path d="M31090 8665 c0 -128 1 -135 20 -135 18 0 20 7 20 81 0 103 23 148 77
149 39 0 53 -35 53 -137 0 -86 1 -93 20 -93 19 0 20 7 20 94 0 90 1 96 26 115
64 51 94 14 94 -116 0 -86 1 -93 20 -93 19 0 20 7 20 106 0 103 -1 106 -29
135 -35 35 -77 38 -115 8 l-26 -20 -26 20 c-34 26 -84 27 -111 2 -21 -20 -21
-20 -26 0 -3 10 -12 19 -21 19 -14 0 -16 -18 -16 -135z"/>
<path d="M31753 8780 c-27 -16 -33 -17 -33 -5 0 8 -9 15 -20 15 -19 0 -20 -7
-20 -130 0 -123 1 -130 20 -130 18 0 20 7 20 70 0 88 17 132 59 149 26 12 34
11 56 -3 24 -16 25 -21 25 -116 0 -93 1 -100 20 -100 19 0 20 7 20 106 0 103
-1 106 -29 135 -35 35 -72 37 -118 9z"/>
<path d="M32043 8785 c-67 -29 -94 -126 -53 -192 25 -42 68 -63 126 -63 40 0
51 5 83 37 34 36 35 38 13 41 -12 2 -34 -6 -48 -17 -40 -31 -89 -28 -125 9
-17 16 -28 34 -24 40 4 6 53 10 116 10 l109 0 0 28 c0 61 -69 123 -137 122
-15 -1 -43 -7 -60 -15z m106 -39 c15 -8 32 -26 39 -40 l12 -26 -95 0 -95 0 12
26 c13 27 51 53 81 54 10 0 30 -6 46 -14z"/>
<path d="M32377 8780 c-22 -18 -27 -19 -27 -6 0 9 -8 16 -20 16 -19 0 -20 -7
-20 -130 0 -120 1 -130 19 -130 16 0 19 10 23 84 5 104 24 140 69 134 27 -4
30 -2 27 21 -4 34 -36 39 -71 11z"/>
<path d="M32513 8780 c-27 -16 -33 -26 -33 -54 0 -41 15 -55 89 -81 44 -16 57
-25 59 -44 4 -29 -12 -41 -55 -41 -22 0 -37 7 -45 20 -13 20 -58 28 -58 11 0
-6 10 -22 23 -36 64 -75 219 -8 179 79 -8 17 -28 30 -76 46 -72 24 -80 31 -71
60 8 25 60 27 86 4 9 -8 28 -14 41 -12 23 3 23 3 -9 36 -37 38 -81 42 -130 12z"/>
<path d="M32953 8780 c-45 -27 -65 -62 -65 -113 0 -53 23 -100 58 -123 35 -24
99 -21 135 5 29 21 29 21 29 1 0 -13 7 -20 20 -20 19 0 20 7 20 130 0 123 -1
130 -20 130 -11 0 -20 -7 -20 -15 0 -12 -6 -11 -32 5 -42 25 -84 25 -125 0z
m135 -56 c53 -60 11 -154 -70 -154 -53 0 -88 35 -88 87 0 92 99 134 158 67z"/>
<path d="M33307 8780 c-22 -18 -27 -19 -27 -6 0 9 -8 16 -20 16 -19 0 -20 -7
-20 -130 0 -120 1 -130 19 -130 16 0 19 10 23 84 5 104 24 140 69 134 27 -4
30 -2 27 21 -4 34 -36 39 -71 11z"/>
<path d="M33483 8780 c-123 -74 -75 -250 68 -250 44 0 81 17 107 48 28 36 -6
45 -48 12 -36 -28 -91 -26 -124 5 -51 47 -39 55 90 55 l117 0 -7 32 c-13 67
-72 118 -136 118 -19 0 -49 -9 -67 -20z m128 -49 c16 -16 29 -34 29 -40 0 -7
-32 -11 -90 -11 -58 0 -90 4 -90 11 0 24 59 69 90 69 22 0 41 -9 61 -29z"/>
<path d="M28420 8660 c0 -123 1 -130 20 -130 19 0 20 7 20 130 0 123 -1 130
-20 130 -19 0 -20 -7 -20 -130z"/>
<path d="M29010 8660 c0 -123 1 -130 20 -130 19 0 20 7 20 130 0 123 -1 130
-20 130 -19 0 -20 -7 -20 -130z"/>
<path d="M30240 8686 c0 -95 2 -107 23 -132 30 -35 97 -37 133 -3 l24 22 0
-21 c0 -15 6 -22 20 -22 19 0 20 7 20 130 0 123 -1 130 -20 130 -18 0 -20 -7
-20 -59 0 -115 -24 -161 -83 -161 -51 0 -57 13 -57 122 0 91 -1 98 -20 98 -19
0 -20 -7 -20 -104z"/>
<path d="M31550 8660 c0 -123 1 -130 20 -130 19 0 20 7 20 130 0 123 -1 130
-20 130 -19 0 -20 -7 -20 -130z"/>
<path d="M30790 8548 c-6 -29 -13 -63 -16 -75 -4 -16 -2 -23 8 -23 8 0 27 32
45 75 l32 75 -29 0 c-26 0 -29 -4 -40 -52z"/>
<path d="M29357 8584 c-13 -13 -7 -52 9 -58 22 -9 46 13 42 38 -3 21 -37 34
-51 20z"/>
<path d="M30590 7910 c0 -60 -2 -110 -5 -110 -2 0 -19 9 -37 20 -40 24 -78 25
-119 5 -87 -46 -93 -183 -10 -241 30 -21 102 -21 132 -1 29 21 39 21 39 2 0
-8 9 -15 20 -15 19 0 20 7 20 225 0 218 -1 225 -20 225 -19 0 -20 -7 -20 -110z
m-32 -146 c31 -36 30 -97 -3 -129 -37 -38 -95 -35 -129 6 -42 50 -33 114 22
144 36 20 81 11 110 -21z"/>
<path d="M30934 8006 c-15 -11 -20 -30 -24 -93 -5 -76 -6 -78 -32 -81 -16 -2
-28 -9 -28 -17 0 -8 12 -15 28 -17 l27 -3 3 -112 c2 -105 4 -113 22 -113 19 0
20 7 20 115 l0 115 35 0 c24 0 35 5 35 15 0 11 -11 15 -35 15 l-36 0 3 73 3
72 33 3 c24 2 32 8 32 23 0 15 -7 19 -33 19 -18 0 -42 -6 -53 -14z"/>
<path d="M31760 7795 c0 -218 1 -225 20 -225 19 0 20 7 20 225 0 218 -1 225
-20 225 -19 0 -20 -7 -20 -225z"/>
<path d="M35230 7980 c-103 -18 -170 -101 -170 -207 0 -55 26 -118 61 -150 59
-54 168 -69 238 -34 47 24 99 82 107 119 3 15 7 33 10 40 2 9 -22 12 -101 12
-98 0 -105 -1 -105 -20 0 -18 7 -20 81 -20 l80 0 -18 -31 c-25 -43 -90 -79
-142 -79 -58 0 -104 22 -137 66 -25 32 -29 46 -29 100 0 48 5 69 21 91 72 97
204 99 275 4 23 -32 59 -42 59 -17 0 18 -43 70 -80 96 -35 25 -103 38 -150 30z"/>
<path d="M34740 7775 l0 -205 120 0 c113 0 120 1 120 20 0 19 -7 20 -100 20
l-100 0 0 70 0 70 100 0 c93 0 100 1 100 20 0 18 -8 20 -97 22 l-98 3 0 70 0
70 98 3 c89 2 97 4 97 22 0 19 -7 20 -120 20 l-120 0 0 -205z"/>
<path d="M35550 7775 l0 -205 95 0 c88 0 95 1 95 20 0 18 -7 20 -75 20 l-75 0
0 185 c0 178 -1 185 -20 185 -19 0 -20 -7 -20 -205z"/>
<path d="M29887 7933 c-4 -3 -7 -28 -7 -55 0 -47 -1 -48 -30 -48 -20 0 -30 -5
-30 -15 0 -10 10 -15 30 -15 l30 0 0 -115 c0 -108 1 -115 20 -115 18 0 20 8
22 113 l3 112 33 3 c19 2 32 9 32 17 0 8 -13 15 -32 17 -32 3 -33 4 -36 56 -3
49 -16 65 -35 45z"/>
<path d="M32308 7888 c-3 -52 -4 -53 -35 -56 -20 -2 -33 -9 -33 -17 0 -8 13
-15 33 -17 l32 -3 3 -112 c2 -105 4 -113 22 -113 19 0 20 7 20 115 l0 115 30
0 c20 0 30 5 30 15 0 10 -10 15 -29 15 -29 0 -30 2 -33 52 -2 40 -7 54 -20 56
-14 3 -17 -6 -20 -50z"/>
<path d="M34088 7888 c-3 -52 -4 -53 -35 -56 -20 -2 -33 -9 -33 -17 0 -8 13
-15 33 -17 l32 -3 3 -112 c2 -105 4 -113 22 -113 19 0 20 7 20 115 l0 115 30
0 c20 0 30 5 30 15 0 10 -10 15 -29 15 -29 0 -30 2 -33 52 -2 40 -7 54 -20 56
-14 3 -17 -6 -20 -50z"/>
<path d="M31894 7915 c-4 -9 -2 -21 4 -27 15 -15 44 -1 40 19 -4 23 -36 29
-44 8z"/>
<path d="M33104 7915 c-4 -9 -2 -21 4 -27 15 -15 44 -1 40 19 -4 23 -36 29
-44 8z"/>
<path d="M27254 7826 c-72 -32 -98 -129 -55 -200 19 -30 37 -42 93 -59 27 -9
83 11 112 39 50 51 20 76 -36 29 -40 -34 -87 -33 -122 1 -30 31 -35 86 -11
122 31 44 122 45 146 1 5 -11 20 -19 35 -19 24 0 24 1 9 30 -30 58 -110 84
-171 56z"/>
<path d="M27563 7825 c-123 -53 -80 -255 54 -255 84 0 143 56 143 135 0 100
-102 162 -197 120z m107 -40 c59 -30 68 -98 21 -146 -76 -76 -202 16 -151 111
12 23 57 49 83 50 10 0 31 -7 47 -15z"/>
<path d="M27840 7705 c0 -128 1 -135 20 -135 18 0 20 7 20 81 0 103 23 148 77
149 39 0 53 -35 53 -137 0 -86 1 -93 20 -93 19 0 20 7 20 94 0 90 1 96 26 115
64 51 94 14 94 -116 0 -86 1 -93 20 -93 19 0 20 7 20 106 0 103 -1 106 -29
135 -35 35 -77 38 -115 8 l-26 -20 -26 20 c-34 26 -84 27 -111 2 -21 -20 -21
-20 -26 0 -3 10 -12 19 -21 19 -14 0 -16 -18 -16 -135z"/>
<path d="M28372 7820 c-39 -24 -42 -24 -42 -5 0 8 -9 15 -20 15 -19 0 -20 -7
-20 -205 0 -198 1 -205 20 -205 19 0 20 7 20 96 l0 95 28 -19 c37 -26 66 -32
105 -21 110 30 132 190 34 249 -41 25 -83 25 -125 0z m97 -34 c54 -28 66 -97
25 -145 -21 -25 -33 -31 -65 -31 -88 0 -124 101 -58 163 33 30 57 34 98 13z"/>
<path d="M28693 7825 c-67 -29 -94 -126 -53 -192 25 -42 68 -63 126 -63 40 0
51 5 83 37 34 36 35 38 13 41 -12 2 -34 -6 -48 -17 -40 -31 -89 -28 -125 9
-17 16 -28 34 -24 40 4 6 53 10 116 10 l109 0 0 28 c0 61 -69 123 -137 122
-15 -1 -43 -7 -60 -15z m106 -39 c15 -8 32 -26 39 -40 l12 -26 -95 0 -95 0 12
26 c13 27 51 53 81 54 10 0 30 -6 46 -14z"/>
<path d="M29033 7820 c-27 -16 -33 -17 -33 -5 0 8 -9 15 -20 15 -19 0 -20 -7
-20 -130 0 -123 1 -130 20 -130 18 0 20 7 20 70 0 88 17 132 59 149 26 12 34
11 56 -3 24 -16 25 -21 25 -116 0 -93 1 -100 20 -100 19 0 20 7 20 106 0 103
-1 106 -29 135 -35 35 -72 37 -118 9z"/>
<path d="M29283 7820 c-27 -16 -33 -26 -33 -54 0 -41 15 -55 89 -81 44 -16 57
-25 59 -44 4 -29 -12 -41 -55 -41 -22 0 -37 7 -45 20 -13 20 -58 28 -58 11 0
-6 10 -22 23 -36 64 -75 219 -8 179 79 -8 17 -28 30 -76 46 -72 24 -80 31 -71
60 8 25 60 27 86 4 9 -8 28 -14 41 -12 23 3 23 3 -9 36 -37 38 -81 42 -130 12z"/>
<path d="M29554 7822 c-83 -53 -83 -183 1 -238 36 -24 100 -22 136 5 29 21 29
21 29 1 0 -13 7 -20 20 -20 19 0 20 7 20 130 0 123 -1 130 -20 130 -14 0 -20
-7 -20 -22 l0 -21 -24 22 c-34 32 -101 38 -142 13z m128 -51 c67 -60 29 -161
-61 -161 -91 0 -122 131 -42 175 40 22 67 18 103 -14z"/>
<path d="M30115 7830 c-37 -15 -76 -66 -82 -107 -11 -86 49 -153 139 -153 39
0 54 6 83 31 19 17 35 35 35 40 0 16 -41 9 -67 -11 -14 -11 -40 -20 -58 -20
-38 0 -85 33 -85 61 0 18 8 19 115 19 l115 0 -6 33 c-17 88 -109 141 -189 107z
m123 -65 c12 -14 22 -30 22 -36 0 -5 -40 -9 -90 -9 -102 0 -112 10 -58 55 26
22 39 26 67 21 21 -3 45 -16 59 -31z"/>
<path d="M31133 7821 c-53 -33 -67 -66 -64 -145 1 -19 14 -41 40 -67 34 -35
44 -39 87 -39 92 0 153 66 141 154 -12 90 -127 145 -204 97z m116 -36 c56 -29
64 -103 16 -151 -53 -53 -155 -11 -155 65 0 79 70 122 139 86z"/>
<path d="M31477 7820 c-22 -18 -27 -19 -27 -6 0 9 -8 16 -20 16 -19 0 -20 -7
-20 -130 0 -120 1 -130 19 -130 16 0 19 10 23 84 5 104 24 140 69 134 27 -4
30 -2 27 21 -4 34 -36 39 -71 11z"/>
<path d="M32055 7828 c-30 -16 -45 -39 -45 -68 0 -34 22 -53 87 -74 63 -21 79
-37 63 -65 -15 -29 -84 -30 -102 -1 -7 11 -23 20 -35 20 -19 0 -21 -3 -14 -22
9 -27 65 -58 102 -58 43 0 94 41 97 77 4 41 -23 69 -82 84 -56 14 -85 42 -66
64 16 20 79 20 86 0 5 -13 54 -23 54 -11 0 49 -92 83 -145 54z"/>
<path d="M32523 7820 c-123 -74 -75 -250 68 -250 44 0 81 17 107 48 28 36 -6
45 -48 12 -36 -28 -91 -26 -124 5 -51 47 -39 55 90 55 l117 0 -7 32 c-13 67
-72 118 -136 118 -19 0 -49 -9 -67 -20z m128 -49 c16 -16 29 -34 29 -40 0 -7
-32 -11 -90 -11 -58 0 -90 4 -90 11 0 24 59 69 90 69 22 0 41 -9 61 -29z"/>
<path d="M32890 7833 c-8 -3 -23 -12 -32 -21 -16 -14 -18 -13 -18 1 0 10 -8
17 -20 17 -19 0 -20 -7 -20 -130 0 -123 1 -130 20 -130 18 0 20 7 20 75 0 86
17 131 56 145 35 14 41 13 64 -10 17 -17 20 -33 20 -115 0 -88 1 -95 20 -95
19 0 20 7 20 106 0 103 -1 106 -29 135 -29 28 -63 36 -101 22z"/>
<path d="M33313 7820 c-27 -16 -33 -17 -33 -5 0 8 -9 15 -20 15 -19 0 -20 -7
-20 -130 0 -123 1 -130 20 -130 18 0 20 7 20 70 0 88 17 132 59 149 26 12 34
11 56 -3 24 -16 25 -21 25 -116 0 -93 1 -100 20 -100 19 0 20 7 20 106 0 103
-1 106 -29 135 -35 35 -72 37 -118 9z"/>
<path d="M33602 7824 c-66 -34 -90 -134 -48 -199 39 -60 122 -77 177 -36 l29
22 0 -36 c0 -49 -23 -90 -59 -105 -40 -16 -77 -6 -112 31 -25 27 -59 39 -59
22 0 -23 43 -72 75 -87 55 -27 109 -17 154 28 l36 36 3 165 c3 161 3 165 -17
165 -12 0 -21 -7 -21 -15 0 -19 -9 -19 -31 1 -26 24 -88 27 -127 8z m101 -35
c89 -41 59 -179 -39 -179 -51 0 -89 38 -89 90 0 35 6 47 33 71 35 31 57 35 95
18z"/>
<path d="M34303 7820 c-122 -74 -75 -250 67 -250 54 0 92 23 120 73 49 86 -19
197 -120 197 -19 0 -49 -9 -67 -20z m125 -45 c70 -58 32 -165 -58 -165 -61 0
-104 53 -93 114 7 35 57 76 93 76 16 0 42 -11 58 -25z"/>
<path d="M31900 7700 c0 -123 1 -130 20 -130 19 0 20 7 20 130 0 123 -1 130
-20 130 -19 0 -20 -7 -20 -130z"/>
<path d="M33110 7700 c0 -123 1 -130 20 -130 19 0 20 7 20 130 0 123 -1 130
-20 130 -19 0 -20 -7 -20 -130z"/>
<path d="M27190 6835 c0 -212 1 -225 19 -225 16 0 19 11 24 83 7 100 12 114
48 132 70 37 89 12 89 -116 0 -99 0 -99 25 -99 25 0 25 1 25 89 0 106 -12 147
-51 166 -39 20 -72 19 -102 -5 -14 -11 -28 -20 -31 -20 -3 0 -6 50 -6 110 0
103 -1 110 -20 110 -19 0 -20 -7 -20 -225z"/>
<path d="M27830 6835 c0 -218 1 -225 20 -225 19 0 20 7 20 225 0 218 -1 225
-20 225 -19 0 -20 -7 -20 -225z"/>
<path d="M28170 6943 l0 -116 -26 24 c-39 36 -112 34 -153 -5 -58 -56 -64
-137 -15 -195 44 -52 126 -59 175 -15 18 16 19 16 19 -4 0 -15 6 -22 20 -22
19 0 20 7 20 225 0 218 -1 225 -20 225 -19 0 -20 -7 -20 -117z m-51 -117 c54
-28 66 -97 25 -145 -43 -52 -123 -40 -149 22 -18 43 -9 82 27 112 34 29 57 31
97 11z"/>
<path d="M27565 6870 c-37 -15 -76 -66 -82 -107 -12 -87 49 -153 141 -153 43
0 53 4 87 39 38 38 45 57 39 121 -7 77 -109 132 -185 100z m123 -65 c34 -40
30 -96 -9 -129 -79 -66 -188 11 -149 105 26 62 113 75 158 24z"/>
<path d="M28353 6860 c-123 -74 -75 -250 68 -250 44 0 81 17 107 48 28 36 -6
45 -48 12 -36 -28 -91 -26 -124 5 -51 47 -39 55 90 55 l117 0 -7 32 c-13 67
-72 118 -136 118 -19 0 -49 -9 -67 -20z m128 -49 c16 -16 29 -34 29 -40 0 -7
-32 -11 -90 -11 -58 0 -90 4 -90 11 0 24 59 69 90 69 22 0 41 -9 61 -29z"/>
<path d="M28692 6858 c-19 -19 -22 -20 -22 -5 0 10 -8 17 -20 17 -19 0 -20 -7
-20 -130 0 -123 1 -130 20 -130 18 0 20 7 20 84 0 70 3 88 21 111 16 19 28 26
45 22 21 -4 24 0 24 24 0 23 -4 29 -23 29 -12 0 -33 -10 -45 -22z"/>
<path d="M28832 6865 c-50 -37 -47 -104 7 -123 14 -6 44 -16 66 -24 42 -15 55
-39 35 -63 -18 -22 -74 -19 -95 5 -20 23 -55 27 -55 7 0 -21 43 -56 77 -63 35
-7 95 10 113 31 17 21 15 74 -3 93 -10 9 -43 25 -75 37 -49 17 -57 24 -57 45
0 21 5 25 36 28 23 2 40 -2 49 -12 15 -20 50 -21 50 -3 0 44 -105 73 -148 42z"/>
<path d="M29067 6664 c-13 -13 -7 -52 9 -58 22 -9 46 13 42 38 -3 21 -37 34
-51 20z"/>
</g>
</svg>
