<?xml version="1.0" encoding="UTF-8" standalone="no"?>
<svg
   xmlns:dc="http://purl.org/dc/elements/1.1/"
   xmlns:cc="http://creativecommons.org/ns#"
   xmlns:rdf="http://www.w3.org/1999/02/22-rdf-syntax-ns#"
   xmlns:svg="http://www.w3.org/2000/svg"
   xmlns="http://www.w3.org/2000/svg"
   xmlns:sodipodi="http://sodipodi.sourceforge.net/DTD/sodipodi-0.dtd"
   xmlns:inkscape="http://www.inkscape.org/namespaces/inkscape"
   version="1.1"
   id="Layer_1"
   x="0px"
   y="0px"
   viewBox="0 0 4000 4000"
   style="enable-background:new 0 0 4000 4000;"
   xml:space="preserve"
   sodipodi:docname="LogomarkOrigianl.svg"
   inkscape:version="1.0.2 (e86c8708, 2021-01-15)"><metadata
   id="metadata162"><rdf:RDF><cc:Work
       rdf:about=""><dc:format>image/svg+xml</dc:format><dc:type
         rdf:resource="http://purl.org/dc/dcmitype/StillImage" /><dc:title></dc:title></cc:Work></rdf:RDF></metadata><defs
   id="defs160" /><sodipodi:namedview
   pagecolor="#ffffff"
   bordercolor="#666666"
   borderopacity="1"
   objecttolerance="10"
   gridtolerance="10"
   guidetolerance="10"
   inkscape:pageopacity="0"
   inkscape:pageshadow="2"
   inkscape:window-width="1680"
   inkscape:window-height="928"
   id="namedview158"
   showgrid="false"
   inkscape:zoom="0.18"
   inkscape:cx="2000"
   inkscape:cy="2000"
   inkscape:window-x="0"
   inkscape:window-y="23"
   inkscape:window-maximized="1"
   inkscape:current-layer="Layer_1" />
<style
   type="text/css"
   id="style123">
	.st0{fill:#FF847B;}
	.st1{fill:#E84A5F;}
</style>
<polygon
   class="st0"
   points="1999.54,1708.98 1517.75,2460.14 1999.54,2734.68 "
   id="polygon125" />
<polygon
   class="st0"
   points="1534.36,2655.46 1999.54,3308 1999.54,2925.78 "
   id="polygon127" />
<polygon
   class="st0"
   points="1242.24,1984.55 1155.58,2119.45 1063.18,1987.75 "
   id="polygon129" />
<polygon
   class="st0"
   points="1459.61,2249.66 1410.06,2329.74 1409.52,2330.63 1378.41,2379.05 1359.3,2408.81 1358.3,2407.44 "
   id="polygon131" />
<polygon
   class="st0"
   points="960.87,1173.59 492,1173.59 380.6,1014.79 818.3,1014.79 "
   id="polygon133" />
<polygon
   class="st0"
   points="1249.62,1495.23 717.66,1495.23 605.29,1335.08 1105.84,1335.08 "
   id="polygon135" />
<polygon
   class="st0"
   points="1428.53,1694.51 1348.21,1819.56 945.88,1819.56 923.94,1789.28 923.43,1788.55 831.89,1658.06   1395.8,1658.06 "
   id="polygon137" />
<polygon
   class="st0"
   points="1999.54,1409.07 1459.61,2249.66 1358.3,2407.44 1336.96,2377.97 1310.34,2340.05 1257.77,2265.11   1255.78,2262.26 1436.38,1981.08 1437.73,1981.05 1438.59,1979.7 1541.17,1819.99 1541.44,1819.56 1630.69,1680.59 1631.68,1679.06   1631.04,1678.33 1630.9,1678.2 1612.84,1658.06 1611.63,1656.72 1519.18,1553.71 1519.04,1553.55 1467.88,1496.57 1466.66,1495.23   1322.88,1335.08 1179.13,1174.93 1177.92,1173.59 1035.34,1014.79 1034.13,1013.44 890.38,853.29 267.31,853.29 154,691.8   960.06,691.8 1105.06,853.29 1248.81,1013.44 1250.02,1014.79 1392.59,1173.59 1393.78,1174.93 1537.56,1335.08 1608.56,1414.18   1608.7,1414.32 1681.31,1495.23 1682.53,1496.57 1720.45,1538.8 1720.56,1538.94 1721.23,1539.66 1722.68,1541.28 1856.35,1333.22   1951.54,1334.35 "
   id="polygon139" />
<polygon
   class="st1"
   points="1999.53,1708.98 2481.31,2460.14 1999.53,2734.68 "
   id="polygon141" />
<polygon
   class="st1"
   points="2464.7,2655.46 1999.53,3308 1999.53,2925.78 "
   id="polygon143" />
<polygon
   class="st1"
   points="2756.82,1984.55 2843.49,2119.45 2935.89,1987.75 "
   id="polygon145" />
<polygon
   class="st1"
   points="2640.77,2407.44 2639.77,2408.81 2620.66,2379.05 2589.55,2330.63 2589.01,2329.74 2539.92,2250.42 "
   id="polygon147" />
<polygon
   class="st1"
   points="3038.19,1173.59 3507.06,1173.59 3618.46,1014.79 3180.76,1014.79 "
   id="polygon149" />
<polygon
   class="st1"
   points="2749.44,1495.23 3281.4,1495.23 3393.77,1335.08 2893.23,1335.08 "
   id="polygon151" />
<polygon
   class="st1"
   points="2570.54,1694.51 2650.85,1819.56 3053.18,1819.56 3075.12,1789.28 3075.63,1788.55 3167.17,1658.06   2603.27,1658.06 "
   id="polygon153" />
<polygon
   class="st1"
   points="3845.07,691.8 3731.76,853.29 3108.69,853.29 2964.94,1013.44 2963.73,1014.79 2821.16,1173.59   2819.94,1174.93 2676.19,1335.08 2532.41,1495.23 2531.2,1496.57 2480.03,1553.55 2479.89,1553.71 2387.44,1656.72 2386.23,1658.06   2368.17,1678.2 2368.03,1678.33 2367.39,1679.06 2368.38,1680.59 2457.64,1819.56 2457.9,1819.99 2560.48,1979.7 2561.34,1981.05   2562.69,1981.08 2743.29,2262.26 2741.3,2265.11 2688.73,2340.05 2662.11,2377.97 2640.77,2407.44 2539.92,2250.42 2539.81,2250.23   2539.46,2249.66 1999.54,1409.07 1951.54,1334.35 1856.35,1333.22 1794.09,1332.47 1581.16,1094.19 1797.91,1095.15   1983.25,1095.99 1996.55,1114.91 2065.64,1213.15 2095.49,1259.66 2144.96,1336.67 2276.39,1541.28 2277.84,1539.66   2278.51,1538.94 2278.62,1538.8 2316.54,1496.57 2317.76,1495.23 2390.37,1414.32 2390.51,1414.18 2461.51,1335.08 2605.29,1174.93   2606.48,1173.59 2749.05,1014.79 2750.26,1013.44 2894.02,853.29 3039.01,691.8 "
   id="polygon155" />
</svg>
