<?xml version="1.0" encoding="utf-8"?>
<svg viewBox="489.519 243.5 3.027 23.045" xmlns="http://www.w3.org/2000/svg">
  <path d="M9.5 13a1.5 1.5 0 1 1-3 0 1.5 1.5 0 0 1 3 0zm0-5a1.5 1.5 0 1 1-3 0 1.5 1.5 0 0 1 3 0zm0-5a1.5 1.5 0 1 1-3 0 1.5 1.5 0 0 1 3 0z" transform="matrix(1, 0, 0, 1, 483.019226, 242)"/>
  <path d="M 492.546 265.043 C 492.546 266.197 491.296 266.919 490.296 266.342 C 489.832 266.074 489.546 265.578 489.546 265.043 C 489.546 263.888 490.796 263.166 491.796 263.743 C 492.26 264.011 492.546 264.507 492.546 265.043 Z M 492.546 260.043 C 492.546 261.197 491.296 261.919 490.296 261.342 C 489.832 261.074 489.546 260.578 489.546 260.043 C 489.546 258.888 490.796 258.166 491.796 258.743 C 492.26 259.011 492.546 259.507 492.546 260.043 Z M 492.546 255.043 C 492.546 256.197 491.296 256.919 490.296 256.342 C 489.832 256.074 489.546 255.578 489.546 255.043 C 489.546 253.888 490.796 253.166 491.796 253.743 C 492.26 254.011 492.546 254.507 492.546 255.043 Z"/>
</svg>